SplineFontDB: 3.0
FontName: Rokkitt-SemiBold
FullName: Rokkitt-SemiBold
FamilyName: Rokkitt
Weight: SemiBold
Copyright: 
Version: 2
ItalicAngle: 0
UnderlinePosition: 0
UnderlineWidth: 0
Ascent: 1638
Descent: 410
UFOAscent: 1152
UFODescent: -410
LayerCount: 2
Layer: 0 0 "Back"  1
Layer: 1 0 "Fore"  0
FSType: 0
OS2Version: 0
OS2_WeightWidthSlopeOnly: 0
OS2_UseTypoMetrics: 0
CreationTime: 1390511087
ModificationTime: 1390528535
PfmFamily: 17
TTFWeight: 600
TTFWidth: 5
LineGap: 0
VLineGap: 0
Panose: 2 0 5 3 5 0 0 2 0 3
OS2TypoAscent: 0
OS2TypoAOffset: 1
OS2TypoDescent: 0
OS2TypoDOffset: 1
OS2TypoLinegap: 0
OS2WinAscent: 0
OS2WinAOffset: 1
OS2WinDescent: 0
OS2WinDOffset: 1
HheadAscent: 0
HheadAOffset: 1
HheadDescent: 0
HheadDOffset: 1
OS2SubXSize: 1331
OS2SubYSize: 1228
OS2SubXOff: 0
OS2SubYOff: 153
OS2SupXSize: 1331
OS2SupYSize: 1228
OS2SupXOff: 0
OS2SupYOff: 716
OS2StrikeYSize: 0
OS2StrikeYPos: 501
OS2Vendor: 'NeWT'
Lookup: 258 0 0 "'kern' Horizontal Kerning in Latin lookup 0"  {"'kern' Horizontal Kerning in Latin lookup 0 subtable"  } ['kern' ('latn' <'dflt' > ) ]
MarkAttachClasses: 1
DEI: 91125
LangName: 1033 
PickledData: "(dp1
S'com.typemytype.robofont.compileSettings.generateFormat'
p2
I0
sS'com.petr.ptt'
p3
(dp4
S'originals'
p5
(dp6
S'maxp'
p7
(dp8
S'numGlyphs'
p9
I423
sS'tableTag'
p10
S'maxp'
p11
sS'tableVersion'
p12
I20480
ssssS'com.schriftgestaltung.weight'
p13
S'Light'
p14
sS'com.typemytype.robofont.compileSettings.autohint'
p15
I0
sS'GSDimensionPlugin.Dimensions'
p16
(dp17
S'1F09728C-766D-4240-AE17-E499EF32E23D'
p18
(dp19
sS'98C086B7-81AA-4491-8494-0C6A76849168'
p20
(dp21
sS'EFCDB4D9-E20B-4A8D-9DB5-150AD166B0AE'
p22
(dp23
ssS'com.typemytype.robofont.compileSettings.checkOutlines'
p24
I1
sS'com.typemytype.robofont.compileSettings.MacRomanFirst'
p25
I1
sS'com.typemytype.robofont.shouldAddPointsInSplineConversion'
p26
I1
sS'com.typemytype.robofont.compileSettings.decompose'
p27
I1
sS'com.typemytype.robofont.compileSettings.path'
p28

StartChar: A
Encoding: 65 65 1
Width: 1382
VWidth: 0
Flags: HW
PickledData: "(dp1
S'org.robofab.postScriptHintData'
p2
(dp3
sS'com.typemytype.robofont.layerData'
p4
(dp5
S'b'
(dp6
S'name'
p7
S'A'
sS'lib'
p8
(dp9
sS'unicodes'
p10
(tsS'width'
p11
I1383
sS'contours'
p12
(tsS'components'
p13
(tsS'anchors'
p14
(tsss."
AnchorPoint: "top" 692 1152 basechar 0
LayerCount: 2
Fore
SplineSet
506 553 m 1
 677 1042 l 1
 690 1042 l 1
 858 553 l 1
 506 553 l 1
58 0 m 1
 513 0 l 1
 513 109 l 1
 358 109 l 1
 474 445 l 1
 890 445 l 1
 1008 109 l 1
 854 109 l 1
 854 0 l 1
 1323 0 l 1
 1323 109 l 1
 1184 109 l 1
 840 1044 l 1
 972 1044 l 1
 972 1152 l 1
 410 1152 l 1
 410 1044 l 1
 539 1044 l 1
 204 109 l 1
 58 109 l 1
 58 0 l 1
EndSplineSet
EndChar

StartChar: AE
Encoding: 198 198 2
Width: 1987
VWidth: 0
Flags: HW
PickledData: "(dp1
S'org.robofab.postScriptHintData'
p2
(dp3
sS'com.typemytype.robofont.layerData'
p4
(dp5
S'b'
(dp6
S'name'
p7
S'AE'
p8
sS'lib'
p9
(dp10
sS'unicodes'
p11
(tsS'width'
p12
I2243
sS'contours'
p13
(tsS'components'
p14
(tsS'anchors'
p15
(tsss."
AnchorPoint: "top" 1188 1152 basechar 0
LayerCount: 2
Fore
SplineSet
45 0 m 257
 517 0 l 257
 517 109 l 257
 376 109 l 257
 556 420 l 257
 974 420 l 257
 994 109 l 257
 837 109 l 257
 837 0 l 257
 1867 0 l 257
 1847 367 l 257
 1720 367 l 257
 1737 109 l 257
 1160 109 l 257
 1135 531 l 257
 1500 531 l 257
 1512 391 l 257
 1595 391 l 257
 1571 780 l 257
 1489 780 l 257
 1498 645 l 257
 1132 645 l 257
 1107 1044 l 257
 1665 1044 l 257
 1683 789 l 257
 1811 789 l 257
 1792 1152 l 257
 650 1152 l 257
 650 1044 l 257
 775 1044 l 257
 201 109 l 257
 45 109 l 257
 45 0 l 257
608 522 m 257
 923 1044 l 257
 942 1044 l 257
 973 522 l 257
 608 522 l 257
EndSplineSet
EndChar

StartChar: B
Encoding: 66 66 14
Width: 1188
VWidth: 0
Flags: HW
PickledData: "(dp1
S'org.robofab.postScriptHintData'
p2
(dp3
sS'com.typemytype.robofont.layerData'
p4
(dp5
S'b'
(dp6
S'name'
p7
S'B'
sS'lib'
p8
(dp9
sS'unicodes'
p10
(tsS'width'
p11
I1354
sS'contours'
p12
((dp13
S'points'
p14
((dp15
S'segmentType'
p16
S'line'
p17
sS'x'
I353
sS'smooth'
p18
I0
sS'y'
I1095
s(dp19
g16
S'line'
p20
sS'x'
I740
sg18
I1
sS'y'
I1095
s(dp21
S'y'
I1095
sS'x'
I917
sg18
I0
s(dp22
S'y'
I983
sS'x'
I1004
sg18
I0
s(dp23
g16
S'curve'
p24
sS'x'
I1004
sg18
I1
sS'y'
I868
s(dp25
S'y'
I751
sS'x'
I1004
sg18
I0
s(dp26
S'y'
I634
sS'x'
I928
sg18
I0
s(dp27
g16
S'curve'
p28
sS'x'
I784
sg18
I1
sS'y'
I634
s(dp29
g16
S'line'
p30
sS'x'
I353
sg18
I0
sS'y'
I634
stp31
s(dp32
g14
((dp33
g16
S'line'
p34
sS'x'
I353
sg18
I0
sS'y'
I573
s(dp35
g16
S'line'
p36
sS'x'
I793
sg18
I1
sS'y'
I573
s(dp37
S'y'
I573
sS'x'
I979
sg18
I0
s(dp38
S'y'
I439
sS'x'
I1072
sg18
I0
s(dp39
g16
S'curve'
p40
sS'x'
I1072
sg18
I1
sS'y'
I320
s(dp41
S'y'
I187
sS'x'
I1072
sg18
I0
s(dp42
S'y'
I58
sS'x'
I985
sg18
I0
s(dp43
g16
S'curve'
p44
sS'x'
I807
sg18
I1
sS'y'
I58
s(dp45
g16
S'line'
p46
sS'x'
I353
sg18
I0
sS'y'
I58
stp47
s(dp48
g14
((dp49
g16
S'line'
p50
sS'x'
I807
sg18
I1
sS'y'
I0
s(dp51
S'y'
I0
sS'x'
I1031
sg18
I0
s(dp52
S'y'
I158
sS'x'
I1146
sg18
I0
s(dp53
g16
S'curve'
p54
sS'x'
I1146
sg18
I1
sS'y'
I316
s(dp55
S'y'
I439
sS'x'
I1146
sg18
I0
s(dp56
S'y'
I568
sS'x'
I1074
sg18
I0
s(dp57
g16
S'curve'
p58
sS'x'
I919
sg18
I0
sS'y'
I611
s(dp59
S'y'
I669
sS'x'
I1029
sg18
I0
s(dp60
S'y'
I769
sS'x'
I1079
sg18
I0
s(dp61
g16
S'curve'
p62
sS'x'
I1079
sg18
I1
sS'y'
I870
s(dp63
S'y'
I1012
sS'x'
I1079
sg18
I0
s(dp64
S'y'
I1154
sS'x'
I964
sg18
I0
s(dp65
g16
S'curve'
p66
sS'x'
I740
sg18
I1
sS'y'
I1154
s(dp67
g16
S'line'
p68
sS'x'
I122
sg18
I0
sS'y'
I1154
s(dp69
g16
S'line'
p70
sS'x'
I122
sg18
I0
sS'y'
I1095
s(dp71
g16
S'line'
p72
sS'x'
I278
sg18
I0
sS'y'
I1095
s(dp73
g16
S'line'
p74
sS'x'
I278
sg18
I0
sS'y'
I58
s(dp75
g16
S'line'
p76
sS'x'
I135
sg18
I0
sS'y'
I58
s(dp77
g16
S'line'
p78
sS'x'
I135
sg18
I0
sS'y'
I0
stp79
stp80
sS'components'
p81
(tsS'anchors'
p82
(tsss."
AnchorPoint: "top" 523 1152 basechar 0
LayerCount: 2
Fore
SplineSet
652 1152 m 2
 80 1152 l 1
 80 1044 l 1
 240 1044 l 1
 240 108 l 1
 80 108 l 1
 80 0 l 1
 695 0 l 2
 1001 0 1107 161 1107 326 c 0
 1107 464 1028 575 872 614 c 1
 976 650 1046 739 1046 866 c 0
 1046 1054 908 1152 652 1152 c 2
407 1044 m 1
 473 1044 539 1044 605 1044 c 0
 798 1044 880 995 880 860 c 0
 880 737 811 662 641 662 c 2
 407 662 l 1
 407 1044 l 1
407 549 m 1
 660 549 l 2
 850 549 937 460 937 332 c 0
 937 192 858 109 666 109 c 2
 407 109 l 1
 407 549 l 1
EndSplineSet
EndChar

StartChar: C
Encoding: 67 67 16
Width: 1362
VWidth: 0
Flags: HW
PickledData: "(dp1
S'org.robofab.postScriptHintData'
p2
(dp3
sS'com.typemytype.robofont.layerData'
p4
(dp5
S'b'
(dp6
S'name'
p7
S'C'
sS'lib'
p8
(dp9
sS'unicodes'
p10
(tsS'width'
p11
I1411
sS'contours'
p12
(tsS'components'
p13
(tsS'anchors'
p14
(tsss."
AnchorPoint: "bot" 690 0 basechar 0
AnchorPoint: "top" 714 1152 basechar 0
LayerCount: 2
Fore
SplineSet
704 -22 m 0
 939 -21 1147 61 1245 312 c 1
 1123 372 l 1
 1053 174 887 101 714 101 c 0
 459 101 268 288 268 579 c 0
 268 844 441 1051 715 1051 c 0
 896 1051 1024 977 1109 800 c 1
 1221 805 l 1
 1221 1154 l 1
 1098 1154 l 1
 1098 996 l 1
 1010 1104 888 1173 705 1173 c 0
 337 1173 100 922 100 578 c 0
 100 223 345 -21 704 -22 c 0
EndSplineSet
EndChar

StartChar: D
Encoding: 68 68 23
Width: 1401
VWidth: 0
Flags: HW
PickledData: "(dp1
S'org.robofab.postScriptHintData'
p2
(dp3
sS'com.typemytype.robofont.layerData'
p4
(dp5
S'b'
(dp6
S'name'
p7
S'D'
sS'lib'
p8
(dp9
sS'unicodes'
p10
(tsS'width'
p11
I1434
sS'contours'
p12
(tsS'components'
p13
(tsS'anchors'
p14
(tsss."
AnchorPoint: "top" 599 1152 basechar 0
LayerCount: 2
Fore
SplineSet
139 108 m 1
 82 108 l 1
 82 0 l 1
 710 0 l 2
 1103 0 1300 248 1300 588 c 0
 1300 869 1111 1152 709 1152 c 2
 82 1152 l 1
 82 1044 l 1
 135.333333333 1044 188.666666667 1044 242 1044 c 1
 242 109 l 1
 139 109 l 1
 139 108 l 1
409 1044 m 1
 506.333333333 1044 603.666666667 1044 701 1044 c 0
 998 1044 1129 817 1129 583 c 0
 1129 319 1001 109 694 109 c 2
 409 109 l 1
 409 1044 l 1
EndSplineSet
EndChar

StartChar: Delta
Encoding: 916 916 27
Width: 1167
VWidth: 0
Flags: HW
PickledData: "(dp1
S'org.robofab.postScriptHintData'
p2
(dp3
s."
LayerCount: 2
Fore
SplineSet
84 0 m 257
 1083 0 l 257
 1083 67 l 257
 649 1152 l 257
 508 1152 l 257
 84 67 l 257
 84 0 l 257
227 112 m 257
 558 991 l 257
 893 112 l 257
 227 112 l 257
EndSplineSet
EndChar

StartChar: E
Encoding: 69 69 30
Width: 1191
VWidth: 0
Flags: HW
PickledData: "(dp1
S'org.robofab.postScriptHintData'
p2
(dp3
sS'com.typemytype.robofont.layerData'
p4
(dp5
S'b'
(dp6
S'name'
p7
S'E'
sS'lib'
p8
(dp9
sS'unicodes'
p10
(tsS'width'
p11
I1227
sS'contours'
p12
(tsS'components'
p13
(tsS'anchors'
p14
(tsss."
AnchorPoint: "bot" 632 0 basechar 0
AnchorPoint: "top" 634 1152 basechar 0
LayerCount: 2
Fore
SplineSet
955 811 m 1
 1084 811 l 1
 1084 1152 l 1
 80 1152 l 1
 80 1044 l 1
 240 1044 l 1
 240 108 l 1
 80 108 l 1
 80 0 l 1
 1093 0 l 1
 1093 348 l 1
 965 348 l 1
 965 109 l 1
 407 109 l 1
 407 540 l 1
 766 540 l 1
 766 404 l 1
 849 404 l 1
 849 788 l 1
 766 788 l 1
 766 654 l 1
 407 654 l 1
 407 1044 l 1
 589.666666667 1044 772.333333333 1044 955 1044 c 1
 955 811 l 1
EndSplineSet
EndChar

StartChar: Eng
Encoding: 330 330 39
Width: 1442
VWidth: 0
Flags: HW
PickledData: "(dp1
S'org.robofab.postScriptHintData'
p2
(dp3
s."
LayerCount: 2
Fore
SplineSet
803 -382 m 257
 1041 -382 1228 -290 1228 -27 c 258
 1228 188 l 257
 1100 188 l 257
 1100 -37 l 257
 1101 -200 995 -273 804 -273 c 257
 803 -382 l 257
EndSplineSet
Refer: 79 78 N 1 0 0 1 0 0 2
EndChar

StartChar: Euro
Encoding: 8364 8364 42
Width: 1361
VWidth: 0
Flags: HW
PickledData: "(dp1
S'org.robofab.postScriptHintData'
p2
(dp3
s."
LayerCount: 2
Fore
SplineSet
-25 410 m 257
 602 410 l 257
 638 504 l 257
 11 504 l 257
 -25 410 l 257
-25 635 m 257
 602 635 l 257
 638 729 l 257
 11 729 l 257
 -25 635 l 257
EndSplineSet
Refer: 16 67 N 1 0 0 1 0 0 2
EndChar

StartChar: F
Encoding: 70 70 43
Width: 1111
VWidth: 0
Flags: HW
PickledData: "(dp1
S'org.robofab.postScriptHintData'
p2
(dp3
sS'com.typemytype.robofont.layerData'
p4
(dp5
S'b'
(dp6
S'name'
p7
S'F'
sS'lib'
p8
(dp9
sS'unicodes'
p10
(tsS'width'
p11
I1177
sS'contours'
p12
((dp13
S'points'
p14
((dp15
S'segmentType'
p16
S'line'
p17
sS'x'
I990
sS'smooth'
p18
I0
sS'y'
I1086
s(dp19
g16
S'line'
p20
sS'x'
I990
sg18
I0
sS'y'
I802
s(dp21
g16
S'line'
p22
sS'x'
I1062
sg18
I0
sS'y'
I802
s(dp23
g16
S'line'
p24
sS'x'
I1062
sg18
I0
sS'y'
I1152
s(dp25
g16
S'line'
p26
sS'x'
I122
sg18
I0
sS'y'
I1152
s(dp27
g16
S'line'
p28
sS'x'
I122
sg18
I0
sS'y'
I1086
s(dp29
g16
S'line'
p30
sS'x'
I286
sg18
I0
sS'y'
I1086
s(dp31
g16
S'line'
p32
sS'x'
I286
sg18
I0
sS'y'
I1039
s(dp33
g16
S'line'
p34
sS'x'
I363
sg18
I0
sS'y'
I1039
s(dp35
g16
S'line'
p36
sS'x'
I363
sg18
I0
sS'y'
I1086
stp37
s(dp38
g14
((dp39
g16
S'line'
p40
sS'x'
I286
sg18
I0
sS'y'
I1039
s(dp41
g16
S'line'
p42
sS'x'
I286
sg18
I0
sS'y'
I677
s(dp43
g16
S'line'
p44
sS'x'
I363
sg18
I0
sS'y'
I677
s(dp45
g16
S'line'
p46
sS'x'
I363
sg18
I0
sS'y'
I1039
stp47
s(dp48
g14
((dp49
g16
S'line'
p50
sS'x'
I286
sg18
I0
sS'y'
I677
s(dp51
g16
S'line'
p52
sS'x'
I286
sg18
I0
sS'y'
I65
s(dp53
g16
S'line'
p54
sS'x'
I122
sg18
I0
sS'y'
I65
s(dp55
g16
S'line'
p56
sS'x'
I122
sg18
I0
sS'y'
I0
s(dp57
g16
S'line'
p58
sS'x'
I552
sg18
I0
sS'y'
I0
s(dp59
g16
S'line'
p60
sS'x'
I552
sg18
I0
sS'y'
I65
s(dp61
g16
S'line'
p62
sS'x'
I363
sg18
I0
sS'y'
I65
s(dp63
g16
S'line'
p64
sS'x'
I363
sg18
I0
sS'y'
I539
s(dp65
g16
S'line'
p66
sS'x'
I824
sg18
I0
sS'y'
I539
s(dp67
g16
S'line'
p68
sS'x'
I824
sg18
I0
sS'y'
I378
s(dp69
g16
S'line'
p70
sS'x'
I886
sg18
I0
sS'y'
I378
s(dp71
g16
S'line'
p72
sS'x'
I886
sg18
I0
sS'y'
I764
s(dp73
g16
S'line'
p74
sS'x'
I824
sg18
I0
sS'y'
I764
s(dp75
g16
S'line'
p76
sS'x'
I824
sg18
I0
sS'y'
I601
s(dp77
g16
S'line'
p78
sS'x'
I363
sg18
I0
sS'y'
I601
s(dp79
g16
S'line'
p80
sS'x'
I363
sg18
I0
sS'y'
I677
stp81
stp82
sS'components'
p83
(tsS'anchors'
p84
(tsss."
AnchorPoint: "top" 613 1152 basechar 0
LayerCount: 2
Fore
SplineSet
936 802 m 1
 1065 802 l 1
 1065 1152 l 1
 80 1152 l 1
 80 1044 l 1
 240 1044 l 1
 240 108 l 1
 80 108 l 1
 80 0 l 1
 568 0 l 1
 568 108 l 1
 407 108 l 1
 407 541 l 1
 756 541 l 1
 756 407 l 1
 841 407 l 1
 841 783 l 1
 756 783 l 1
 756 657 l 1
 407 657 l 1
 407 1044 l 1
 583.333333333 1044 759.666666667 1044 936 1044 c 1
 936 802 l 1
EndSplineSet
EndChar

StartChar: G
Encoding: 71 71 45
Width: 1401
VWidth: 0
Flags: HW
PickledData: "(dp1
S'org.robofab.postScriptHintData'
p2
(dp3
sS'com.typemytype.robofont.layerData'
p4
(dp5
S'b'
(dp6
S'name'
p7
S'G'
sS'lib'
p8
(dp9
sS'unicodes'
p10
(tsS'width'
p11
I1394
sS'contours'
p12
(tsS'components'
p13
(tsS'anchors'
p14
(tsss."
AnchorPoint: "bot" 711 0 basechar 0
AnchorPoint: "top" 719 1152 basechar 0
LayerCount: 2
Fore
SplineSet
730 -20 m 0
 1048 -20 1306 134 1309 582 c 1
 902 582 l 1
 902 466 l 1
 1144 466 l 1
 1138 214 958 106 736 103 c 0
 455 103 278 290 278 590 c 0
 278 874 453 1052 732 1052 c 0
 915 1052 1060 963 1135 796 c 1
 1253 796 l 1
 1253 1155 l 1
 1120 1155 l 1
 1120 1007 l 1
 1030 1111 896 1174 727 1174 c 0
 356 1174 99 949 99 590 c 0
 99 215 349 -20 730 -20 c 0
EndSplineSet
EndChar

StartChar: H
Encoding: 72 72 52
Width: 1428
VWidth: 0
Flags: HW
PickledData: "(dp1
S'org.robofab.postScriptHintData'
p2
(dp3
sS'com.typemytype.robofont.layerData'
p4
(dp5
S'b'
(dp6
S'name'
p7
S'H'
sS'lib'
p8
(dp9
sS'unicodes'
p10
(tsS'width'
p11
I1506
sS'contours'
p12
(tsS'components'
p13
(tsS'anchors'
p14
(tsss."
AnchorPoint: "bot" 710 0 basechar 0
AnchorPoint: "top" 720 1152 basechar 0
LayerCount: 2
Fore
SplineSet
80 0 m 1
 568 0 l 1
 568 108 l 1
 407 108 l 1
 407 534 l 1
 1021 534 l 1
 1021 108 l 1
 861 108 l 1
 861 0 l 1
 1349 0 l 1
 1349 108 l 1
 1188 108 l 1
 1188 1044 l 1
 1349 1044 l 1
 1349 1152 l 1
 861 1152 l 1
 861 1044 l 1
 1021 1044 l 1
 1021 651 l 1
 407 651 l 1
 407 1044 l 1
 568 1044 l 1
 568 1152 l 1
 80 1152 l 1
 80 1044 l 1
 240 1044 l 1
 240 108 l 1
 80 108 l 1
 80 0 l 1
EndSplineSet
EndChar

StartChar: Hbar
Encoding: 294 294 53
Width: 1418
VWidth: 0
Flags: HW
PickledData: "(dp1
S'org.robofab.postScriptHintData'
p2
(dp3
sS'com.typemytype.robofont.layerData'
p4
(dp5
S'b'
(dp6
S'name'
p7
S'Hbar'
p8
sS'lib'
p9
(dp10
sS'unicodes'
p11
(tsS'width'
p12
I1471
sS'contours'
p13
(tsS'components'
p14
(tsS'anchors'
p15
(tsss."
LayerCount: 2
Fore
SplineSet
124 805 m 257
 1320 805 l 257
 1320 890 l 257
 124 890 l 257
 124 805 l 257
EndSplineSet
Refer: 52 72 N 1 0 0 1 0 0 2
EndChar

StartChar: I
Encoding: 73 73 55
Width: 694
VWidth: 0
Flags: HW
PickledData: "(dp1
S'org.robofab.postScriptHintData'
p2
(dp3
sS'com.typemytype.robofont.layerData'
p4
(dp5
S'b'
(dp6
S'name'
p7
S'I'
sS'lib'
p8
(dp9
sS'unicodes'
p10
(tsS'width'
p11
I626
sS'contours'
p12
(tsS'components'
p13
(tsS'anchors'
p14
(tsss."
AnchorPoint: "top" 348 1152 basechar 0
LayerCount: 2
Fore
SplineSet
103 0 m 1
 591 0 l 1
 591 108 l 1
 430 108 l 1
 430 1044 l 1
 591 1044 l 1
 591 1152 l 1
 103 1152 l 1
 103 1044 l 1
 263 1044 l 1
 263 108 l 1
 103 108 l 1
 103 0 l 1
EndSplineSet
EndChar

StartChar: J
Encoding: 74 74 66
Width: 668
VWidth: 0
Flags: HW
PickledData: "(dp1
S'org.robofab.postScriptHintData'
p2
(dp3
sS'com.typemytype.robofont.layerData'
p4
(dp5
S'b'
(dp6
S'name'
p7
S'J'
sS'lib'
p8
(dp9
sS'unicodes'
p10
(tsS'width'
p11
I551
sS'contours'
p12
(tsS'components'
p13
(tsS'anchors'
p14
(tsss."
AnchorPoint: "top" 392 1152 basechar 0
LayerCount: 2
Fore
SplineSet
67 -218 m 1
 218 -218 l 2
 405 -218 473 -117 473 83 c 2
 473 1044 l 1
 623 1044 l 1
 623 1152 l 1
 150 1152 l 1
 150 1044 l 1
 307 1044 l 1
 307 81 l 2
 307 -21 290 -87 191 -87 c 2
 67 -87 l 1
 67 -218 l 1
EndSplineSet
EndChar

StartChar: K
Encoding: 75 75 68
Width: 1297
VWidth: 0
Flags: HW
PickledData: "(dp1
S'org.robofab.postScriptHintData'
p2
(dp3
sS'com.typemytype.robofont.guides'
p4
((dp5
S'y'
I593
sS'x'
I467
sS'magnetic'
p6
I5
sS'angle'
p7
I0
sS'isGlobal'
p8
I0
stp9
sS'com.typemytype.robofont.layerData'
p10
(dp11
S'b'
(dp12
S'name'
p13
S'K'
sS'lib'
p14
(dp15
sS'unicodes'
p16
(tsS'width'
p17
I1304
sS'contours'
p18
(tsS'components'
p19
(tsS'anchors'
p20
(tsss."
AnchorPoint: "bot" 649 0 basechar 0
AnchorPoint: "top" 650 1152 basechar 0
LayerCount: 2
Fore
SplineSet
746 0 m 1
 1240 0 l 1
 1240 109 l 1
 1085 109 l 1
 577 582 l 1
 1078 1044 l 1
 1228 1044 l 1
 1228 1152 l 1
 751 1152 l 1
 751 1044 l 1
 883 1044 l 1
 407 604 l 1
 407 1044 l 1
 568 1044 l 1
 568 1152 l 1
 80 1152 l 1
 80 1044 l 1
 240 1044 l 1
 240 108 l 1
 80 108 l 1
 80 0 l 1
 568 0 l 1
 568 108 l 1
 407 108 l 1
 407 548 l 1
 880 109 l 1
 746 109 l 1
 746 0 l 1
EndSplineSet
EndChar

StartChar: L
Encoding: 76 76 70
Width: 1075
VWidth: 0
Flags: HW
PickledData: "(dp1
S'org.robofab.postScriptHintData'
p2
(dp3
sS'com.typemytype.robofont.layerData'
p4
(dp5
S'b'
(dp6
S'name'
p7
S'L'
sS'lib'
p8
(dp9
sS'unicodes'
p10
(tsS'width'
p11
I1055
sS'contours'
p12
(tsS'components'
p13
(tsS'anchors'
p14
(tsss."
AnchorPoint: "bot" 566 0 basechar 0
AnchorPoint: "caron.alt" 668 804 basechar 0
AnchorPoint: "top" 742 1152 basechar 0
LayerCount: 2
Fore
SplineSet
407 109 m 1
 407 1044 l 1
 568 1044 l 1
 568 1152 l 1
 80 1152 l 1
 80 1044 l 1
 240 1044 l 1
 240 108 l 1
 80 108 l 1
 80 0 l 1
 1022 0 l 1
 1022 462 l 1
 886 462 l 1
 886 109 l 1
 407 109 l 1
EndSplineSet
EndChar

StartChar: Lslash
Encoding: 321 321 76
Width: 1205
VWidth: 0
Flags: HW
PickledData: "(dp1
S'org.robofab.postScriptHintData'
p2
(dp3
sS'com.typemytype.robofont.layerData'
p4
(dp5
S'b'
(dp6
S'name'
p7
S'Lslash'
p8
sS'lib'
p9
(dp10
sS'unicodes'
p11
(tsS'width'
p12
I1243
sS'contours'
p13
(tsS'components'
p14
(tsS'anchors'
p15
(tsss."
LayerCount: 2
Fore
SplineSet
126 408 m 257
 635 690 l 257
 635 801 l 257
 126 513 l 257
 126 408 l 257
EndSplineSet
Refer: 70 76 N 1 0 0 1 0 0 2
EndChar

StartChar: M
Encoding: 77 77 77
Width: 1687
VWidth: 0
Flags: HW
PickledData: "(dp1
S'org.robofab.postScriptHintData'
p2
(dp3
sS'com.typemytype.robofont.layerData'
p4
(dp5
S'b'
(dp6
S'name'
p7
S'M'
sS'lib'
p8
(dp9
sS'unicodes'
p10
(tsS'width'
p11
I1606
sS'contours'
p12
(tsS'components'
p13
(tsS'anchors'
p14
(tsss."
AnchorPoint: "top" 839 1152 basechar 0
LayerCount: 2
Fore
SplineSet
84 0 m 1
 514 0 l 1
 514 109 l 1
 364 109 l 1
 364 1015 l 1
 805 60 l 1
 858 60 l 1
 1292 1016 l 1
 1292 109 l 1
 1142 109 l 1
 1142 0 l 1
 1608 0 l 1
 1608 109 l 1
 1452 109 l 1
 1452 1044 l 1
 1607 1044 l 1
 1607 1152 l 1
 1210 1152 l 1
 851 345 l 1
 475 1152 l 1
 84 1152 l 1
 84 1044 l 1
 240 1044 l 1
 240 109 l 1
 84 109 l 1
 84 0 l 1
EndSplineSet
EndChar

StartChar: N
Encoding: 78 78 79
Width: 1442
VWidth: 0
Flags: HW
PickledData: "(dp1
S'org.robofab.postScriptHintData'
p2
(dp3
sS'com.typemytype.robofont.layerData'
p4
(dp5
S'b'
(dp6
S'name'
p7
S'N'
sS'lib'
p8
(dp9
sS'unicodes'
p10
(tsS'width'
p11
I1444
sS'contours'
p12
(tsS'components'
p13
(tsS'anchors'
p14
(tsss."
AnchorPoint: "bot" 719 0 basechar 0
AnchorPoint: "top" 719 1152 basechar 0
LayerCount: 2
Fore
SplineSet
83 0 m 1
 538 0 l 1
 538 109 l 1
 374 109 l 1
 374 982 l 1
 1063 0 l 1
 1228 0 l 1
 1228 1044 l 1
 1389 1044 l 1
 1389 1152 l 1
 936 1152 l 1
 936 1044 l 1
 1100 1044 l 1
 1100 221 l 1
 441 1152 l 1
 83 1152 l 1
 83 1044 l 1
 247 1044 l 1
 247 109 l 1
 83 109 l 1
 83 0 l 1
EndSplineSet
EndChar

StartChar: O
Encoding: 79 79 86
Width: 1452
VWidth: 0
Flags: HW
PickledData: "(dp1
S'org.robofab.postScriptHintData'
p2
(dp3
sS'com.typemytype.robofont.layerData'
p4
(dp5
S'b'
(dp6
S'name'
p7
S'O'
sS'lib'
p8
(dp9
sS'unicodes'
p10
(tsS'width'
p11
I1456
sS'contours'
p12
(tsS'components'
p13
(tsS'anchors'
p14
(tsss."
AnchorPoint: "top" 723 1152 basechar 0
LayerCount: 2
Fore
SplineSet
725 -22 m 0
 1105 -22 1350 250 1350 573 c 0
 1350 897 1104 1174 725 1174 c 0
 347 1174 101 898 101 573 c 0
 101 250 346 -22 725 -22 c 0
725 101 m 0
 449 101 280 317 280 572 c 0
 280 828 450 1053 725 1053 c 0
 999 1053 1171 828 1171 573 c 0
 1171 320 998 101 725 101 c 0
EndSplineSet
EndChar

StartChar: OE
Encoding: 338 338 87
Width: 2018
VWidth: 0
Flags: HW
PickledData: "(dp1
S'org.robofab.postScriptHintData'
p2
(dp3
sS'com.typemytype.robofont.layerData'
p4
(dp5
S'b'
(dp6
S'name'
p7
S'OE'
p8
sS'lib'
p9
(dp10
sS'unicodes'
p11
(tsS'width'
p12
I1953
sS'contours'
p13
(tsS'components'
p14
(tsS'anchors'
p15
(tsss."
LayerCount: 2
Fore
SplineSet
796 0 m 258
 1905 0 l 257
 1905 357 l 257
 1776 357 l 257
 1776 107 l 257
 1221 107 l 257
 1221 531 l 257
 1583 531 l 257
 1583 395 l 257
 1667 395 l 257
 1667 774 l 257
 1584 774 l 257
 1584 642 l 257
 1221 642 l 257
 1221 1045 l 257
 1765 1045 l 257
 1765 807 l 257
 1894 807 l 257
 1894 1152 l 257
 795 1152 l 258
 399 1152 154 934 153 579 c 256
 154 221 400 0 796 0 c 258
808 107 m 258
 514 107 332 288 332 578 c 256
 332 868 516 1045 806 1045 c 258
 1055 1045 l 257
 1055 107 l 257
 808 107 l 258
EndSplineSet
EndChar

StartChar: Omega
Encoding: 937 937 95
Width: 1426
VWidth: 0
Flags: HW
PickledData: "(dp1
S'org.robofab.postScriptHintData'
p2
(dp3
s."
LayerCount: 2
Fore
SplineSet
129 0 m 257
 610 0 l 257
 610 105 l 257
 393 211 292 424 292 619 c 256
 292 844 434 1048 713 1048 c 256
 991 1048 1133 844 1133 619 c 256
 1133 424 1033 211 816 105 c 257
 816 0 l 257
 1297 0 l 257
 1297 109 l 257
 1000 109 l 257
 1207 234 1303 433 1303 623 c 256
 1303 905 1088 1174 713 1174 c 256
 339 1174 123 905 123 621 c 256
 123 432 219 234 426 109 c 257
 129 109 l 257
 129 0 l 257
EndSplineSet
EndChar

StartChar: Oslash
Encoding: 216 216 96
Width: 1494
VWidth: 0
Flags: HW
PickledData: "(dp1
S'org.robofab.postScriptHintData'
p2
(dp3
sS'com.typemytype.robofont.layerData'
p4
(dp5
S'b'
(dp6
S'name'
p7
S'Oslash'
p8
sS'lib'
p9
(dp10
sS'unicodes'
p11
(tsS'width'
p12
I1598
sS'contours'
p13
(tsS'components'
p14
(tsS'anchors'
p15
(tsss."
LayerCount: 2
Fore
SplineSet
291 -75 m 257
 1263 1165 l 257
 1186 1219 l 257
 213 -20 l 257
 291 -75 l 257
EndSplineSet
Refer: 86 79 N 1 0 0 1 2 -3 2
EndChar

StartChar: P
Encoding: 80 80 99
Width: 1152
VWidth: 0
Flags: HW
PickledData: "(dp1
S'org.robofab.postScriptHintData'
p2
(dp3
sS'com.typemytype.robofont.layerData'
p4
(dp5
S'b'
(dp6
S'name'
p7
S'P'
sS'lib'
p8
(dp9
sS'unicodes'
p10
(tsS'width'
p11
I1226
sS'contours'
p12
((dp13
S'points'
p14
((dp15
S'segmentType'
p16
S'line'
p17
sS'x'
I353
sS'smooth'
p18
I0
sS'y'
I1095
s(dp19
g16
S'line'
p20
sS'x'
I759
sg18
I1
sS'y'
I1095
s(dp21
S'y'
I1095
sS'x'
I936
sg18
I0
s(dp22
S'y'
I960
sS'x'
I1024
sg18
I0
s(dp23
g16
S'curve'
p24
sS'x'
I1024
sg18
I1
sS'y'
I823
s(dp25
S'y'
I683
sS'x'
I1024
sg18
I0
s(dp26
S'y'
I544
sS'x'
I934
sg18
I0
s(dp27
g16
S'curve'
p28
sS'x'
I759
sg18
I1
sS'y'
I544
s(dp29
g16
S'line'
p30
sS'x'
I353
sg18
I0
sS'y'
I544
stp31
s(dp32
g14
((dp33
g16
S'line'
p34
sS'x'
I135
sg18
I0
sS'y'
I0
s(dp35
g16
S'line'
p36
sS'x'
I512
sg18
I0
sS'y'
I0
s(dp37
g16
S'line'
p38
sS'x'
I512
sg18
I0
sS'y'
I58
s(dp39
g16
S'line'
p40
sS'x'
I353
sg18
I0
sS'y'
I58
s(dp41
g16
S'line'
p42
sS'x'
I353
sg18
I0
sS'y'
I483
s(dp43
g16
S'line'
p44
sS'x'
I759
sg18
I1
sS'y'
I483
s(dp45
S'y'
I483
sS'x'
I984
sg18
I0
s(dp46
S'y'
I656
sS'x'
I1098
sg18
I0
s(dp47
g16
S'curve'
p48
sS'x'
I1098
sg18
I1
sS'y'
I826
s(dp49
S'y'
I989
sS'x'
I1098
sg18
I0
s(dp50
S'y'
I1154
sS'x'
I984
sg18
I0
s(dp51
g16
S'curve'
p52
sS'x'
I759
sg18
I1
sS'y'
I1154
s(dp53
g16
S'line'
p54
sS'x'
I122
sg18
I0
sS'y'
I1154
s(dp55
g16
S'line'
p56
sS'x'
I122
sg18
I0
sS'y'
I1095
s(dp57
g16
S'line'
p58
sS'x'
I278
sg18
I0
sS'y'
I1095
s(dp59
g16
S'line'
p60
sS'x'
I278
sg18
I0
sS'y'
I58
s(dp61
g16
S'line'
p62
sS'x'
I135
sg18
I0
sS'y'
I58
stp63
stp64
sS'components'
p65
(tsS'anchors'
p66
(tsss."
AnchorPoint: "top" 595 1152 basechar 0
LayerCount: 2
Fore
SplineSet
485 477 m 1
 639 477 l 2
 926 477 1081 600 1081 825 c 0
 1081 1038 930 1152 649 1152 c 2
 80 1152 l 1
 80 1044 l 1
 240 1044 l 1
 240 108 l 1
 80 108 l 1
 80 0 l 1
 568 0 l 1
 568 108 l 1
 407 108 l 1
 407 1044 l 1
 494 1044 581 1044 668 1044 c 0
 823 1044 908 967 909 825 c 0
 909 670 812 585 633 585 c 2
 485 585 l 1
 485 477 l 1
EndSplineSet
EndChar

StartChar: Q
Encoding: 81 81 101
Width: 1446
VWidth: 0
Flags: HW
PickledData: "(dp1
S'org.robofab.postScriptHintData'
p2
(dp3
sS'com.typemytype.robofont.layerData'
p4
(dp5
S'b'
(dp6
S'name'
p7
S'Q'
sS'lib'
p8
(dp9
sS'unicodes'
p10
(tsS'width'
p11
I1438
sS'contours'
p12
(tsS'components'
p13
(tsS'anchors'
p14
(tsss."
LayerCount: 2
Fore
SplineSet
1195 -257 m 257
 1191 -147 l 257
 1148.33217146 -157.854096735 1110.56731504 -162.78960569 1076.75512121 -162.78960569 c 0
 929.88832445 -162.78960569 857.596017305 -69.6718521461 782 36 c 257
 639 38 l 257
 746.080290579 -152.088267771 886.23413769 -272.584260338 1073.76033835 -272.584260338 c 0
 1112.14760649 -272.584260338 1152.51994298 -267.535054141 1195 -257 c 257
EndSplineSet
Refer: 86 79 N 1 0 0 1 0 0 2
EndChar

StartChar: R
Encoding: 82 82 102
Width: 1267
VWidth: 0
Flags: HW
PickledData: "(dp1
S'org.robofab.postScriptHintData'
p2
(dp3
sS'com.typemytype.robofont.layerData'
p4
(dp5
S'b'
(dp6
S'name'
p7
S'R'
sS'lib'
p8
(dp9
sS'unicodes'
p10
(tsS'width'
p11
I1296
sS'contours'
p12
((dp13
S'points'
p14
((dp15
S'segmentType'
p16
S'line'
p17
sS'x'
I135
sS'smooth'
p18
I0
sS'y'
I0
s(dp19
g16
S'line'
p20
sS'x'
I512
sg18
I0
sS'y'
I0
s(dp21
g16
S'line'
p22
sS'x'
I512
sg18
I0
sS'y'
I58
s(dp23
g16
S'line'
p24
sS'x'
I353
sg18
I0
sS'y'
I58
s(dp25
g16
S'line'
p26
sS'x'
I353
sg18
I0
sS'y'
I539
s(dp27
g16
S'line'
p28
sS'x'
I641
sg18
I0
sS'y'
I539
s(dp29
g16
S'line'
p30
sS'x'
I961
sg18
I0
sS'y'
I0
s(dp31
g16
S'line'
p32
sS'x'
I1178
sg18
I0
sS'y'
I0
s(dp33
g16
S'line'
p34
sS'x'
I1178
sg18
I0
sS'y'
I58
s(dp35
g16
S'line'
p36
sS'x'
I1015
sg18
I0
sS'y'
I58
s(dp37
g16
S'line'
p38
sS'x'
I721
sg18
I0
sS'y'
I539
s(dp39
S'y'
I539
sS'x'
I945
sg18
I0
s(dp40
S'y'
I696
sS'x'
I1059
sg18
I0
s(dp41
g16
S'curve'
p42
sS'x'
I1059
sg18
I1
sS'y'
I848
s(dp43
S'y'
I1000
sS'x'
I1059
sg18
I0
s(dp44
S'y'
I1154
sS'x'
I945
sg18
I0
s(dp45
g16
S'curve'
p46
sS'x'
I721
sg18
I1
sS'y'
I1154
s(dp47
g16
S'line'
p48
sS'x'
I122
sg18
I0
sS'y'
I1154
s(dp49
g16
S'line'
p50
sS'x'
I122
sg18
I0
sS'y'
I1095
s(dp51
g16
S'line'
p52
sS'x'
I278
sg18
I0
sS'y'
I1095
s(dp53
g16
S'line'
p54
sS'x'
I278
sg18
I0
sS'y'
I58
s(dp55
g16
S'line'
p56
sS'x'
I135
sg18
I0
sS'y'
I58
stp57
s(dp58
g14
((dp59
g16
S'line'
p60
sS'x'
I353
sg18
I0
sS'y'
I1095
s(dp61
g16
S'line'
p62
sS'x'
I721
sg18
I1
sS'y'
I1095
s(dp63
S'y'
I1095
sS'x'
I898
sg18
I0
s(dp64
S'y'
I971
sS'x'
I985
sg18
I0
s(dp65
g16
S'curve'
p66
sS'x'
I985
sg18
I1
sS'y'
I845
s(dp67
S'y'
I723
sS'x'
I985
sg18
I0
s(dp68
S'y'
I600
sS'x'
I896
sg18
I0
s(dp69
g16
S'curve'
p70
sS'x'
I721
sg18
I1
sS'y'
I600
s(dp71
g16
S'line'
p72
sS'x'
I353
sg18
I0
sS'y'
I600
stp73
stp74
sS'components'
p75
(tsS'anchors'
p76
(tsss."
AnchorPoint: "bot" 663 0 basechar 0
AnchorPoint: "top" 598 1152 basechar 0
LayerCount: 2
Fore
SplineSet
929 0 m 1
 1215 0 l 1
 1215 109 l 1
 1044 109 l 1
 780 545 l 1
 993 578 1077 693 1077 851 c 0
 1077 1052 928 1152 686 1152 c 2
 80 1152 l 1
 80 1044 l 1
 240 1044 l 1
 240 108 l 1
 80 108 l 1
 80 0 l 1
 568 0 l 1
 568 108 l 1
 407 108 l 1
 407 1044 l 1
 500.666666667 1044 594.333333333 1044 688 1044 c 0
 844 1044 911 956 911 849 c 0
 911 749 860 640 660 640 c 2
 469 640 l 1
 469 529 l 1
 620 529 l 1
 929 0 l 1
EndSplineSet
EndChar

StartChar: S
Encoding: 83 83 106
Width: 1070
VWidth: 0
Flags: HW
PickledData: "(dp1
S'org.robofab.postScriptHintData'
p2
(dp3
sS'com.typemytype.robofont.layerData'
p4
(dp5
S'b'
(dp6
S'name'
p7
S'S'
sS'lib'
p8
(dp9
sS'unicodes'
p10
(tsS'width'
p11
I1143
sS'contours'
p12
((dp13
S'points'
p14
((dp15
S'segmentType'
p16
S'curve'
p17
sS'x'
I636
sS'smooth'
p18
I1
sS'y'
S'-23'
p19
s(dp20
S'y'
S'-23'
p21
sS'x'
I930
sg18
I0
s(dp22
S'y'
I171
sS'x'
I1026
sg18
I0
s(dp23
g16
S'curve'
p24
sS'x'
I1026
sg18
I1
sS'y'
I295
s(dp25
S'y'
I543
sS'x'
I1026
sg18
I0
s(dp26
S'y'
I599
sS'x'
I829
sg18
I0
s(dp27
g16
S'curve'
p28
sS'x'
I606
sg18
I1
sS'y'
I622
s(dp29
S'y'
I643
sS'x'
I405
sg18
I0
s(dp30
S'y'
I667
sS'x'
I269
sg18
I0
s(dp31
g16
S'curve'
p32
sS'x'
I269
sg18
I1
sS'y'
I851
s(dp33
S'y'
I998
sS'x'
I269
sg18
I0
s(dp34
S'y'
I1104
sS'x'
I360
sg18
I0
s(dp35
g16
S'curve'
p36
sS'x'
I573
sg18
I1
sS'y'
I1104
s(dp37
S'y'
I1104
sS'x'
I719
sg18
I0
s(dp38
S'y'
I1024
sS'x'
I885
sg18
I0
s(dp39
g16
S'curve'
p40
sS'x'
I885
sg18
I1
sS'y'
I941
s(dp41
g16
S'line'
p42
sS'x'
I885
sg18
I0
sS'y'
I839
s(dp43
g16
S'line'
p44
sS'x'
I959
sg18
I0
sS'y'
I839
s(dp45
g16
S'line'
p46
sS'x'
I959
sg18
I0
sS'y'
I1152
s(dp47
g16
S'line'
p48
sS'x'
I885
sg18
I0
sS'y'
I1152
s(dp49
g16
S'line'
p50
sS'x'
I885
sg18
I0
sS'y'
I1049
s(dp51
S'y'
I1131
sS'x'
I828
sg18
I0
s(dp52
S'y'
I1172
sS'x'
I673
sg18
I0
s(dp53
g16
S'curve'
p54
sS'x'
I561
sg18
I1
sS'y'
I1172
s(dp55
S'y'
I1172
sS'x'
I360
sg18
I0
s(dp56
S'y'
I1066
sS'x'
I184
sg18
I0
s(dp57
g16
S'curve'
p58
sS'x'
I184
sg18
I1
sS'y'
I863
s(dp59
S'y'
I635
sS'x'
I184
sg18
I0
s(dp60
S'y'
I579
sS'x'
I332
sg18
I0
s(dp61
g16
S'curve'
p62
sS'x'
I584
sg18
I1
sS'y'
I553
s(dp63
S'y'
I531
sS'x'
I805
sg18
I0
s(dp64
S'y'
I488
sS'x'
I942
sg18
I0
s(dp65
g16
S'curve'
p66
sS'x'
I942
sg18
I1
sS'y'
I300
s(dp67
S'y'
I169
sS'x'
I942
sg18
I0
s(dp68
S'y'
I47
sS'x'
I831
sg18
I0
s(dp69
g16
S'curve'
p70
sS'x'
I644
sg18
I1
sS'y'
I47
s(dp71
S'y'
I47
sS'x'
I448
sg18
I0
s(dp72
S'y'
I118
sS'x'
I261
sg18
I0
s(dp73
g16
S'curve'
p74
sS'x'
I261
sg18
I1
sS'y'
I247
s(dp75
g16
S'line'
p76
sS'x'
I261
sg18
I0
sS'y'
I387
s(dp77
g16
S'line'
p78
sS'x'
I187
sg18
I0
sS'y'
I387
s(dp79
g16
S'line'
p80
sS'x'
I187
sg18
I0
sS'y'
S'-1'
p81
s(dp82
g16
S'line'
p83
sS'x'
I261
sg18
I0
sS'y'
S'-1'
p84
s(dp85
g16
S'line'
p86
sS'x'
I261
sg18
I0
sS'y'
I122
s(dp87
S'y'
I22
sS'x'
I335
sg18
I0
s(dp88
S'y'
S'-23'
p89
sS'x'
I496
sg18
I0
stp90
stp91
sS'components'
p92
(tsS'anchors'
p93
(tsss."
AnchorPoint: "bot" 605 0 basechar 0
AnchorPoint: "top" 559 1152 basechar 0
LayerCount: 2
Fore
SplineSet
603 -20 m 0
 853 -20 994 134 994 310 c 0
 994 571 815 622 583 659 c 0
 401 686 289 723 289 864 c 0
 289 977 366 1057 536 1057 c 0
 664 1057 756 1009 797 933 c 1
 797 828 l 1
 928 828 l 1
 928 1156 l 1
 797 1156 l 1
 797 1069 l 1
 736 1138 621 1174 521 1174 c 0
 302 1174 139 1071 139 860 c 0
 139 612 331 556 554 524 c 0
 740 499 833 454 833 306 c 0
 833 194 760 99 593 99 c 0
 436 99 318 167 278 256 c 1
 278 389 l 1
 145 389 l 1
 145 -1 l 1
 278 -1 l 1
 278 112 l 1
 348 25 463 -20 603 -20 c 0
EndSplineSet
EndChar

StartChar: Sigma
Encoding: 931 931 114
Width: 931
VWidth: 0
Flags: HW
PickledData: "(dp1
S'org.robofab.postScriptHintData'
p2
(dp3
s."
LayerCount: 2
Fore
SplineSet
85 0 m 257
 883 0 l 257
 883 122 l 257
 299 122 l 257
 714 569 l 257
 313 1034 l 257
 849 1034 l 257
 849 1152 l 257
 102 1152 l 257
 102 1075 l 257
 512 569 l 257
 85 80 l 257
 85 0 l 257
EndSplineSet
EndChar

StartChar: T
Encoding: 84 84 115
Width: 1144
VWidth: 0
Flags: HW
PickledData: "(dp1
S'org.robofab.postScriptHintData'
p2
(dp3
sS'com.typemytype.robofont.layerData'
p4
(dp5
S'b'
(dp6
S'name'
p7
S'T'
sS'lib'
p8
(dp9
sS'unicodes'
p10
(tsS'width'
p11
I1147
sS'contours'
p12
(tsS'components'
p13
(tsS'anchors'
p14
(tsss."
AnchorPoint: "bot" 575 0 basechar 0
AnchorPoint: "top" 570 1152 basechar 0
LayerCount: 2
Fore
SplineSet
52 752 m 1
 176 752 l 1
 176 1044 l 1
 281 1044 386 1044 491 1044 c 1
 491 108 l 1
 331 108 l 1
 331 0 l 1
 819 0 l 1
 819 108 l 1
 658 108 l 1
 658 1044 l 1
 761 1044 864 1044 967 1044 c 1
 967 752 l 1
 1092 752 l 1
 1092 1152 l 1
 52 1152 l 1
 52 752 l 1
EndSplineSet
EndChar

StartChar: Thorn
Encoding: 222 222 121
Width: 1127
VWidth: 0
Flags: HW
PickledData: "(dp1
S'org.robofab.postScriptHintData'
p2
(dp3
sS'com.typemytype.robofont.layerData'
p4
(dp5
S'b'
(dp6
S'name'
p7
S'Thorn'
p8
sS'lib'
p9
(dp10
sS'unicodes'
p11
(tsS'width'
p12
I1226
sS'contours'
p13
(tsS'components'
p14
(tsS'anchors'
p15
(tsss."
LayerCount: 2
Fore
SplineSet
491 327 m 257
 681 327 l 258
 927 327 1065 432 1065 627 c 256
 1065 807 926 913 678 913 c 258
 327 913 l 257
 327 807 l 257
 678 807 l 258
 820 807 905 740 905 627 c 256
 905 494 822 426 682 426 c 258
 492 426 l 257
 491 327 l 257
EndSplineSet
Refer: 411 -1 N 1 0 0 1 -44 0 2
EndChar

StartChar: U
Encoding: 85 85 122
Width: 1372
VWidth: 0
Flags: HW
PickledData: "(dp1
S'org.robofab.postScriptHintData'
p2
(dp3
sS'com.typemytype.robofont.layerData'
p4
(dp5
S'b'
(dp6
S'name'
p7
S'U'
sS'lib'
p8
(dp9
sS'unicodes'
p10
(tsS'width'
p11
I1514
sS'contours'
p12
(tsS'components'
p13
(tsS'anchors'
p14
(tsss."
AnchorPoint: "top" 704 1152 basechar 0
LayerCount: 2
Fore
SplineSet
691 -20 m 0
 975 -20 1175 119 1175 404 c 2
 1175 1044 l 1
 1331 1044 l 1
 1331 1152 l 1
 883 1152 l 1
 883 1044 l 1
 1034 1044 l 1
 1034 398 l 2
 1034 213 909 103 695 103 c 0
 493 103 375 214 375 396 c 2
 375 1044 l 1
 529 1044 l 1
 529 1152 l 1
 56 1152 l 1
 56 1044 l 1
 209 1044 l 1
 209 418 l 2
 209 167 346 -20 691 -20 c 0
EndSplineSet
EndChar

StartChar: V
Encoding: 86 86 133
Width: 1323
VWidth: 0
Flags: HW
PickledData: "(dp1
S'org.robofab.postScriptHintData'
p2
(dp3
sS'com.typemytype.robofont.layerData'
p4
(dp5
S'b'
(dp6
S'name'
p7
S'V'
sS'lib'
p8
(dp9
sS'unicodes'
p10
(tsS'width'
p11
I1228
sS'contours'
p12
(tsS'components'
p13
(tsS'anchors'
p14
(tsss."
LayerCount: 2
Fore
SplineSet
592 0 m 1
 738 0 l 1
 1146 1044 l 1
 1288 1044 l 1
 1288 1152 l 1
 849 1152 l 1
 849 1044 l 1
 997 1044 l 1
 676 183 l 1
 351 1044 l 1
 502 1044 l 1
 502 1152 l 1
 33 1152 l 1
 33 1044 l 1
 179 1044 l 1
 592 0 l 1
EndSplineSet
EndChar

StartChar: W
Encoding: 87 87 134
Width: 1889
VWidth: 0
Flags: HW
PickledData: "(dp1
S'org.robofab.postScriptHintData'
p2
(dp3
sS'com.typemytype.robofont.layerData'
p4
(dp5
S'b'
(dp6
S'name'
p7
S'W'
sS'lib'
p8
(dp9
sS'unicodes'
p10
(tsS'width'
p11
I1962
sS'contours'
p12
(tsS'components'
p13
(tsS'anchors'
p14
(tsss."
AnchorPoint: "top" 957 1152 basechar 0
LayerCount: 2
Fore
SplineSet
520 0 m 1
 662 0 l 1
 946 866 l 1
 1237 0 l 1
 1381 0 l 1
 1699 1044 l 1
 1841 1044 l 1
 1841 1152 l 1
 1412 1152 l 1
 1412 1044 l 1
 1560 1044 l 1
 1317 212 l 1
 1015 1133 l 1
 894 1133 l 1
 601 212 l 1
 351 1044 l 1
 500 1044 l 1
 500 1152 l 1
 49 1152 l 1
 49 1044 l 1
 191 1044 l 1
 520 0 l 1
EndSplineSet
EndChar

StartChar: X
Encoding: 88 88 139
Width: 1305
VWidth: 0
Flags: HW
PickledData: "(dp1
S'org.robofab.postScriptHintData'
p2
(dp3
sS'com.typemytype.robofont.layerData'
p4
(dp5
S'b'
(dp6
S'name'
p7
S'X'
sS'lib'
p8
(dp9
sS'unicodes'
p10
(tsS'width'
p11
I1293
sS'contours'
p12
(tsS'components'
p13
(tsS'anchors'
p14
(tsss."
LayerCount: 2
Fore
SplineSet
62 0 m 1
 519 0 l 1
 519 103 l 1
 375 103 l 1
 638 496 l 1
 904 103 l 1
 760 103 l 1
 760 0 l 1
 1244 0 l 1
 1244 103 l 1
 1082 103 l 1
 736 593 l 1
 1058 1049 l 1
 1216 1049 l 1
 1216 1152 l 1
 768 1152 l 1
 768 1049 l 1
 909 1049 l 1
 660 686 l 1
 409 1049 l 1
 549 1049 l 1
 549 1152 l 1
 75 1152 l 1
 75 1049 l 1
 233 1049 l 1
 560 590 l 1
 222 103 l 1
 62 103 l 1
 62 0 l 1
EndSplineSet
EndChar

StartChar: Y
Encoding: 89 89 140
Width: 1295
VWidth: 0
Flags: HW
PickledData: "(dp1
S'org.robofab.postScriptHintData'
p2
(dp3
sS'com.typemytype.robofont.layerData'
p4
(dp5
S'b'
(dp6
S'name'
p7
S'Y'
sS'lib'
p8
(dp9
sS'unicodes'
p10
(tsS'width'
p11
I1254
sS'contours'
p12
(tsS'components'
p13
(tsS'anchors'
p14
(tsss."
AnchorPoint: "top" 660 1152 basechar 0
LayerCount: 2
Fore
SplineSet
400 0 m 1
 904 0 l 1
 904 109 l 1
 733 109 l 1
 733 495 l 1
 1108 1044 l 1
 1265 1044 l 1
 1265 1152 l 1
 810 1152 l 1
 810 1044 l 1
 958 1044 l 1
 665 603 l 1
 362 1044 l 1
 508 1044 l 1
 508 1152 l 1
 29 1152 l 1
 29 1044 l 1
 182 1044 l 1
 568 494 l 1
 568 109 l 1
 400 109 l 1
 400 0 l 1
EndSplineSet
EndChar

StartChar: Z
Encoding: 90 90 145
Width: 1179
VWidth: 0
Flags: HW
PickledData: "(dp1
S'org.robofab.postScriptHintData'
p2
(dp3
sS'com.typemytype.robofont.layerData'
p4
(dp5
S'b'
(dp6
S'name'
p7
S'Z'
sS'lib'
p8
(dp9
sS'unicodes'
p10
(tsS'width'
p11
I1241
sS'contours'
p12
(tsS'components'
p13
(tsS'anchors'
p14
(tsss."
AnchorPoint: "top" 624 1152 basechar 0
LayerCount: 2
Fore
SplineSet
127 0 m 1
 1071 0 l 1
 1071 399 l 1
 949 399 l 1
 949 109 l 1
 323 109 l 1
 1056 1048 l 1
 1056 1152 l 1
 158 1152 l 1
 158 773 l 1
 281 773 l 1
 281 1044 l 1
 853 1044 l 1
 127 117 l 1
 127 0 l 1
EndSplineSet
EndChar

StartChar: a
Encoding: 97 97 149
Width: 934
VWidth: 0
Flags: HW
PickledData: "(dp1
S'org.robofab.postScriptHintData'
p2
(dp3
sS'com.typemytype.robofont.layerData'
p4
(dp5
S'b'
(dp6
S'name'
p7
S'a'
sS'lib'
p8
(dp9
sS'unicodes'
p10
(tsS'width'
p11
I951
sS'contours'
p12
((dp13
S'points'
p14
((dp15
S'segmentType'
p16
S'curve'
p17
sS'x'
I391
sS'smooth'
p18
I1
sS'y'
S'-14'
p19
s(dp20
S'y'
S'-14'
p21
sS'x'
I507
sg18
I0
s(dp22
S'y'
I21
sS'x'
I593
sg18
I0
s(dp23
g16
S'curve'
p24
sS'x'
I687
sg18
I0
sS'y'
I91
s(dp25
g16
S'line'
p26
sS'x'
I703
sg18
I0
sS'y'
S'-1'
p27
s(dp28
g16
S'line'
p29
sS'x'
I890
sg18
I0
sS'y'
S'-1'
p30
s(dp31
g16
S'line'
p32
sS'x'
I890
sg18
I0
sS'y'
I57
s(dp33
g16
S'line'
p34
sS'x'
I764
sg18
I0
sS'y'
I57
s(dp35
g16
S'line'
p36
sS'x'
I764
sg18
I1
sS'y'
I569
s(dp37
S'y'
I672
sS'x'
I764
sg18
I0
s(dp38
S'y'
I819
sS'x'
I710
sg18
I0
s(dp39
g16
S'curve'
p40
sS'x'
I461
sg18
I1
sS'y'
I819
s(dp41
S'y'
I819
sS'x'
I332
sg18
I0
s(dp42
S'y'
I792
sS'x'
I226
sg18
I0
s(dp43
g16
S'curve'
p44
sS'x'
I155
sg18
I0
sS'y'
I724
s(dp45
g16
S'line'
p46
sS'x'
I190
sg18
I0
sS'y'
I668
s(dp47
S'y'
I726
sS'x'
I247
sg18
I0
s(dp48
S'y'
I755
sS'x'
I339
sg18
I0
s(dp49
g16
S'curve'
p50
sS'x'
I459
sg18
I1
sS'y'
I755
s(dp51
S'y'
I755
sS'x'
I600
sg18
I0
s(dp52
S'y'
I706
sS'x'
I687
sg18
I0
s(dp53
g16
S'curve'
p54
sS'x'
I687
sg18
I1
sS'y'
I551
s(dp55
g16
S'line'
p56
sS'x'
I687
sg18
I0
sS'y'
I428
s(dp57
S'y'
I443
sS'x'
I609
sg18
I0
s(dp58
S'y'
I455
sS'x'
I539
sg18
I0
s(dp59
g16
S'curve'
p60
sS'x'
I465
sg18
I1
sS'y'
I455
s(dp61
S'y'
I455
sS'x'
I295
sg18
I0
s(dp62
S'y'
I433
sS'x'
I117
sg18
I0
s(dp63
g16
S'curve'
p64
sS'x'
I117
sg18
I1
sS'y'
I222
s(dp65
S'y'
I96
sS'x'
I117
sg18
I0
s(dp66
S'y'
S'-14'
p67
sS'x'
I206
sg18
I0
stp68
s(dp69
g14
((dp70
g16
S'curve'
p71
sS'x'
I401
sg18
I1
sS'y'
I50
s(dp72
S'y'
I50
sS'x'
I246
sg18
I0
s(dp73
S'y'
I142
sS'x'
I195
sg18
I0
s(dp74
g16
S'curve'
p75
sS'x'
I195
sg18
I1
sS'y'
I220
s(dp76
S'y'
I390
sS'x'
I195
sg18
I0
s(dp77
S'y'
I393
sS'x'
I346
sg18
I0
s(dp78
g16
S'curve'
p79
sS'x'
I462
sg18
I1
sS'y'
I393
s(dp80
S'y'
I393
sS'x'
I559
sg18
I0
s(dp81
S'y'
I368
sS'x'
I687
sg18
I0
s(dp82
g16
S'curve'
p83
sS'x'
I687
sg18
I0
sS'y'
I368
s(dp84
g16
S'line'
p85
sS'x'
I687
sg18
I0
sS'y'
I151
s(dp86
S'y'
I76
sS'x'
I606
sg18
I0
s(dp87
S'y'
I50
sS'x'
I511
sg18
I0
stp88
stp89
sS'components'
p90
(tsS'anchors'
p91
(tsss."
AnchorPoint: "top" 445 804 basechar 0
LayerCount: 2
Fore
SplineSet
378 81 m 0
 281 81 224 144 224 225 c 0
 224 344 317 378 413 378 c 0
 499 378 569 364 627 352 c 1
 627 171 l 1
 541 110 460 81 378 81 c 0
357 -22 m 0
 466 -22 548 9 634 72 c 1
 644 0 l 1
 903 0 l 1
 903 108 l 1
 777 108 l 1
 777 541 l 2
 777 713 652 826 439 826 c 0
 341 826 209 797 114 737 c 1
 160 639 l 1
 247 686 360 713 436 713 c 0
 552 713 627 653 627 527 c 2
 627 443 l 1
 550 458 475 469 403 469 c 0
 226 469 79 401 79 217 c 0
 79 83 188 -22 357 -22 c 0
EndSplineSet
EndChar

StartChar: acute
Encoding: 180 180 153
Width: 444
VWidth: 0
Flags: HW
PickledData: "(dp1
S'org.robofab.postScriptHintData'
p2
(dp3
sS'com.typemytype.robofont.layerData'
p4
(dp5
S'b'
(dp6
S'name'
p7
S'acute'
p8
sS'lib'
p9
(dp10
sS'unicodes'
p11
(tsS'width'
p12
I45
sS'contours'
p13
(tsS'components'
p14
(tsS'anchors'
p15
(tsss."
AnchorPoint: "top" 176 804 mark 0
LayerCount: 2
Fore
SplineSet
155 1049 m 257
 219 976 l 257
 377 1200 l 257
 251 1274 l 257
 155 1049 l 257
EndSplineSet
EndChar

StartChar: ae
Encoding: 230 230 155
Width: 1519
VWidth: 0
Flags: HW
PickledData: "(dp1
S'org.robofab.postScriptHintData'
p2
(dp3
sS'com.typemytype.robofont.layerData'
p4
(dp5
S'b'
(dp6
S'name'
p7
S'ae'
p8
sS'lib'
p9
(dp10
sS'unicodes'
p11
(tsS'width'
p12
I1657
sS'contours'
p13
(tsS'components'
p14
(tsS'anchors'
p15
(tsss."
AnchorPoint: "top" 778 804 basechar 0
LayerCount: 2
Fore
SplineSet
382 -22 m 256
 491 -22 609 -2 749 99 c 257
 827 20 937 -20 1067 -20 c 256
 1235 -20 1353 43 1432 133 c 257
 1376 223 l 257
 1277 133 1175 96 1072 96 c 256
 897 96 799 202 793 372 c 257
 1437 372 l 257
 1437 649 1293 826 1058 826 c 256
 917 826 787 764 736 652 c 257
 703 765 594 826 444 826 c 256
 323 826 189 788 106 720 c 257
 155 625 l 257
 234 681 348 713 438 713 c 256
 564 713 638 658 638 526 c 258
 638 446 l 257
 592 455 486 460 443 460 c 256
 242 460 82 400 82 216 c 256
 82 34 254 -22 382 -22 c 256
403 76 m 256
 308 76 225 111 225 221 c 256
 225 342 322 369 450 369 c 256
 488 369 603 362 639 358 c 257
 644 301 660 233 687 181 c 257
 619 120 531 76 403 76 c 256
1287 465 m 257
 796 465 l 257
 810 603 901 714 1057 714 c 256
 1199 714 1280 615 1287 465 c 257
EndSplineSet
EndChar

StartChar: ampersand
Encoding: 38 38 160
Width: 1281
VWidth: 0
Flags: HW
PickledData: "(dp1
S'org.robofab.postScriptHintData'
p2
(dp3
sS'com.typemytype.robofont.layerData'
p4
(dp5
S'b'
(dp6
S'name'
p7
S'ampersand'
p8
sS'lib'
p9
(dp10
sS'unicodes'
p11
(tsS'width'
p12
I1088
sS'contours'
p13
(tsS'components'
p14
(tsS'anchors'
p15
(tsss."
LayerCount: 2
Fore
SplineSet
509 -20 m 256
 647 -20 767 28 865 119 c 257
 956 0 l 257
 1218 0 l 257
 1218 115 l 257
 1041 115 l 257
 957 221 l 257
 1010 287 1056 390 1081 479 c 257
 1218 480 l 257
 1218 593 l 257
 984 593 l 257
 968 504 932 391 879 319 c 257
 600 652 l 257
 779 729 867 838 867 974 c 256
 867 1115 748 1215 577 1215 c 256
 398 1215 273 1113 273 965 c 256
 273 875 322 789 403 688 c 257
 208 617 102 503 102 337 c 256
 102 126 267 -20 509 -20 c 256
532 106 m 256
 366 106 255 207 255 345 c 256
 255 463 328 548 474 600 c 257
 789 215 l 257
 719 141 631 106 532 106 c 256
532 742 m 257
 458 836 411 905 411 970 c 256
 411 1056 478 1107 576 1107 c 256
 673 1107 738 1054 738 967 c 256
 738 873 665 800 532 742 c 257
EndSplineSet
EndChar

StartChar: apostrophemod
Encoding: 700 700 162
Width: 600
VWidth: 0
Flags: HW
PickledData: "(dp1
S'org.robofab.postScriptHintData'
p2
(dp3
s."
AnchorPoint: "top" 120 804 mark 0
LayerCount: 2
Fore
SplineSet
73 907 m 257
 209 907 272 981 271 1102 c 257
 272 1286 l 257
 76 1287 l 257
 76 1104 l 257
 187 1104 l 257
 187 1017 149 988 73 974 c 257
 73 907 l 257
EndSplineSet
EndChar

StartChar: approxequal
Encoding: 8776 8776 163
Width: 1052
VWidth: 0
Flags: HW
PickledData: "(dp1
S'org.robofab.postScriptHintData'
p2
(dp3
s."
LayerCount: 2
Fore
SplineSet
925 933 m 257
 864 878 792 836 728 836 c 256
 677 836 636 848 552 884 c 256
 446 928 400 940 331 940 c 256
 250 940 181 912 123 853 c 257
 123 726 l 257
 179 782 252 822 314 822 c 256
 368 822 411 809 497 773 c 256
 601 729 646 718 711 718 c 256
 794 718 865 747 925 807 c 257
 925 933 l 257
925 634 m 257
 864 579 792 536 728 536 c 256
 677 536 636 549 552 585 c 256
 446 629 400 641 331 641 c 256
 250 641 181 612 123 553 c 257
 123 426 l 257
 179 483 252 522 314 522 c 256
 368 522 411 509 497 473 c 256
 601 429 646 418 711 418 c 256
 794 418 865 448 925 508 c 257
 925 634 l 257
EndSplineSet
EndChar

StartChar: asciicircum
Encoding: 94 94 165
Width: 926
VWidth: 0
Flags: HW
PickledData: "(dp1
S'org.robofab.postScriptHintData'
p2
(dp3
sS'com.typemytype.robofont.layerData'
p4
(dp5
S'b'
(dp6
S'name'
p7
S'asciicircum'
p8
sS'lib'
p9
(dp10
sS'unicodes'
p11
(tsS'width'
p12
I911
sS'contours'
p13
(tsS'components'
p14
(tsS'anchors'
p15
(tsss."
LayerCount: 2
Fore
SplineSet
75 660 m 257
 215 660 l 257
 466 1126 l 257
 710 660 l 257
 849 660 l 257
 535 1250 l 257
 396 1250 l 257
 75 660 l 257
EndSplineSet
EndChar

StartChar: asciitilde
Encoding: 126 126 166
Width: 1066
VWidth: 0
Flags: HW
PickledData: "(dp1
S'org.robofab.postScriptHintData'
p2
(dp3
sS'com.typemytype.robofont.layerData'
p4
(dp5
S'b'
(dp6
S'name'
p7
S'asciitilde'
p8
sS'lib'
p9
(dp10
sS'unicodes'
p11
(tsS'width'
p12
I708
sS'contours'
p13
(tsS'components'
p14
(tsS'anchors'
p15
(tsss."
LayerCount: 2
Fore
SplineSet
783 627 m 256
 778.126436782 626.632183908 773.223279165 626.456731404 768.29033277 626.456731404 c 0
 665.931695072 626.456731404 550.747126437 702 421 702 c 256
 320 702 236 695 158 637 c 257
 143 638 148 539 127 527 c 257
 178 578 221 590 278 590 c 256
 284.417302137 590.526008372 290.829070578 590.775331936 297.2374884 590.775331936 c 0
 412.66016995 590.775331936 526.995911346 509.894798326 653 508 c 256
 660.021152648 507.84900747 666.962509692 507.766411172 673.832677232 507.766411172 c 0
 757.962607992 507.766411172 831.417182528 520.152294577 910 571 c 257
 928 571 918 675 931 685 c 257
 885 639 837 627 783 627 c 256
EndSplineSet
EndChar

StartChar: asterisk
Encoding: 42 42 167
Width: 934
VWidth: 0
Flags: HW
PickledData: "(dp1
S'org.robofab.postScriptHintData'
p2
(dp3
sS'com.typemytype.robofont.layerData'
p4
(dp5
S'b'
(dp6
S'name'
p7
S'asterisk'
p8
sS'lib'
p9
(dp10
sS'unicodes'
p11
(tsS'width'
p12
I941
sS'contours'
p13
(tsS'components'
p14
(tsS'anchors'
p15
(tsss."
LayerCount: 2
Fore
SplineSet
277 410 m 257
 467 748 l 257
 657 410 l 257
 769 492 l 257
 508 775 l 257
 883 861 l 257
 841 992 l 257
 489 821 l 257
 537 1207 l 257
 397 1207 l 257
 445 821 l 257
 93 992 l 257
 51 861 l 257
 425 775 l 257
 164 492 l 257
 277 410 l 257
EndSplineSet
EndChar

StartChar: at
Encoding: 64 64 168
Width: 1450
VWidth: 0
Flags: HW
PickledData: "(dp1
S'org.robofab.postScriptHintData'
p2
(dp3
sS'com.typemytype.robofont.layerData'
p4
(dp5
S'b'
(dp6
S'name'
p7
S'at'
p8
sS'lib'
p9
(dp10
sS'unicodes'
p11
(tsS'width'
p12
I1379
sS'contours'
p13
(tsS'components'
p14
(tsS'anchors'
p15
(tsss."
LayerCount: 2
Fore
SplineSet
870.385948679 340.859753143 m 0
 870.385948679 252.18676771 913.730733898 223.969807865 963.345076082 223.969807865 c 0
 1177.22217813 223.969807865 1341 443.692396469 1341 694 c 256
 1341 949 1174 1210 774 1210 c 256
 345 1210 109 878 109 554 c 256
 109 245 322 -54 784 -54 c 256
 963 -54 1097 -8 1206 76 c 257
 1151 143 l 257
 1054 70 932 36 784 36 c 256
 423 36 220 242 220 552 c 256
 220 881 451 1119 769 1119 c 256
 1081 1119 1238 913 1238 693 c 256
 1238 449.917565643 1068.28367791 317.994359786 992.850174404 317.994359786 c 0
 972.77875849 317.994359786 963.031827438 333.616238148 963.031827438 368.189730377 c 0
 963.031827438 392.771623866 967.997084542 427.15330415 978 473 c 258
 1076 925 l 257
 963 925 l 257
 938 794 l 257
 908 892 831 942 738 942 c 256
 502 942 385 725 385 528 c 256
 385 331 510 224 645 224 c 256
 738 224 817 277 872 372 c 257
 870.906271929 360.863859637 870.385948679 350.498849896 870.385948679 340.859753143 c 0
667 313 m 256
 552 313 496 410 496 526 c 256
 496 685 581 850 728 850 c 256
 834 850 902 782 902 663 c 256
 902 502 801 313 667 313 c 256
EndSplineSet
EndChar

StartChar: b
Encoding: 98 98 170
Width: 1069
VWidth: 0
Flags: HW
PickledData: "(dp1
S'org.robofab.postScriptHintData'
p2
(dp3
sS'com.typemytype.robofont.layerData'
p4
(dp5
S'b'
(dp6
S'name'
p7
S'b'
sS'lib'
p8
(dp9
sS'unicodes'
p10
(tsS'width'
p11
I1037
sS'contours'
p12
(tsS'components'
p13
(tsS'anchors'
p14
(tsss."
AnchorPoint: "top" 642 804 basechar 0
LayerCount: 2
Fore
SplineSet
601 -21 m 0
 822.959867534 -21 1017.0168783 136.599722873 1017.0168783 415.498354764 c 0
 1017.0168783 679.650612083 841.778251752 825 626 825 c 0
 534 825 436 794 352 734 c 1
 352 1174 l 1
 56 1174 l 1
 56 1066 l 1
 200 1066 l 1
 200 108 l 1
 52 108 l 1
 52 0 l 1
 352 0 l 1
 352 66 l 1
 424 8 513 -21 601 -21 c 0
352 619 m 1
 426 679 510 709 584 709 c 0
 742 709 860 598 860 401 c 0
 860 199 736 92 574 92 c 0
 499 92 420 120 352 173 c 1
 352 619 l 1
EndSplineSet
EndChar

StartChar: backslash
Encoding: 92 92 171
Width: 630
VWidth: 0
Flags: HW
PickledData: "(dp1
S'org.robofab.postScriptHintData'
p2
(dp3
sS'com.typemytype.robofont.layerData'
p4
(dp5
S'b'
(dp6
S'name'
p7
S'backslash'
p8
sS'lib'
p9
(dp10
sS'unicodes'
p11
(tsS'width'
p12
I296
sS'contours'
p13
(tsS'components'
p14
(tsS'anchors'
p15
(tsss."
LayerCount: 2
Fore
SplineSet
490 -21 m 257
 624 -21 l 257
 135 1208 l 257
 3 1208 l 257
 490 -21 l 257
EndSplineSet
EndChar

StartChar: bar
Encoding: 124 124 172
Width: 459
VWidth: 0
Flags: HW
PickledData: "(dp1
S'org.robofab.postScriptHintData'
p2
(dp3
sS'com.typemytype.robofont.layerData'
p4
(dp5
S'b'
(dp6
S'name'
p7
S'bar'
p8
sS'lib'
p9
(dp10
sS'unicodes'
p11
(tsS'width'
p12
I348
sS'contours'
p13
(tsS'components'
p14
(tsS'anchors'
p15
(tsss."
LayerCount: 2
Fore
SplineSet
170 -174 m 257
 295 -174 l 257
 295 1213 l 257
 170 1213 l 257
 170 -174 l 257
EndSplineSet
EndChar

StartChar: braceleft
Encoding: 123 123 174
Width: 580
VWidth: 0
Flags: HW
PickledData: "(dp1
S'org.robofab.postScriptHintData'
p2
(dp3
sS'com.typemytype.robofont.layerData'
p4
(dp5
S'b'
(dp6
S'name'
p7
S'braceleft'
p8
sS'lib'
p9
(dp10
sS'unicodes'
p11
(tsS'width'
p12
I404
sS'contours'
p13
(tsS'components'
p14
(tsS'anchors'
p15
(tsss."
LayerCount: 2
Fore
SplineSet
454 -134 m 258
 528 -134 l 257
 528 -31 l 257
 363 -31 352 -5 352 192 c 256
 352 424 328 527 213 569 c 257
 339 616 353 720 353 992 c 256
 353 1145 385 1168 528 1168 c 257
 528 1272 l 257
 453 1272 l 258
 219 1272 218 1116 218 888 c 256
 218 715 201 629 63 629 c 257
 63 509 l 257
 203 509 218 425 218 252 c 256
 218 16 221 -134 454 -134 c 258
EndSplineSet
EndChar

StartChar: braceright
Encoding: 125 125 175
Width: 582
VWidth: 0
Flags: HW
PickledData: "(dp1
S'org.robofab.postScriptHintData'
p2
(dp3
sS'com.typemytype.robofont.layerData'
p4
(dp5
S'b'
(dp6
S'name'
p7
S'braceright'
p8
sS'lib'
p9
(dp10
sS'unicodes'
p11
(tsS'width'
p12
I406
sS'contours'
p13
(tsS'components'
p14
(tsS'anchors'
p15
(tsss."
LayerCount: 2
Fore
SplineSet
85 -134 m 257
 160 -134 l 258
 393 -134 396 16 396 233 c 256
 396 423 409 509 550 509 c 257
 550 629 l 257
 414 629 396 714 396 902 c 256
 396 1118 394 1272 160 1272 c 258
 85 1272 l 257
 85 1168 l 257
 229 1168 261 1145 261 992 c 256
 261 720 275 616 401 569 c 257
 284 527 262 423 262 188 c 256
 262 -5 250 -31 85 -31 c 257
 85 -134 l 257
EndSplineSet
EndChar

StartChar: bracketleft
Encoding: 91 91 176
Width: 577
VWidth: 0
Flags: HW
PickledData: "(dp1
S'org.robofab.postScriptHintData'
p2
(dp3
sS'com.typemytype.robofont.layerData'
p4
(dp5
S'b'
(dp6
S'name'
p7
S'bracketleft'
p8
sS'lib'
p9
(dp10
sS'unicodes'
p11
(tsS'width'
p12
I318
sS'contours'
p13
(tsS'components'
p14
(tsS'anchors'
p15
(tsss."
LayerCount: 2
Fore
SplineSet
170 -175 m 257
 503 -175 l 257
 503 -59 l 257
 334 -59 l 257
 334 1129 l 257
 503 1129 l 257
 503 1244 l 257
 170 1244 l 257
 170 -175 l 257
EndSplineSet
EndChar

StartChar: bracketright
Encoding: 93 93 177
Width: 576
VWidth: 0
Flags: HW
PickledData: "(dp1
S'org.robofab.postScriptHintData'
p2
(dp3
sS'com.typemytype.robofont.layerData'
p4
(dp5
S'b'
(dp6
S'name'
p7
S'bracketright'
p8
sS'lib'
p9
(dp10
sS'unicodes'
p11
(tsS'width'
p12
I316
sS'contours'
p13
(tsS'components'
p14
(tsS'anchors'
p15
(tsss."
LayerCount: 2
Fore
SplineSet
71 -175 m 257
 405 -175 l 257
 405 1244 l 257
 71 1244 l 257
 71 1129 l 257
 241 1129 l 257
 241 -59 l 257
 71 -59 l 257
 71 -175 l 257
EndSplineSet
EndChar

StartChar: breve
Encoding: 728 728 178
Width: 472
VWidth: 0
Flags: HW
PickledData: "(dp1
S'org.robofab.postScriptHintData'
p2
(dp3
sS'com.typemytype.robofont.layerData'
p4
(dp5
S'b'
(dp6
S'name'
p7
S'breve'
p8
sS'lib'
p9
(dp10
sS'unicodes'
p11
(tsS'width'
p12
I233
sS'contours'
p13
(tsS'components'
p14
(tsS'anchors'
p15
(tsss."
AnchorPoint: "top" 239 804 mark 0
LayerCount: 2
Fore
SplineSet
237 921 m 256
 237.778817828 920.993818906 238.556069213 920.990732492 239.331747071 920.990732492 c 0
 364.048073338 920.990732492 448.086535314 1000.77881783 462 1126 c 257
 361 1126 l 257
 348 1054 302 1014 237 1014 c 256
 168 1014 126 1054 112 1126 c 257
 12 1126 l 257
 25.9123903507 999.794744676 112.901519426 920.990617173 234.694981364 920.990617173 c 0
 235.461943921 920.990617173 236.230286653 920.993742168 237 921 c 256
EndSplineSet
EndChar

StartChar: breveinvertedcomb
Encoding: 785 785 179
Width: 697
VWidth: 0
Flags: W
PickledData: "(dp1
S'org.robofab.postScriptHintData'
p2
(dp3
sS'com.typemytype.robofont.layerData'
p4
(dp5
S'b'
(dp6
S'name'
p7
S'uni0311'
p8
sS'lib'
p9
(dp10
sS'unicodes'
p11
(tsS'width'
p12
I962
sS'contours'
p13
(tsS'components'
p14
(tsS'anchors'
p15
(tsss."
AnchorPoint: "top" 347 836 mark 0
LayerCount: 2
Fore
SplineSet
106 952 m 257
 227 952 l 257
 240 1020 280 1056 345 1056 c 256
 407 1056 450 1020 462 952 c 257
 584 952 l 257
 569 1086 478 1171 345 1171 c 256
 214 1171 120 1086 106 952 c 257
EndSplineSet
EndChar

StartChar: brokenbar
Encoding: 166 166 180
Width: 452
VWidth: 0
Flags: HW
PickledData: "(dp1
S'org.robofab.postScriptHintData'
p2
(dp3
sS'com.typemytype.robofont.layerData'
p4
(dp5
S'b'
(dp6
S'name'
p7
S'brokenbar'
p8
sS'lib'
p9
(dp10
sS'unicodes'
p11
(tsS'width'
p12
I418
sS'contours'
p13
(tsS'components'
p14
(tsS'anchors'
p15
(tsss."
LayerCount: 2
Fore
SplineSet
178 -163 m 257
 277 -163 l 257
 277 390 l 257
 178 390 l 257
 178 -163 l 257
178 687 m 257
 277 687 l 257
 277 1239 l 257
 178 1239 l 257
 178 687 l 257
EndSplineSet
EndChar

StartChar: bullet
Encoding: 8226 8226 181
Width: 622
VWidth: 0
Flags: HW
PickledData: "(dp1
S'org.robofab.postScriptHintData'
p2
(dp3
sS'com.typemytype.robofont.layerData'
p4
(dp5
S'b'
(dp6
S'name'
p7
S'bullet'
p8
sS'lib'
p9
(dp10
sS'unicodes'
p11
(tsS'width'
p12
I768
sS'contours'
p13
(tsS'components'
p14
(tsS'anchors'
p15
(tsss."
LayerCount: 2
Fore
SplineSet
311 399 m 256
 432 399 529 493 529 609 c 256
 529 726 432 817 311 817 c 256
 190 817 94 726 94 609 c 256
 94 494 190 399 311 399 c 256
EndSplineSet
EndChar

StartChar: c
Encoding: 99 99 182
Width: 960
VWidth: 0
Flags: HW
PickledData: "(dp1
S'org.robofab.postScriptHintData'
p2
(dp3
sS'com.typemytype.robofont.layerData'
p4
(dp5
S'b'
(dp6
S'name'
p7
S'c'
sS'lib'
p8
(dp9
sS'unicodes'
p10
(tsS'width'
p11
I956
sS'contours'
p12
((dp13
S'points'
p14
((dp15
S'y'
S'-14'
p16
sS'x'
I633
sS'smooth'
p17
I0
s(dp18
S'y'
I33
sS'x'
I758
sg17
I0
s(dp19
S'segmentType'
p20
S'curve'
p21
sS'x'
I868
sg17
I0
sS'y'
I142
s(dp22
g20
S'line'
p23
sS'x'
I845
sg17
I0
sS'y'
I213
s(dp24
S'y'
I105
sS'x'
I763
sg17
I0
s(dp25
S'y'
I51
sS'x'
I637
sg17
I0
s(dp26
g20
S'curve'
p27
sS'x'
I515
sg17
I1
sS'y'
I51
s(dp28
S'y'
I51
sS'x'
I316
sg17
I0
s(dp29
S'y'
I193
sS'x'
I169
sg17
I0
s(dp30
g20
S'curve'
p31
sS'x'
I169
sg17
I1
sS'y'
I406
s(dp32
S'y'
I630
sS'x'
I169
sg17
I0
s(dp33
S'y'
I755
sS'x'
I336
sg17
I0
s(dp34
g20
S'curve'
p35
sS'x'
I515
sg17
I1
sS'y'
I755
s(dp36
S'y'
I755
sS'x'
I705
sg17
I0
s(dp37
S'y'
I657
sS'x'
I768
sg17
I0
s(dp38
g20
S'curve'
p39
sS'x'
I776
sg17
I0
sS'y'
I570
s(dp40
g20
S'line'
p41
sS'x'
I840
sg17
I0
sS'y'
I570
s(dp42
g20
S'line'
p43
sS'x'
I840
sg17
I0
sS'y'
I825
s(dp44
g20
S'line'
p45
sS'x'
I767
sg17
I0
sS'y'
I825
s(dp46
g20
S'line'
p47
sS'x'
I767
sg17
I0
sS'y'
I714
s(dp48
S'y'
I764
sS'x'
I736
sg17
I0
s(dp49
S'y'
I819
sS'x'
I645
sg17
I0
s(dp50
g20
S'curve'
p51
sS'x'
I522
sg17
I1
sS'y'
I819
s(dp52
S'y'
I819
sS'x'
F268.96812951340218
sg17
I0
s(dp53
S'y'
I650
sS'x'
I90
sg17
I0
s(dp54
g20
S'curve'
p55
sS'x'
I90
sg17
I1
sS'y'
I406
s(dp56
S'y'
I145
sS'x'
I90
sg17
I0
s(dp57
S'y'
S'-14'
p58
sS'x'
I286
sg17
I0
s(dp59
g20
S'curve'
p60
sS'x'
I515
sg17
I1
sS'y'
S'-14'
p61
stp62
stp63
sS'components'
p64
(tsS'anchors'
p65
(tsss."
AnchorPoint: "bot" 491 0 basechar 0
AnchorPoint: "top" 500 804 basechar 0
LayerCount: 2
Fore
SplineSet
211 411 m 0
 211 585.844189114 334.23512753 707.244508244 510.107894592 707.244508244 c 0
 638.260849242 707.244508244 729.816712614 636.079779451 754 520 c 1
 868 520 l 1
 868 808 l 1
 741 808 l 1
 741 712 l 1
 709 776 600 826 492 826 c 0
 236 826 54 653 54 408 c 0
 54 157 235 -20 491 -20 c 0
 662 -20 787 50 867 153 c 1
 803 245 l 1
 730.261191181 161.592832554 649.997498011 99.8197076131 507.473808081 99.8197076131 c 0
 332.779851216 99.8197076131 211 226.869692595 211 411 c 0
EndSplineSet
EndChar

StartChar: caron
Encoding: 711 711 184
Width: 516
VWidth: 0
Flags: HW
PickledData: "(dp1
S'org.robofab.postScriptHintData'
p2
(dp3
sS'com.typemytype.robofont.layerData'
p4
(dp5
S'b'
(dp6
S'name'
p7
S'caron'
p8
sS'lib'
p9
(dp10
sS'unicodes'
p11
(tsS'width'
p12
I351
sS'contours'
p13
(tsS'components'
p14
(tsS'anchors'
p15
(tsss."
AnchorPoint: "top" 256 804 mark 0
LayerCount: 2
Fore
SplineSet
185 917 m 257
 329 917 l 257
 492 1226 l 257
 385 1226 l 257
 258 1003 l 257
 126 1226 l 257
 19 1226 l 257
 185 917 l 257
EndSplineSet
EndChar

StartChar: caron.alt
Encoding: 65539 -1 185
Width: 600
VWidth: 0
Flags: HW
PickledData: "(dp1
S'org.robofab.postScriptHintData'
p2
(dp3
s."
AnchorPoint: "caron.alt" 162 804 mark 0
LayerCount: 2
Fore
SplineSet
158 793 m 257
 297 793 359 869 358 991 c 257
 358 1174 l 257
 162 1174 l 257
 162 996 l 257
 273 996 l 257
 273 916 239 873 158 860 c 257
 158 793 l 257
EndSplineSet
EndChar

StartChar: cedilla
Encoding: 184 184 190
Width: 499
VWidth: 0
Flags: HW
PickledData: "(dp1
S'org.robofab.postScriptHintData'
p2
(dp3
s."
AnchorPoint: "bot" 277 0 mark 0
LayerCount: 2
Fore
SplineSet
278 -355 m 256
 359 -355 424 -322 424 -237 c 256
 424 -179 380 -124 277 -115 c 257
 309 5 l 257
 241 5 l 257
 178 -159 l 257
 260 -164 295 -188 295 -223 c 256
 295 -261 265 -277 218 -277 c 256
 185 -277 144 -269 101 -256 c 257
 101 -315 l 257
 158 -340 221 -355 278 -355 c 256
EndSplineSet
EndChar

StartChar: cent
Encoding: 162 162 191
Width: 945
VWidth: 0
Flags: HW
PickledData: "(dp1
S'org.robofab.postScriptHintData'
p2
(dp3
sS'com.typemytype.robofont.layerData'
p4
(dp5
S'b'
(dp6
S'name'
p7
S'cent'
p8
sS'lib'
p9
(dp10
sS'unicodes'
p11
(tsS'width'
p12
I909
sS'contours'
p13
(tsS'components'
p14
(tsS'anchors'
p15
(tsss."
LayerCount: 2
Fore
SplineSet
369 -342 m 257
 683 1132 l 257
 618 1142 l 257
 304 -332 l 257
 369 -342 l 257
EndSplineSet
Refer: 182 99 N 1 0 0 1 0 0 2
EndChar

StartChar: circumflex
Encoding: 710 710 192
Width: 537
VWidth: 0
Flags: HW
PickledData: "(dp1
S'org.robofab.postScriptHintData'
p2
(dp3
sS'com.typemytype.robofont.layerData'
p4
(dp5
S'b'
(dp6
S'name'
p7
S'circumflex'
p8
sS'lib'
p9
(dp10
sS'unicodes'
p11
(tsS'width'
p12
I347
sS'contours'
p13
(tsS'components'
p14
(tsS'anchors'
p15
(tsss."
AnchorPoint: "top" 271 804 mark 0
LayerCount: 2
Fore
SplineSet
130 919 m 257
 266 1175 l 257
 402 919 l 257
 518 919 l 257
 347 1241 l 257
 184 1241 l 257
 17 919 l 257
 130 919 l 257
EndSplineSet
EndChar

StartChar: colon
Encoding: 58 58 193
Width: 528
VWidth: 0
Flags: HW
PickledData: "(dp1
S'org.robofab.postScriptHintData'
p2
(dp3
sS'com.typemytype.robofont.layerData'
p4
(dp5
S'b'
(dp6
S'name'
p7
S'colon'
p8
sS'lib'
p9
(dp10
sS'unicodes'
p11
(tsS'width'
p12
I453
sS'contours'
p13
(tsS'components'
p14
(tsS'anchors'
p15
(tsss."
LayerCount: 2
Fore
SplineSet
166 138 m 257
 366 138 l 257
 366 333 l 257
 166 333 l 257
 166 138 l 257
166 653 m 257
 366 653 l 257
 366 850 l 257
 166 850 l 257
 166 653 l 257
EndSplineSet
EndChar

StartChar: comma
Encoding: 44 44 194
Width: 478
VWidth: 0
Flags: HW
PickledData: "(dp1
S'org.robofab.postScriptHintData'
p2
(dp3
sS'com.typemytype.robofont.layerData'
p4
(dp5
S'b'
(dp6
S'name'
p7
S'comma'
p8
sS'lib'
p9
(dp10
sS'unicodes'
p11
(tsS'width'
p12
I374
sS'contours'
p13
(tsS'components'
p14
(tsS'anchors'
p15
(tsss."
LayerCount: 2
Fore
SplineSet
158 -237 m 257
 320 -236 365 -146 365 13 c 256
 365 44 363 173 361 198 c 257
 321 198 196 198 162 194 c 257
 162 163 163 31 164 1 c 257
 268 1 l 257
 268 -110 240 -146 158 -160 c 257
 158 -237 l 257
EndSplineSet
EndChar

StartChar: commaaccent
Encoding: 806 806 195
Width: 372
VWidth: 0
Flags: HW
PickledData: "(dp1
S'org.robofab.postScriptHintData'
p2
(dp3
sS'com.typemytype.robofont.layerData'
p4
(dp5
S'b'
(dp6
S'name'
p7
S'uni0326'
p8
sS'lib'
p9
(dp10
sS'unicodes'
p11
(tsS'width'
p12
I418
sS'contours'
p13
(tsS'components'
p14
(tsS'anchors'
p15
(tsss."
AnchorPoint: "bot" 213 0 mark 0
LayerCount: 2
Fore
SplineSet
116 -487 m 258
 116.892237174 -487.006418972 117.781301701 -487.009624095 118.667197283 -487.009624095 c 0
 255.793356785 -487.009624095 316.993581028 -410.216885358 316 -289 c 258
 316 -106 l 257
 120 -106 l 257
 120 -284 l 257
 231 -284 l 257
 231 -364 197 -407 116 -421 c 257
 116 -487 l 258
EndSplineSet
EndChar

StartChar: commaturnedabovecomb
Encoding: 786 786 196
Width: 600
VWidth: 0
Flags: HW
PickledData: "(dp1
S'org.robofab.postScriptHintData'
p2
(dp3
s."
AnchorPoint: "top" 191 804 mark 0
LayerCount: 2
Fore
SplineSet
329 910 m 257
 329 1093 l 257
 218 1093 l 257
 218 1180 256 1209 332 1223 c 257
 332 1290 l 257
 196 1290 133 1216 134 1095 c 257
 134 911 l 257
 329 910 l 257
EndSplineSet
EndChar

StartChar: copyright
Encoding: 169 169 197
Width: 1530
VWidth: 0
Flags: HW
PickledData: "(dp1
S'org.robofab.postScriptHintData'
p2
(dp3
sS'com.typemytype.robofont.layerData'
p4
(dp5
S'b'
(dp6
S'name'
p7
S'copyright'
p8
sS'lib'
p9
(dp10
sS'unicodes'
p11
(tsS'width'
p12
I1512
sS'contours'
p13
(tsS'components'
p14
(tsS'anchors'
p15
(tsss."
LayerCount: 2
Fore
SplineSet
775 239 m 256
 895 239 1016 297 1078 387 c 257
 1009 444 l 257
 954 374 869 330 778 330 c 256
 643 330 538 439 538 597 c 256
 538 766 655 859 781 859 c 256
 883 859 959 798 976 704 c 257
 1068 704 l 257
 1068 933 l 257
 973 933 l 257
 973 860 l 257
 934 918 853 949 768 949 c 256
 583 949 419 819 419 595 c 256
 419 384 572 239 775 239 c 256
764 -30 m 256
 1137 -30 1410 233 1410 595 c 256
 1410 958 1137 1221 764 1221 c 256
 393 1221 121 958 121 595 c 256
 121 233 393 -30 764 -30 c 256
764 68 m 256
 465 68 245 289 245 593 c 256
 245 900 465 1124 764 1124 c 256
 1064 1124 1284 900 1284 593 c 256
 1284 290 1064 68 764 68 c 256
EndSplineSet
EndChar

StartChar: currency
Encoding: 164 164 198
Width: 1044
VWidth: 0
Flags: HW
PickledData: "(dp1
S'org.robofab.postScriptHintData'
p2
(dp3
sS'com.typemytype.robofont.layerData'
p4
(dp5
S'b'
(dp6
S'name'
p7
S'currency'
p8
sS'lib'
p9
(dp10
sS'unicodes'
p11
(tsS'width'
p12
I1124
sS'contours'
p13
(tsS'components'
p14
(tsS'anchors'
p15
(tsss."
LayerCount: 2
Fore
SplineSet
828 497 m 257
 890 558 l 257
 796 650 l 257
 849 718 878 795 878 881 c 256
 878 964 851 1041 797 1108 c 257
 890 1199 l 257
 828 1260 l 257
 736 1165 l 257
 668 1205 596 1227 519 1227 c 256
 444 1227 374 1205 310 1167 c 257
 219 1260 l 257
 155 1199 l 257
 245 1110 l 257
 189 1045 161 964 161 878 c 256
 161 791 191 710 246 648 c 257
 155 558 l 257
 219 498 l 257
 311 591 l 257
 376 553 445 532 521 532 c 256
 598 532 668 553 735 593 c 257
 828 497 l 257
520 626 m 256
 384 626 271 727 271 880 c 256
 271 1030 383 1130 520 1130 c 256
 657 1130 771 1032 771 879 c 256
 771 726 658 626 520 626 c 256
EndSplineSet
EndChar

StartChar: d
Encoding: 100 100 199
Width: 1050
VWidth: 0
Flags: HW
PickledData: "(dp1
S'org.robofab.postScriptHintData'
p2
(dp3
sS'com.typemytype.robofont.layerData'
p4
(dp5
S'b'
(dp6
S'name'
p7
S'd'
sS'lib'
p8
(dp9
sS'unicodes'
p10
(tsS'width'
p11
I1011
sS'contours'
p12
(tsS'components'
p13
(tsS'anchors'
p14
(tsss."
AnchorPoint: "caron.alt" 984 804 basechar 0
AnchorPoint: "top" 368 804 basechar 0
LayerCount: 2
Fore
SplineSet
725 0 m 1
 1004 0 l 1
 1004 108 l 1
 876 108 l 1
 876 1174 l 1
 581 1174 l 1
 581 1066 l 1
 725 1066 l 1
 725 742 l 1
 643 796 545 825 453 825 c 0
 238.58809096 825 56.9958985747 675.819469752 56.9958985747 403.245638382 c 0
 56.9958985747 135.769807278 248.388438135 -22 469 -22 c 0
 556 -22 647 5 725 58 c 1
 725 0 l 1
725 164 m 1
 654 118 573 93 500 93 c 0
 341 93 215 199 215 391 c 0
 215 599 328 711 483 711 c 0
 560 711 647 683 725 634 c 1
 725 164 l 1
EndSplineSet
EndChar

StartChar: dagger
Encoding: 8224 8224 200
Width: 692
VWidth: 0
Flags: HW
PickledData: "(dp1
S'org.robofab.postScriptHintData'
p2
(dp3
sS'com.typemytype.robofont.layerData'
p4
(dp5
S'b'
(dp6
S'name'
p7
S'dagger'
p8
sS'lib'
p9
(dp10
sS'unicodes'
p11
(tsS'width'
p12
I364
sS'contours'
p13
(tsS'components'
p14
(tsS'anchors'
p15
(tsss."
LayerCount: 2
Fore
SplineSet
311 -131 m 257
 379 -131 l 257
 379 190 415 395 437 560 c 257
 437 599 387 743 379 788 c 257
 642 751 l 257
 642 900 l 257
 379 868 l 257
 431 1186 l 257
 261 1186 l 257
 311 868 l 257
 47 900 l 257
 47 751 l 257
 311 788 l 257
 302 743 255 598 255 558 c 257
 275 392 311 188 311 -131 c 257
EndSplineSet
EndChar

StartChar: daggerdbl
Encoding: 8225 8225 201
Width: 695
VWidth: 0
Flags: HW
PickledData: "(dp1
S'org.robofab.postScriptHintData'
p2
(dp3
sS'com.typemytype.robofont.layerData'
p4
(dp5
S'b'
(dp6
S'name'
p7
S'daggerdbl'
p8
sS'lib'
p9
(dp10
sS'unicodes'
p11
(tsS'width'
p12
I486
sS'contours'
p13
(tsS'components'
p14
(tsS'anchors'
p15
(tsss."
LayerCount: 2
Fore
SplineSet
262 -154 m 257
 436 -154 l 257
 383 118 l 257
 655 84 l 257
 655 238 l 257
 396 198 l 257
 396.6 201.6 396.84 215.52 396.84 235.832 c 0
 396.84 317.08 393 500.6 393 535 c 256
 393 570.2 396.84 753.24 396.84 834.776 c 0
 396.84 855.16 396.6 869.2 396 873 c 257
 655 834 l 257
 655 987 l 257
 383 953 l 257
 436 1225 l 257
 262 1225 l 257
 312 953 l 257
 39 987 l 257
 39 834 l 257
 300 873 l 257
 299 868.25 298.625 847.6875 298.625 818.84375 c 0
 298.625 732.3125 302 571.25 302 539 c 256
 302 506 298.625 340.8125 298.625 252.6875 c 0
 298.625 223.3125 299 202.5 300 198 c 257
 39 238 l 257
 39 84 l 257
 312 118 l 257
 262 -154 l 257
EndSplineSet
EndChar

StartChar: dblgravecmb
Encoding: 783 783 202
Width: 667
VWidth: 0
Flags: HW
PickledData: "(dp1
S'org.robofab.postScriptHintData'
p2
(dp3
sS'com.typemytype.robofont.layerData'
p4
(dp5
S'b'
(dp6
S'name'
p7
S'uni030F'
p8
sS'lib'
p9
(dp10
sS'unicodes'
p11
(tsS'width'
p12
I643
sS'contours'
p13
(tsS'components'
p14
(tsS'anchors'
p15
(tsss."
AnchorPoint: "top" 408 804 mark 0
LayerCount: 2
Fore
SplineSet
196 976 m 257
 292 976 l 257
 177 1289 l 257
 5 1289 l 257
 196 976 l 257
474 976 m 257
 570 976 l 257
 455 1289 l 257
 283 1289 l 257
 474 976 l 257
EndSplineSet
EndChar

StartChar: degree
Encoding: 176 176 206
Width: 734
VWidth: 0
Flags: HW
PickledData: "(dp1
S'org.robofab.postScriptHintData'
p2
(dp3
sS'com.typemytype.robofont.layerData'
p4
(dp5
S'b'
(dp6
S'name'
p7
S'degree'
p8
sS'lib'
p9
(dp10
sS'unicodes'
p11
(tsS'width'
p12
I922
sS'contours'
p13
(tsS'components'
p14
(tsS'anchors'
p15
(tsss."
LayerCount: 2
Fore
SplineSet
368 779 m 256
 259 779 192 859 192 951 c 256
 193 1043 259 1123 367 1123 c 256
 477 1123 543 1041 543 951 c 256
 543 858 475 779 368 779 c 256
367 703 m 256
 527 703 626 819 626 950 c 256
 626 1082 526 1197 367 1197 c 256
 208 1197 108 1082 108 950 c 256
 108 819 208 703 367 703 c 256
EndSplineSet
EndChar

StartChar: dieresis
Encoding: 168 168 207
Width: 551
VWidth: 0
Flags: HW
PickledData: "(dp1
S'org.robofab.postScriptHintData'
p2
(dp3
sS'com.typemytype.robofont.layerData'
p4
(dp5
S'b'
(dp6
S'name'
p7
S'dieresis'
p8
sS'lib'
p9
(dp10
sS'unicodes'
p11
(tsS'width'
p12
I295
sS'contours'
p13
(tsS'components'
p14
(tsS'anchors'
p15
(tsss."
AnchorPoint: "top" 277 804 mark 0
LayerCount: 2
Fore
SplineSet
77 936 m 256
 133 936 170 971 170 1024 c 256
 170 1077 133 1112 77 1112 c 256
 22 1112 -14 1077 -14 1024 c 256
 -14 971 22 936 77 936 c 256
471 936 m 256
 527 936 564 970 564 1024 c 256
 564 1077 527 1112 471 1112 c 256
 416 1112 380 1077 380 1024 c 256
 380 970 416 936 471 936 c 256
EndSplineSet
EndChar

StartChar: divide
Encoding: 247 247 208
Width: 840
VWidth: 0
Flags: HW
PickledData: "(dp1
S'org.robofab.postScriptHintData'
p2
(dp3
sS'com.typemytype.robofont.layerData'
p4
(dp5
S'b'
(dp6
S'name'
p7
S'divide'
p8
sS'lib'
p9
(dp10
sS'unicodes'
p11
(tsS'width'
p12
I339
sS'contours'
p13
(tsS'components'
p14
(tsS'anchors'
p15
(tsss."
LayerCount: 2
Fore
SplineSet
353 190 m 257
 488 190 l 257
 488 340 l 257
 353 340 l 257
 353 190 l 257
57 494 m 257
 784 494 l 257
 784 588 l 257
 57 588 l 257
 57 494 l 257
353 735 m 257
 488 735 l 257
 488 885 l 257
 353 885 l 257
 353 735 l 257
EndSplineSet
EndChar

StartChar: dollar
Encoding: 36 36 209
Width: 1067
VWidth: 0
Flags: HW
PickledData: "(dp1
S'org.robofab.postScriptHintData'
p2
(dp3
s."
LayerCount: 2
Fore
SplineSet
489 -183 m 257
 565 -183 l 257
 565 1354 l 257
 489 1354 l 257
 489 -183 l 257
EndSplineSet
Refer: 106 83 N 1 0 0 1 -42 0 2
EndChar

StartChar: dotaccent
Encoding: 729 729 211
Width: 374
VWidth: 0
Flags: HW
PickledData: "(dp1
S'org.robofab.postScriptHintData'
p2
(dp3
s."
AnchorPoint: "top" 192 804 mark 0
LayerCount: 2
Fore
SplineSet
192 982 m 256
 255 982 303 1027 303 1086 c 256
 303 1144 255 1190 192 1190 c 256
 131 1190 82 1144 82 1086 c 256
 82 1027 131 982 192 982 c 256
EndSplineSet
EndChar

StartChar: dotlessj
Encoding: 567 567 214
Width: 509
VWidth: 0
Flags: W
PickledData: "(dp1
S'org.robofab.postScriptHintData'
p2
(dp3
sS'com.typemytype.robofont.layerData'
p4
(dp5
S'b'
(dp6
S'name'
p7
S'uni0237'
p8
sS'lib'
p9
(dp10
sS'unicodes'
p11
(tsS'width'
p12
I398
sS'contours'
p13
(tsS'components'
p14
(tsS'anchors'
p15
(tsss."
AnchorPoint: "top" 274 804 basechar 0
LayerCount: 2
Fore
SplineSet
10 -311 m 257
 99 -311 l 258
 371 -311 382 -159 382 23 c 258
 382 804 l 257
 65 804 l 257
 65 697 l 257
 229 697 l 257
 229 -21 l 258
 229 -139 211 -193 96 -193 c 258
 10 -193 l 257
 10 -311 l 257
EndSplineSet
EndChar

StartChar: e
Encoding: 101 101 217
Width: 944
VWidth: 0
Flags: HW
PickledData: "(dp1
S'org.robofab.postScriptHintData'
p2
(dp3
sS'com.typemytype.robofont.layerData'
p4
(dp5
S'b'
(dp6
S'name'
p7
S'e'
sS'lib'
p8
(dp9
sS'unicodes'
p10
(tsS'width'
p11
I975
sS'contours'
p12
((dp13
S'points'
p14
((dp15
S'segmentType'
p16
S'line'
p17
sS'x'
I171
sS'smooth'
p18
I0
sS'y'
I442
s(dp19
S'y'
I592
sS'x'
I182
sg18
I0
s(dp20
S'y'
I755
sS'x'
I296
sg18
I0
s(dp21
g16
S'curve'
p22
sS'x'
I507
sg18
I1
sS'y'
I755
s(dp23
S'y'
I755
sS'x'
I699
sg18
I0
s(dp24
S'y'
I616
sS'x'
I803
sg18
I0
s(dp25
g16
S'curve'
p26
sS'x'
I820
sg18
I0
sS'y'
I442
stp27
s(dp28
g14
((dp29
g16
S'line'
p30
sS'x'
I890
sg18
I0
sS'y'
I383
s(dp31
S'y'
I601
sS'x'
I889
sg18
I0
s(dp32
S'y'
I819
sS'x'
F778.76831688899995
sg18
I0
s(dp33
g16
S'curve'
p34
sS'x'
I502
sg18
I1
sS'y'
I819
s(dp35
S'y'
I819
sS'x'
I232
sg18
I0
s(dp36
S'y'
I618
sS'x'
I90
sg18
I0
s(dp37
g16
S'curve'
p38
sS'x'
I90
sg18
I1
sS'y'
I403
s(dp39
S'y'
I150
sS'x'
I90
sg18
I0
s(dp40
S'y'
S'-14'
p41
sS'x'
I284
sg18
I0
s(dp42
g16
S'curve'
p43
sS'x'
I511
sg18
I1
sS'y'
S'-14'
p44
s(dp45
S'y'
S'-14'
p46
sS'x'
I657
sg18
I0
s(dp47
S'y'
I34
sS'x'
I761
sg18
I0
s(dp48
g16
S'curve'
p49
sS'x'
I868
sg18
I0
sS'y'
I139
s(dp50
g16
S'line'
p51
sS'x'
I836
sg18
I0
sS'y'
I197
s(dp52
S'y'
I103
sS'x'
I747
sg18
I0
s(dp53
S'y'
I50
sS'x'
I652
sg18
I0
s(dp54
g16
S'curve'
p55
sS'x'
I515
sg18
I1
sS'y'
I50
s(dp56
S'y'
I50
sS'x'
I347
sg18
I0
s(dp57
S'y'
I162
sS'x'
I182
sg18
I0
s(dp58
g16
S'curve'
p59
sS'x'
I169
sg18
I0
sS'y'
I383
stp60
stp61
sS'components'
p62
(tsS'anchors'
p63
(tsss."
AnchorPoint: "bot" 485 0 basechar 0
LayerCount: 2
Fore
SplineSet
211 464 m 1
 226 613 339 714 477 714 c 0
 602 714 707 622 722 464 c 1
 211 464 l 1
493 -20 m 0
 643 -20 782 44 859 129 c 1
 804 221 l 1
 728 150 622 96 499 96 c 0
 348 96 219 202 209 371 c 1
 873 371 l 1
 870 659 692 826 477 826 c 0
 240 826 51 661 51 401 c 0
 51 148 244 -20 493 -20 c 0
EndSplineSet
EndChar

StartChar: eight
Encoding: 56 56 225
Width: 1066
VWidth: 0
Flags: HW
PickledData: "(dp1
S'org.robofab.postScriptHintData'
p2
(dp3
sS'com.typemytype.robofont.layerData'
p4
(dp5
S'b'
(dp6
S'name'
p7
S'eight'
p8
sS'lib'
p9
(dp10
sS'unicodes'
p11
(tsS'width'
p12
I964
sS'contours'
p13
(tsS'components'
p14
(tsS'anchors'
p15
(tsss."
LayerCount: 2
Fore
SplineSet
534 -22 m 256
 797 -22 947 118 947 309 c 256
 947 451 871 557 717 601 c 257
 855 652 911 750 911 873 c 256
 911 1054 764 1174 533 1174 c 256
 301 1174 155 1053 155 872 c 256
 155 751 209 661 346 603 c 257
 190 561 118 450 118 309 c 256
 118 121 262 -22 534 -22 c 256
534 94 m 256
 378 94 282 182 282 315 c 256
 282 449 377 541 440 557 c 257
 663 522 783 467 783 314 c 256
 783 181 687 94 534 94 c 256
618 640 m 257
 428 663 311 723 311 860 c 256
 311 982 393 1059 533 1059 c 256
 676 1059 756 979 756 860 c 256
 756 736 666 658 618 640 c 257
EndSplineSet
EndChar

StartChar: emdash
Encoding: 8212 8212 228
Width: 1441
VWidth: 0
Flags: HW
PickledData: "(dp1
S'org.robofab.postScriptHintData'
p2
(dp3
sS'com.typemytype.robofont.layerData'
p4
(dp5
S'b'
(dp6
S'name'
p7
S'emdash'
p8
sS'lib'
p9
(dp10
sS'unicodes'
p11
(tsS'width'
p12
I1309
sS'contours'
p13
(tsS'components'
p14
(tsS'anchors'
p15
(tsss."
LayerCount: 2
Fore
SplineSet
0 453 m 257
 1441 453 l 257
 1441 551 l 257
 0 551 l 257
 0 453 l 257
EndSplineSet
EndChar

StartChar: emptyset
Encoding: 8709 8709 229
Width: 1348
VWidth: 0
Flags: HW
PickledData: "(dp1
S'org.robofab.postScriptHintData'
p2
(dp3
s."
LayerCount: 2
Fore
SplineSet
238 -57 m 257
 351 77 l 257
 442 14 554 -22 674 -22 c 256
 977 -22 1225 222 1225 525 c 256
 1225 678 1162 815 1062 914 c 257
 1179 1052 l 257
 1123 1100 l 257
 1006 962 l 257
 913 1031 798 1073 674 1073 c 256
 372 1073 124 845 124 525 c 256
 124 358 190 217 296 121 c 257
 186 -10 l 257
 238 -57 l 257
352 188 m 257
 266 269 215 388 215 524 c 256
 215 790 415 990 674 990 c 256
 778 990 875 954 951 896 c 257
 352 188 l 257
673 61 m 256
 573 61 481 90 407 142 c 257
 1005 847 l 257
 1085 762 1134 648 1134 524 c 256
 1134 274 932 61 673 61 c 256
EndSplineSet
EndChar

StartChar: endash
Encoding: 8211 8211 230
Width: 807
VWidth: 0
Flags: HW
PickledData: "(dp1
S'org.robofab.postScriptHintData'
p2
(dp3
sS'com.typemytype.robofont.layerData'
p4
(dp5
S'b'
(dp6
S'name'
p7
S'endash'
p8
sS'lib'
p9
(dp10
sS'unicodes'
p11
(tsS'width'
p12
I1113
sS'contours'
p13
(tsS'components'
p14
(tsS'anchors'
p15
(tsss."
LayerCount: 2
Fore
SplineSet
0 440 m 257
 807 440 l 257
 807 538 l 257
 0 538 l 257
 0 440 l 257
EndSplineSet
EndChar

StartChar: eng
Encoding: 331 331 231
Width: 1056
VWidth: 0
Flags: HW
PickledData: "(dp1
S'org.robofab.postScriptHintData'
p2
(dp3
s."
LayerCount: 2
Fore
SplineSet
481 -326 m 257
 719 -326 906 -234 906 29 c 258
 906 557 l 258
 906 731 788 826 642 826 c 256
 515 826 386 752 270 662 c 257
 270 554 l 257
 363 634 494 707 603 707 c 256
 698 707 756 642 756 528 c 258
 756 19 l 258
 756 -144 674 -217 482 -217 c 257
 481 -326 l 257
EndSplineSet
Refer: 299 -1 N 1 0 0 1 -77 0 2
EndChar

StartChar: equal
Encoding: 61 61 233
Width: 1061
VWidth: 0
Flags: HW
PickledData: "(dp1
S'org.robofab.postScriptHintData'
p2
(dp3
sS'com.typemytype.robofont.layerData'
p4
(dp5
S'b'
(dp6
S'name'
p7
S'equal'
p8
sS'lib'
p9
(dp10
sS'unicodes'
p11
(tsS'width'
p12
I715
sS'contours'
p13
(tsS'components'
p14
(tsS'anchors'
p15
(tsss."
LayerCount: 2
Fore
SplineSet
161 267 m 257
 901 267 l 257
 901 383 l 257
 161 383 l 257
 161 267 l 257
161 615 m 257
 901 615 l 257
 901 731 l 257
 161 731 l 257
 161 615 l 257
EndSplineSet
EndChar

StartChar: estimated
Encoding: 8494 8494 234
Width: 963
VWidth: 0
Flags: HW
PickledData: "(dp1
S'org.robofab.postScriptHintData'
p2
(dp3
s."
LayerCount: 2
Fore
SplineSet
572 -18 m 256
 710 -18 842 35 944 124 c 257
 918 155 l 257
 819.410134218 78.6411823847 714.280501862 36.849702379 612.544298725 36.849702379 c 0
 430.040520037 36.849702379 309.189507514 177.035561038 295 399 c 257
 938 399 l 257
 938 664 815 824 555 824 c 256
 298 824 126 668 126 415 c 256
 126 135.903498537 331.666268185 -18.0048396836 569.687403833 -18.0048396836 c 0
 570.457932114 -18.0048396836 571.228799463 -18.0032267805 572 -18 c 256
297 452 m 257
 301.980457113 667.155747292 430.985679511 794.005861702 576.288782923 794.005861702 c 0
 715.737238362 794.005861702 841.994819588 671.378170093 845 452 c 257
 297 452 l 257
EndSplineSet
EndChar

StartChar: eth
Encoding: 240 240 235
Width: 981
VWidth: 0
Flags: HW
PickledData: "(dp1
S'org.robofab.postScriptHintData'
p2
(dp3
sS'com.typemytype.robofont.layerData'
p4
(dp5
S'b'
(dp6
S'name'
p7
S'eth'
p8
sS'lib'
p9
(dp10
sS'unicodes'
p11
(tsS'width'
p12
I886
sS'contours'
p13
(tsS'components'
p14
(tsS'anchors'
p15
(tsss."
LayerCount: 2
Fore
SplineSet
495 -20 m 256
 731 -20 905 153 905 400 c 256
 905 853 529 1135 234 1371 c 257
 159 1277 l 257
 377 1112 605 918 700 717 c 257
 676 738 595 788 470 788 c 256
 271 788 87 630 87 420 c 256
 87 178 229 -20 495 -20 c 256
496 100 m 256
 325 100 231 245 231 405 c 256
 231 577 342 678 487 678 c 256
 631 678 765 585 765 400 c 256
 765 249 686 100 496 100 c 256
228 884 m 257
 831 1155 l 257
 784 1245 l 257
 183 977 l 257
 228 884 l 257
EndSplineSet
EndChar

StartChar: exclam
Encoding: 33 33 236
Width: 396
VWidth: 0
Flags: HW
PickledData: "(dp1
S'org.robofab.postScriptHintData'
p2
(dp3
sS'com.typemytype.robofont.layerData'
p4
(dp5
S'b'
(dp6
S'name'
p7
S'exclam'
p8
sS'lib'
p9
(dp10
sS'unicodes'
p11
(tsS'width'
p12
I150
sS'contours'
p13
(tsS'components'
p14
(tsS'anchors'
p15
(tsss."
LayerCount: 2
Fore
SplineSet
163 383 m 257
 243 383 l 257
 280 853 l 257
 280 1202 l 257
 123 1202 l 257
 123 853 l 257
 163 383 l 257
201 -13 m 256
 264 -13 312 32 312 91 c 256
 312 149 264 195 201 195 c 256
 140 195 92 149 92 91 c 256
 92 32 140 -13 201 -13 c 256
EndSplineSet
EndChar

StartChar: f
Encoding: 102 102 238
Width: 700
VWidth: 0
Flags: HW
PickledData: "(dp1
S'org.robofab.postScriptHintData'
p2
(dp3
sS'com.typemytype.robofont.layerData'
p4
(dp5
S'b'
(dp6
S'name'
p7
S'f'
sS'lib'
p8
(dp9
sS'unicodes'
p10
(tsS'width'
p11
I671
sS'contours'
p12
(tsS'components'
p13
(tsS'anchors'
p14
(tsss."
AnchorPoint: "top" 389 1129 basechar 0
LayerCount: 2
Fore
SplineSet
84 0 m 1
 603 0 l 1
 603 109 l 1
 396 109 l 1
 396 696 l 1
 605 696 l 1
 605 804 l 1
 396 804 l 1
 396 974 l 2
 396 1072 432 1114 492 1114 c 0
 557 1114 580 1069 591 999 c 1
 708 1032 l 1
 698 1174 596 1220 486 1220 c 0
 320 1220 243 1124 243 977 c 2
 243 804 l 1
 87 804 l 1
 87 696 l 1
 243 696 l 1
 243 109 l 1
 84 109 l 1
 84 0 l 1
EndSplineSet
EndChar

StartChar: ff
Encoding: 65541 -1 240
Width: 1314
VWidth: 0
Flags: HW
PickledData: "(dp1
S'org.robofab.postScriptHintData'
p2
(dp3
sS'com.typemytype.robofont.layerData'
p4
(dp5
S'b'
(dp6
S'name'
p7
S'ff'
p8
sS'lib'
p9
(dp10
sS'unicodes'
p11
(tsS'width'
p12
I1226
sS'contours'
p13
(tsS'components'
p14
(tsS'anchors'
p15
(tsss."
LayerCount: 2
Fore
SplineSet
693 0 m 257
 1154 0 l 257
 1154 108 l 257
 979 108 l 257
 979 696 l 257
 1166 696 l 257
 1166 804 l 257
 979 804 l 257
 979 975 l 258
 979 1071 1017 1113 1071 1113 c 256
 1131 1113 1160 1076 1171 999 c 257
 1288 1032 l 257
 1277 1180 1169 1220 1066 1220 c 256
 910 1220 827 1125 827 976 c 258
 827 804 l 257
 504 804 l 257
 504 696 l 257
 827 696 l 257
 827 108 l 257
 693 108 l 257
 693 0 l 257
EndSplineSet
Refer: 238 102 N 1 0 0 1 0 0 2
EndChar

StartChar: ffi
Encoding: 65542 -1 241
Width: 1735
VWidth: 0
Flags: HW
PickledData: "(dp1
S'org.robofab.postScriptHintData'
p2
(dp3
sS'com.typemytype.robofont.layerData'
p4
(dp5
S'b'
(dp6
S'name'
p7
S'ffi'
p8
sS'lib'
p9
(dp10
sS'unicodes'
p11
(tsS'width'
p12
I1699
sS'contours'
p13
(tsS'components'
p14
(tsS'anchors'
p15
(tsss."
LayerCount: 2
Fore
SplineSet
107 0 m 257
 541 0 l 257
 541 108 l 257
 393 108 l 257
 393 696 l 257
 756 696 l 257
 756 804 l 257
 393 804 l 257
 393 959 l 258
 393 1072 491 1124 615 1124 c 256
 711 1124 823 1087 895 1026 c 257
 941 1110 l 257
 853 1188 720 1230 597 1230 c 256
 407 1230 241 1142 241 967 c 258
 241 804 l 257
 103 804 l 257
 103 696 l 257
 241 696 l 257
 241 108 l 257
 107 108 l 257
 107 0 l 257
EndSplineSet
Refer: 243 64257 N 1 0 0 1 572 0 2
EndChar

StartChar: ffl
Encoding: 65543 -1 242
Width: 1780
VWidth: 0
Flags: HW
PickledData: "(dp1
S'org.robofab.postScriptHintData'
p2
(dp3
sS'com.typemytype.robofont.layerData'
p4
(dp5
S'b'
(dp6
S'name'
p7
S'ffl'
p8
sS'lib'
p9
(dp10
sS'unicodes'
p11
(tsS'width'
p12
I1801
sS'contours'
p13
(tsS'components'
p14
(tsS'anchors'
p15
(tsss."
LayerCount: 2
Fore
SplineSet
100 0 m 257
 534 0 l 257
 534 108 l 257
 386 108 l 257
 386 696 l 257
 749 696 l 257
 749 804 l 257
 386 804 l 257
 386 959 l 258
 386 1072 484 1124 608 1124 c 256
 704 1124 816 1087 888 1026 c 257
 934 1110 l 257
 846 1188 713 1230 590 1230 c 256
 400 1230 234 1142 234 967 c 258
 234 804 l 257
 96 804 l 257
 96 696 l 257
 234 696 l 257
 234 108 l 257
 100 108 l 257
 100 0 l 257
EndSplineSet
Refer: 246 64258 N 1 0 0 1 521 0 2
EndChar

StartChar: fi
Encoding: 64257 64257 243
Width: 1169
VWidth: 0
Flags: HW
PickledData: "(dp1
S'org.robofab.postScriptHintData'
p2
(dp3
sS'com.typemytype.robofont.layerData'
p4
(dp5
S'b'
(dp6
S'name'
p7
S'fi'
p8
sS'lib'
p9
(dp10
sS'unicodes'
p11
(tsS'width'
p12
I1044
sS'contours'
p13
(tsS'components'
p14
(tsS'anchors'
p15
(tsss."
LayerCount: 2
Fore
SplineSet
104 0 m 257
 573 0 l 257
 573 108 l 257
 395 108 l 257
 395 696 l 257
 846 696 l 257
 846 108 l 257
 698 108 l 257
 698 0 l 257
 1134 0 l 257
 1134 108 l 257
 996 108 l 257
 996 804 l 257
 395 804 l 257
 395 914 l 258
 395 1103 497 1177 650 1177 c 256
 724 1177 808 1156 844 1117 c 257
 829 1104 821 1084 821 1064 c 256
 821 1013 864 975 918 975 c 256
 973 975 1014 1015 1014 1068 c 256
 1014 1188 844 1266 650 1266 c 256
 420 1266 243 1160 243 916 c 258
 243 804 l 257
 100 804 l 257
 100 696 l 257
 243 696 l 257
 243 108 l 257
 104 108 l 257
 104 0 l 257
EndSplineSet
EndChar

StartChar: five
Encoding: 53 53 244
Width: 1027
VWidth: 0
Flags: HW
PickledData: "(dp1
S'org.robofab.postScriptHintData'
p2
(dp3
sS'com.typemytype.robofont.layerData'
p4
(dp5
S'b'
(dp6
S'name'
p7
S'five'
p8
sS'lib'
p9
(dp10
sS'unicodes'
p11
(tsS'width'
p12
I964
sS'contours'
p13
(tsS'components'
p14
(tsS'anchors'
p15
(tsss."
LayerCount: 2
Fore
SplineSet
515 -22 m 256
 788 -22 946 118 946 359 c 256
 946 597 796 734 540 734 c 256
 449 734 359 698 295 634 c 257
 305 1033 l 257
 736 1033 l 257
 736 858 l 257
 878 858 l 257
 878 1152 l 257
 170 1152 l 257
 156 543 l 257
 276 493 l 257
 346 568 455 602 529 602 c 256
 693 602 787 512 787 353 c 256
 787 195 688 104 516 104 c 256
 379 104 274 167 199 268 c 257
 103 169 l 257
 195 52 328 -22 515 -22 c 256
EndSplineSet
EndChar

StartChar: fj
Encoding: 65544 -1 245
Width: 1156
VWidth: 0
Flags: HW
PickledData: "(dp1
S'org.robofab.postScriptHintData'
p2
(dp3
s."
LayerCount: 2
Fore
SplineSet
646 -311 m 257
 735 -311 l 258
 1007 -311 1018 -159 1018 23 c 258
 1018 804 l 257
 395 804 l 257
 395 914 l 258
 395 1103 497 1177 650 1177 c 256
 724 1177 808 1156 844 1117 c 257
 829 1104 821 1084 821 1064 c 256
 821 1013 864 975 918 975 c 256
 973 975 1014 1015 1014 1068 c 256
 1014 1188 844 1266 650 1266 c 256
 420 1266 243 1160 243 916 c 258
 243 804 l 257
 100 804 l 257
 100 696 l 257
 243 696 l 257
 243 108 l 257
 104 108 l 257
 104 0 l 257
 573 0 l 257
 573 108 l 257
 395 108 l 257
 395 696 l 257
 866 696 l 257
 866 -21 l 258
 866 -139 847 -193 732 -193 c 258
 646 -193 l 257
 646 -311 l 257
EndSplineSet
EndChar

StartChar: fl
Encoding: 64258 64258 246
Width: 1239
VWidth: 0
Flags: HW
PickledData: "(dp1
S'org.robofab.postScriptHintData'
p2
(dp3
sS'com.typemytype.robofont.layerData'
p4
(dp5
S'b'
(dp6
S'name'
p7
S'fl'
p8
sS'lib'
p9
(dp10
sS'unicodes'
p11
(tsS'width'
p12
I1223
sS'contours'
p13
(tsS'components'
p14
(tsS'anchors'
p15
(tsss."
LayerCount: 2
Fore
SplineSet
104 0 m 257
 573 0 l 257
 573 108 l 257
 395 108 l 257
 395 696 l 257
 576 696 l 257
 576 804 l 257
 395 804 l 257
 395 954 l 258
 395 1074 538 1133 684 1133 c 256
 785 1133 861 1109 861 1069 c 258
 861 108 l 258
 861 63 901 0 955 0 c 258
 1180 0 l 257
 1180 108 l 257
 1013 108 l 257
 1013 1109 l 258
 1013 1202 869 1257 693 1257 c 256
 466 1257 243 1158 243 946 c 258
 243 804 l 257
 100 804 l 257
 100 696 l 257
 243 696 l 257
 243 108 l 257
 104 108 l 257
 104 0 l 257
EndSplineSet
EndChar

StartChar: florin
Encoding: 402 402 247
Width: 1012
VWidth: 0
Flags: HW
PickledData: "(dp1
S'org.robofab.postScriptHintData'
p2
(dp3
s."
LayerCount: 2
Fore
SplineSet
806 1014 m 257
 908.858115576 1014 948.272649665 1061.78146521 948.272649665 1116.12924512 c 0
 948.272649665 1178.28913293 884.848752591 1221 775 1221 c 256
 773.562039952 1221.01423723 772.131022333 1221.02132933 770.706913235 1221.02132933 c 0
 572.076759178 1221.02132933 507.84339049 1083.05322432 486 951 c 258
 458 789 l 257
 292 789 l 257
 282 700 l 257
 448 700 l 257
 354 44 l 257
 330.053904353 -141.582241267 265.229555519 -183.250632275 197.240442567 -183.250632275 c 0
 174.373340522 -183.250632275 151.14823697 -178.537059242 129 -173 c 257
 117 -253 l 257
 150.795566311 -262.040852134 185.656864577 -267.513819028 219.958092128 -267.513819028 c 0
 345.00595422 -267.513819028 462.610335366 -194.776709604 494 43 c 257
 590 700 l 257
 802 700 l 257
 812 789 l 257
 603 789 l 257
 628 957 l 257
 648.768425846 1106.33487156 686.163989347 1151.01658258 739.219409059 1151.01658258 c 0
 783.919510598 1151.01658258 806.935510785 1111.32087052 806.935510785 1039.94641316 c 0
 806.935510785 1031.71771742 806.625182216 1023.06514213 806 1014 c 257
EndSplineSet
EndChar

StartChar: foundryicon
Encoding: 65545 -1 248
Width: 1347
VWidth: 0
Flags: HW
PickledData: "(dp1
S'org.robofab.postScriptHintData'
p2
(dp3
sS'com.typemytype.robofont.layerData'
p4
(dp5
S'b'
(dp6
S'name'
p7
S'foundryicon'
p8
sS'lib'
p9
(dp10
sS'unicodes'
p11
(tsS'width'
p12
I313
sS'contours'
p13
(tsS'components'
p14
(tsS'anchors'
p15
(tsss."
LayerCount: 2
Fore
SplineSet
485 405 m 257
 485 672 l 257
 591 672 l 257
 761 523 l 257
 761 672 l 257
 867 672 l 257
 867 405 l 257
 761 405 l 257
 591 552 l 257
 591 405 l 257
 485 405 l 257
280 2 m 257
 669 278 l 257
 1066 2 l 257
 922 461 l 257
 1313 755 l 257
 828 755 l 257
 669 1215 l 257
 519 755 l 257
 34 755 l 257
 423 461 l 257
 280 2 l 257
EndSplineSet
EndChar

StartChar: four
Encoding: 52 52 249
Width: 970
VWidth: 0
Flags: HW
PickledData: "(dp1
S'org.robofab.postScriptHintData'
p2
(dp3
sS'com.typemytype.robofont.layerData'
p4
(dp5
S'b'
(dp6
S'name'
p7
S'four'
p8
sS'lib'
p9
(dp10
sS'unicodes'
p11
(tsS'width'
p12
I964
sS'contours'
p13
(tsS'components'
p14
(tsS'anchors'
p15
(tsss."
LayerCount: 2
Fore
SplineSet
395 0 m 257
 824 0 l 257
 824 109 l 257
 686 109 l 257
 686 345 l 257
 875 345 l 257
 875 452 l 257
 686 452 l 257
 686 1152 l 257
 545 1152 l 257
 58 471 l 257
 75 345 l 257
 546 345 l 257
 546 109 l 257
 395 109 l 257
 395 0 l 257
198 452 m 257
 546 970 l 257
 546 452 l 257
 198 452 l 257
EndSplineSet
EndChar

StartChar: foursuperior
Encoding: 8308 8308 250
Width: 897
VWidth: 0
Flags: HW
PickledData: "(dp1
S'org.robofab.postScriptHintData'
p2
(dp3
sS'com.typemytype.robofont.layerData'
p4
(dp5
S'b'
(dp6
S'name'
p7
S'uni2074'
p8
sS'lib'
p9
(dp10
sS'unicodes'
p11
(tsS'width'
p12
I718
sS'contours'
p13
(tsS'components'
p14
(tsS'anchors'
p15
(tsss."
LayerCount: 2
Fore
SplineSet
369 535 m 257
 689 535 l 257
 689 616 l 257
 585 616 l 257
 585 771 l 257
 731 771 l 257
 731 850 l 257
 585 850 l 257
 585 1339 l 257
 482 1339 l 257
 124 862 l 257
 138 771 l 257
 483 771 l 257
 483 616 l 257
 369 616 l 257
 369 535 l 257
228 850 m 257
 483 1207 l 257
 483 850 l 257
 228 850 l 257
EndSplineSet
EndChar

StartChar: fraction
Encoding: 8260 8260 251
Width: 597
VWidth: 0
Flags: HW
PickledData: "(dp1
S'org.robofab.postScriptHintData'
p2
(dp3
sS'com.typemytype.robofont.layerData'
p4
(dp5
S'b'
(dp6
S'name'
p7
S'fraction'
p8
sS'lib'
p9
(dp10
sS'unicodes'
p11
(tsS'width'
p12
I337
sS'contours'
p13
(tsS'components'
p14
(tsS'anchors'
p15
(tsss."
LayerCount: 2
Fore
SplineSet
-101 -43 m 257
 7 -43 l 257
 686 1263 l 257
 582 1263 l 257
 -101 -43 l 257
EndSplineSet
EndChar

StartChar: g
Encoding: 103 103 252
Width: 1051
VWidth: 0
Flags: HW
PickledData: "(dp1
S'org.robofab.postScriptHintData'
p2
(dp3
sS'com.typemytype.robofont.layerData'
p4
(dp5
S'b'
(dp6
S'name'
p7
S'g'
sS'lib'
p8
(dp9
sS'unicodes'
p10
(tsS'width'
p11
I1013
sS'contours'
p12
((dp13
S'points'
p14
((dp15
S'segmentType'
p16
S'curve'
p17
sS'x'
I510
sS'smooth'
p18
I1
sS'y'
S'-333'
p19
s(dp20
S'y'
S'-333'
p21
sS'x'
I722
sg18
I0
s(dp22
S'y'
S'-225'
p23
sS'x'
I880
sg18
I0
s(dp24
g16
S'curve'
p25
sS'x'
I880
sg18
I0
sS'y'
I15
s(dp26
g16
S'line'
p27
sS'x'
I880
sg18
I0
sS'y'
I735
s(dp28
g16
S'line'
p29
sS'x'
I1005
sg18
I0
sS'y'
I735
s(dp30
g16
S'line'
p31
sS'x'
I1005
sg18
I0
sS'y'
I789
s(dp32
g16
S'line'
p33
sS'x'
I804
sg18
I0
sS'y'
I789
s(dp34
g16
S'line'
p35
sS'x'
I804
sg18
I0
sS'y'
I673
s(dp36
S'y'
I673
sS'x'
I804
sg18
I0
s(dp37
S'y'
S'-2'
p38
sS'x'
I804
sg18
I0
s(dp39
g16
S'curve'
p40
sS'x'
I804
sg18
I1
sS'y'
S'-2'
p41
s(dp42
S'y'
S'-173'
p43
sS'x'
I804
sg18
I0
s(dp44
S'y'
S'-271'
p45
sS'x'
I695
sg18
I0
s(dp46
g16
S'curve'
p47
sS'x'
I515
sg18
I1
sS'y'
S'-271'
p48
s(dp49
S'y'
S'-271'
p50
sS'x'
I444
sg18
I0
s(dp51
S'y'
S'-255'
p52
sS'x'
I362
sg18
I0
s(dp53
g16
S'curve'
p54
sS'x'
I272
sg18
I0
sS'y'
S'-224'
p55
s(dp56
g16
S'line'
p57
sS'x'
I257
sg18
I0
sS'y'
S'-289'
p58
s(dp59
S'y'
S'-318'
p60
sS'x'
I345
sg18
I0
s(dp61
S'y'
S'-333'
p62
sS'x'
I431
sg18
I0
stp63
stp64
sS'components'
p65
(tsS'anchors'
p66
(tsss."
AnchorPoint: "top" 504 804 basechar 0
LayerCount: 2
Fore
SplineSet
481 -385 m 0
 717 -385 894 -281 894 -18 c 2
 894 696 l 1
 1030 696 l 1
 1030 804 l 1
 742 804 l 1
 742 735 l 1
 658 793 556 824 459 824 c 0
 244.58809096 824 62.9958985747 677.803080357 62.9958985747 410.204653692 c 0
 62.9958985747 147.731505952 254.400402423 -7 475 -7 c 0
 566 -7 663 23 743 80 c 1
 743 -28 l 2
 743 -191 644 -264 478 -264 c 0
 397 -264 304 -246 208 -217 c 1
 178 -335 l 1
 279 -366 384 -385 481 -385 c 0
742 629 m 1
 743 184 l 1
 669 134 583 106 506 106 c 0
 347 106 221 210 221 398 c 0
 221 602 334 712 489 712 c 0
 570 712 661 682 742 629 c 1
EndSplineSet
EndChar

StartChar: germandbls
Encoding: 223 223 259
Width: 1160
VWidth: 0
Flags: HW
PickledData: "(dp1
S'org.robofab.postScriptHintData'
p2
(dp3
sS'com.typemytype.robofont.layerData'
p4
(dp5
S'b'
(dp6
S'name'
p7
S'germandbls'
p8
sS'lib'
p9
(dp10
sS'unicodes'
p11
(tsS'width'
p12
I1198
sS'contours'
p13
(tsS'components'
p14
(tsS'anchors'
p15
(tsss."
LayerCount: 2
Fore
SplineSet
63 0 m 257
 497 0 l 257
 497 111 l 257
 379 111 l 257
 379 844 l 258
 379 1016 462 1124 610 1124 c 256
 744 1124 817 1053 817 940 c 256
 817 805 732 720 585 716 c 257
 585 611 l 257
 802 611 934 516 934 364 c 256
 934 205 802 111 604 111 c 257
 604 0 l 257
 908 0 1097 142 1097 364 c 256
 1097 521 986 646 780 681 c 257
 897 720 971 822 971 948 c 256
 971 1133 835 1242 610 1242 c 256
 364 1242 216 1092 216 840 c 258
 216 111 l 257
 63 111 l 257
 63 0 l 257
EndSplineSet
EndChar

StartChar: grave
Encoding: 96 96 260
Width: 326
VWidth: 0
Flags: HW
PickledData: "(dp1
S'org.robofab.postScriptHintData'
p2
(dp3
sS'com.typemytype.robofont.layerData'
p4
(dp5
S'b'
(dp6
S'name'
p7
S'grave'
p8
sS'lib'
p9
(dp10
sS'unicodes'
p11
(tsS'width'
p12
I50
sS'contours'
p13
(tsS'components'
p14
(tsS'anchors'
p15
(tsss."
AnchorPoint: "top" 218 804 mark 0
LayerCount: 2
Fore
SplineSet
168 976 m 257
 264 976 l 257
 155 1274 l 257
 -17 1274 l 257
 168 976 l 257
EndSplineSet
EndChar

StartChar: greater
Encoding: 62 62 261
Width: 1024
VWidth: 0
Flags: HW
PickledData: "(dp1
S'org.robofab.postScriptHintData'
p2
(dp3
sS'com.typemytype.robofont.layerData'
p4
(dp5
S'b'
(dp6
S'name'
p7
S'greater'
p8
sS'lib'
p9
(dp10
sS'unicodes'
p11
(tsS'width'
p12
I896
sS'contours'
p13
(tsS'components'
p14
(tsS'anchors'
p15
(tsss."
LayerCount: 2
Fore
SplineSet
150 37 m 257
 1033 538 l 257
 1033 639 l 257
 150 1142 l 257
 150 1005 l 257
 883 589 l 257
 150 173 l 257
 150 37 l 257
EndSplineSet
EndChar

StartChar: greaterequal
Encoding: 8805 8805 262
Width: 903
VWidth: 0
Flags: HW
PickledData: "(dp1
S'org.robofab.postScriptHintData'
p2
(dp3
sS'com.typemytype.robofont.layerData'
p4
(dp5
S'b'
(dp6
S'name'
p7
S'greaterequal'
p8
sS'lib'
p9
(dp10
sS'unicodes'
p11
(tsS'width'
p12
I595
sS'contours'
p13
(tsS'components'
p14
(tsS'anchors'
p15
(tsss."
LayerCount: 2
Fore
SplineSet
89 204 m 257
 888 632 l 257
 888 698 l 257
 89 1128 l 257
 89 1002 l 257
 713 664 l 257
 89 329 l 257
 89 204 l 257
89 0 m 257
 888 0 l 257
 888 111 l 257
 89 111 l 257
 89 0 l 257
EndSplineSet
EndChar

StartChar: guillemotleft
Encoding: 171 171 263
Width: 891
VWidth: 0
Flags: HW
PickledData: "(dp1
S'org.robofab.postScriptHintData'
p2
(dp3
sS'com.typemytype.robofont.layerData'
p4
(dp5
S'b'
(dp6
S'name'
p7
S'guillemotleft'
p8
sS'lib'
p9
(dp10
sS'unicodes'
p11
(tsS'width'
p12
I744
sS'contours'
p13
(tsS'components'
p14
(tsS'anchors'
p15
(tsss."
LayerCount: 2
Fore
SplineSet
336 193 m 257
 446 193 l 257
 237 593 l 257
 446 992 l 257
 336 992 l 257
 38 592 l 257
 336 193 l 257
716 193 m 257
 826 193 l 257
 616 593 l 257
 826 992 l 257
 716 992 l 257
 418 592 l 257
 716 193 l 257
EndSplineSet
EndChar

StartChar: guillemotright
Encoding: 187 187 264
Width: 891
VWidth: 0
Flags: HW
PickledData: "(dp1
S'org.robofab.postScriptHintData'
p2
(dp3
sS'com.typemytype.robofont.layerData'
p4
(dp5
S'b'
(dp6
S'name'
p7
S'guillemotright'
p8
sS'lib'
p9
(dp10
sS'unicodes'
p11
(tsS'width'
p12
I744
sS'contours'
p13
(tsS'components'
p14
(tsS'anchors'
p15
(tsss."
LayerCount: 2
Fore
SplineSet
65 193 m 257
 175 193 l 257
 473 592 l 257
 175 992 l 257
 65 992 l 257
 274 593 l 257
 65 193 l 257
445 193 m 257
 555 193 l 257
 853 592 l 257
 555 992 l 257
 445 992 l 257
 654 593 l 257
 445 193 l 257
EndSplineSet
EndChar

StartChar: guilsinglleft
Encoding: 8249 8249 265
Width: 555
VWidth: 0
Flags: HW
PickledData: "(dp1
S'org.robofab.postScriptHintData'
p2
(dp3
sS'com.typemytype.robofont.layerData'
p4
(dp5
S'b'
(dp6
S'name'
p7
S'guilsinglleft'
p8
sS'lib'
p9
(dp10
sS'unicodes'
p11
(tsS'width'
p12
I405
sS'contours'
p13
(tsS'components'
p14
(tsS'anchors'
p15
(tsss."
LayerCount: 2
Fore
SplineSet
319 193 m 257
 429 193 l 257
 220 593 l 257
 429 992 l 257
 319 992 l 257
 21 592 l 257
 319 193 l 257
EndSplineSet
EndChar

StartChar: guilsinglright
Encoding: 8250 8250 266
Width: 555
VWidth: 0
Flags: HW
PickledData: "(dp1
S'org.robofab.postScriptHintData'
p2
(dp3
sS'com.typemytype.robofont.layerData'
p4
(dp5
S'b'
(dp6
S'name'
p7
S'guilsinglright'
p8
sS'lib'
p9
(dp10
sS'unicodes'
p11
(tsS'width'
p12
I405
sS'contours'
p13
(tsS'components'
p14
(tsS'anchors'
p15
(tsss."
LayerCount: 2
Fore
SplineSet
126 193 m 257
 236 193 l 257
 534 594 l 257
 236 992 l 257
 126 992 l 257
 335 593 l 257
 126 193 l 257
EndSplineSet
EndChar

StartChar: h
Encoding: 104 104 267
Width: 1065
VWidth: 0
Flags: HW
PickledData: "(dp1
S'org.robofab.postScriptHintData'
p2
(dp3
sS'com.typemytype.robofont.layerData'
p4
(dp5
S'b'
(dp6
S'name'
p7
S'h'
sS'lib'
p8
(dp9
sS'unicodes'
p10
(tsS'width'
p11
I965
sS'contours'
p12
(tsS'components'
p13
(tsS'anchors'
p14
(tsss."
AnchorPoint: "top" 617 1061 basechar 0
LayerCount: 2
Fore
SplineSet
42 0 m 1
 475 0 l 1
 475 108 l 1
 344 108 l 1
 344 606 l 1
 427 663 525 707 610 707 c 0
 705 707 763 642 763 528 c 2
 763 108 l 1
 629 108 l 1
 629 0 l 1
 1061 0 l 1
 1061 108 l 1
 913 108 l 1
 913 557 l 2
 913 731 794 826 649 826 c 0
 546 826 442 777 344 711 c 1
 344 1174 l 1
 46 1174 l 1
 46 1066 l 1
 193 1066 l 1
 193 108 l 1
 42 108 l 1
 42 0 l 1
EndSplineSet
EndChar

StartChar: hungarumlaut
Encoding: 733 733 270
Width: 637
VWidth: 0
Flags: HW
PickledData: "(dp1
S'org.robofab.postScriptHintData'
p2
(dp3
sS'com.typemytype.robofont.layerData'
p4
(dp5
S'b'
(dp6
S'name'
p7
S'hungarumlaut'
p8
sS'lib'
p9
(dp10
sS'unicodes'
p11
(tsS'width'
p12
I356
sS'contours'
p13
(tsS'components'
p14
(tsS'anchors'
p15
(tsss."
AnchorPoint: "top" 243 804 mark 0
LayerCount: 2
Fore
SplineSet
474 1289 m 257
 359 976 l 257
 455 976 l 257
 646 1289 l 257
 474 1289 l 257
196 1289 m 257
 81 976 l 257
 177 976 l 257
 368 1289 l 257
 196 1289 l 257
EndSplineSet
EndChar

StartChar: hyphen
Encoding: 45 45 271
Width: 711
VWidth: 0
Flags: HW
PickledData: "(dp1
S'org.robofab.postScriptHintData'
p2
(dp3
sS'com.typemytype.robofont.layerData'
p4
(dp5
S'b'
(dp6
S'name'
p7
S'hyphen'
p8
sS'lib'
p9
(dp10
sS'unicodes'
p11
(tsS'width'
p12
I915
sS'contours'
p13
(tsS'components'
p14
(tsS'anchors'
p15
(tsss."
LayerCount: 2
Fore
SplineSet
110 381 m 257
 600 381 l 257
 600 496 l 257
 110 496 l 257
 110 381 l 257
EndSplineSet
EndChar

StartChar: i
Encoding: 105 105 272
Width: 625
VWidth: 0
Flags: HW
PickledData: "(dp1
S'org.robofab.postScriptHintData'
p2
(dp3
sS'com.typemytype.robofont.layerData'
p4
(dp5
S'b'
(dp6
S'name'
p7
S'i'
sS'lib'
p8
(dp9
sS'unicodes'
p10
(tsS'width'
p11
I531
sS'contours'
p12
(tsS'components'
p13
(tsS'anchors'
p14
(tsss."
LayerCount: 2
Fore
SplineSet
333 982 m 0
 396 982 444 1027 444 1086 c 0
 444 1144 396 1190 333 1190 c 0
 272 1190 223 1144 223 1086 c 0
 223 1027 272 982 333 982 c 0
123 0 m 1
 573 0 l 1
 573 108 l 1
 429 108 l 1
 429 340 429 572 429 804 c 1
 124 804 l 1
 124 696 l 1
 279 696 l 1
 279 108 l 1
 123 108 l 1
 123 0 l 1
EndSplineSet
EndChar

StartChar: infinity
Encoding: 8734 8734 281
Width: 1493
VWidth: 0
Flags: HW
PickledData: "(dp1
S'org.robofab.postScriptHintData'
p2
(dp3
sS'com.typemytype.robofont.layerData'
p4
(dp5
S'b'
(dp6
S'name'
p7
S'infinity'
p8
sS'lib'
p9
(dp10
sS'unicodes'
p11
(tsS'width'
p12
I1244
sS'contours'
p13
(tsS'components'
p14
(tsS'anchors'
p15
(tsss."
LayerCount: 2
Fore
SplineSet
1055 224 m 256
 1220 224 1348 374 1348 576 c 256
 1348 796 1222 929 1057 929 c 256
 929 929 831 853 754 709 c 257
 671 870 549 934 440 934 c 256
 260 934 144 776 144 582 c 256
 144 372 259 230 440 230 c 256
 552 230 658 303 739 455 c 257
 828 288 940 224 1055 224 c 256
441 335 m 256
 314 335 254 447 254 580 c 256
 254 710 321 828 437 828 c 256
 540 828 617 743 686 582 c 257
 610 412 532 335 441 335 c 256
1053 330 m 256
 949 330 878 408 806 576 c 257
 882 742 954 822 1051 822 c 256
 1164 822 1239 715 1239 578 c 256
 1239 437 1165 330 1053 330 c 256
EndSplineSet
EndChar

StartChar: integral
Encoding: 8747 8747 282
Width: 847
VWidth: 0
Flags: HW
PickledData: "(dp1
S'org.robofab.postScriptHintData'
p2
(dp3
s."
LayerCount: 2
Fore
SplineSet
114 -56 m 257
 10.7062767784 -56 -27.2930283819 -102.7946499 -27.2930283819 -156.7875073 c 0
 -27.2930283819 -220.06096841 31.7670802417 -269 149 -269 c 256
 366 -269 415 -108 433 34 c 258
 553 957 l 257
 570.80569297 1105.38077475 611.117503684 1151.01622936 664.255793918 1151.01622936 c 0
 708.921209669 1151.01622936 731.935510785 1111.29425342 731.935510785 1039.94641316 c 0
 731.935510785 1031.71771742 731.625182216 1023.06514213 731 1014 c 257
 833.858115576 1014 873.272649665 1061.78146521 873.272649665 1116.12924512 c 0
 873.272649665 1178.28913293 809.848752591 1221 700 1221 c 256
 698.551803263 1221.01433858 697.110391159 1221.02148134 695.675734576 1221.02148134 c 0
 496.999023424 1221.02148134 427.878122057 1084.03931504 411 951 c 258
 287 -3 l 257
 270 -150 234 -198 184 -198 c 256
 140.779011021 -198 112.962980322 -165.568508883 112.962980322 -84.6441388137 c 0
 112.962980322 -75.6962071364 113.303060893 -66.1553984191 114 -56 c 257
EndSplineSet
EndChar

StartChar: j
Encoding: 106 106 285
Width: 509
VWidth: 0
Flags: HW
PickledData: "(dp1
S'org.robofab.postScriptHintData'
p2
(dp3
sS'com.typemytype.robofont.layerData'
p4
(dp5
S'b'
(dp6
S'name'
p7
S'j'
sS'lib'
p8
(dp9
sS'unicodes'
p10
(tsS'width'
p11
I398
sS'contours'
p12
(tsS'components'
p13
(tsS'anchors'
p14
(tsss."
LayerCount: 2
Fore
SplineSet
274 982 m 0
 337 982 385 1027 385 1086 c 0
 385 1144 337 1190 274 1190 c 0
 213 1190 164 1144 164 1086 c 0
 164 1027 213 982 274 982 c 0
10 -311 m 1
 99 -311 l 2
 371 -311 382 -159 382 23 c 2
 382 804 l 1
 65 804 l 1
 65 697 l 1
 229 697 l 1
 229 -21 l 2
 229 -139 211 -193 96 -193 c 2
 10 -193 l 1
 10 -311 l 1
EndSplineSet
EndChar

StartChar: k
Encoding: 107 107 287
Width: 1020
VWidth: 0
Flags: HW
PickledData: "(dp1
S'org.robofab.postScriptHintData'
p2
(dp3
sS'com.typemytype.robofont.guides'
p4
((dp5
S'y'
I421
sS'x'
I474
sS'magnetic'
p6
I5
sS'angle'
p7
I0
sS'isGlobal'
p8
I0
stp9
sS'com.typemytype.robofont.layerData'
p10
(dp11
S'b'
(dp12
S'name'
p13
S'k'
sS'lib'
p14
(dp15
sS'unicodes'
p16
(tsS'width'
p17
I927
sS'contours'
p18
(tsS'components'
p19
(tsS'anchors'
p20
(tsss."
AnchorPoint: "bot" 547 0 basechar 0
AnchorPoint: "top" 698 962 basechar 0
LayerCount: 2
Fore
SplineSet
752 0 m 1
 988 0 l 1
 988 109 l 1
 828 109 l 1
 511 420 l 1
 861 696 l 1
 983 696 l 1
 983 804 l 1
 554 804 l 1
 554 696 l 1
 704 696 l 1
 356 430 l 1
 356 1174 l 1
 58 1174 l 1
 58 1066 l 1
 205 1066 l 1
 205 108 l 1
 54 108 l 1
 54 0 l 1
 487 0 l 1
 487 108 l 1
 356 108 l 1
 356 397 l 1
 752 0 l 1
EndSplineSet
EndChar

StartChar: kgreenlandic
Encoding: 312 312 289
Width: 1068
VWidth: 0
Flags: HW
PickledData: "(dp1
S'org.robofab.postScriptHintData'
p2
(dp3
sS'com.typemytype.robofont.layerData'
p4
(dp5
S'b'
(dp6
S'name'
p7
S'kgreenlandic'
p8
sS'lib'
p9
(dp10
sS'unicodes'
p11
(tsS'width'
p12
I927
sS'contours'
p13
(tsS'components'
p14
(tsS'anchors'
p15
(tsss."
LayerCount: 2
Fore
SplineSet
818 0 m 257
 1033 0 l 257
 1033 109 l 257
 886 109 l 257
 538 404 l 257
 884 696 l 257
 1023 696 l 257
 1023 804 l 257
 577 804 l 257
 577 696 l 257
 716 696 l 257
 362 396 l 257
 818 0 l 257
78 0 m 257
 494 0 l 257
 494 109 l 257
 376 109 l 257
 376 804 l 257
 80 804 l 257
 80 696 l 257
 226 696 l 257
 226 109 l 257
 78 109 l 257
 78 0 l 257
EndSplineSet
EndChar

StartChar: l
Encoding: 108 108 290
Width: 533
VWidth: 0
Flags: HW
PickledData: "(dp1
S'org.robofab.postScriptHintData'
p2
(dp3
sS'com.typemytype.robofont.layerData'
p4
(dp5
S'b'
(dp6
S'name'
p7
S'l'
sS'lib'
p8
(dp9
sS'unicodes'
p10
(tsS'width'
p11
I563
sS'contours'
p12
(tsS'components'
p13
(tsS'anchors'
p14
(tsss."
AnchorPoint: "bot" 277 0 basechar 0
AnchorPoint: "top" 280 1152 basechar 0
LayerCount: 2
Fore
SplineSet
55 0 m 1
 488 0 l 1
 488 108 l 1
 357 108 l 1
 357 1174 l 1
 59 1174 l 1
 59 1066 l 1
 206 1066 l 1
 206 108 l 1
 55 108 l 1
 55 0 l 1
EndSplineSet
EndChar

StartChar: lc_ascender_stem
Encoding: 65547 -1 292
Width: 1205
VWidth: 0
Flags: HW
PickledData: "(dp1
S'org.robofab.postScriptHintData'
p2
(dp3
sS'com.schriftgestaltung.Glyphs.Export'
p4
I00
sS'com.typemytype.robofont.layerData'
p5
(dp6
S'b'
(dp7
S'name'
p8
S'lc_descender_stem'
p9
sS'lib'
p10
(dp11
sS'unicodes'
p12
(tsS'width'
p13
I1170
sS'contours'
p14
(tsS'components'
p15
(tsS'anchors'
p16
(tsss."
LayerCount: 2
Fore
SplineSet
106 0 m 257
 539 0 l 257
 539 108 l 257
 408 108 l 257
 408 1174 l 257
 110 1174 l 257
 110 1066 l 257
 257 1066 l 257
 257 108 l 257
 106 108 l 257
 106 0 l 257
EndSplineSet
EndChar

StartChar: lc_ascender_stem_1
Encoding: 65548 -1 293
Width: 833
VWidth: 0
Flags: HW
PickledData: "(dp1
S'org.robofab.postScriptHintData'
p2
(dp3
sS'com.schriftgestaltung.Glyphs.Export'
p4
I00
sS'com.typemytype.robofont.layerData'
p5
(dp6
S'b'
(dp7
S'name'
p8
S'lc_ascender_stem_1'
p9
sS'lib'
p10
(dp11
sS'unicodes'
p12
(tsS'width'
p13
I1378
sS'contours'
p14
(tsS'components'
p15
(tsS'anchors'
p16
(tsss."
LayerCount: 2
Fore
SplineSet
109 0 m 257
 409 0 l 257
 409 1174 l 257
 113 1174 l 257
 113 1066 l 257
 257 1066 l 257
 257 108 l 257
 109 108 l 257
 109 0 l 257
EndSplineSet
EndChar

StartChar: lc_ascender_stem_2
Encoding: 65549 -1 294
Width: 833
VWidth: 0
Flags: HW
PickledData: "(dp1
S'org.robofab.postScriptHintData'
p2
(dp3
sS'com.schriftgestaltung.Glyphs.Export'
p4
I00
sS'com.typemytype.robofont.layerData'
p5
(dp6
S'b'
(dp7
S'name'
p8
S'lc_descender_stem'
p9
sS'lib'
p10
(dp11
sS'unicodes'
p12
(tsS'width'
p13
I1378
sS'contours'
p14
(tsS'components'
p15
(tsS'anchors'
p16
(tsss."
LayerCount: 2
Fore
SplineSet
257 0 m 257
 536 0 l 257
 536 108 l 257
 408 108 l 257
 408 1174 l 257
 113 1174 l 257
 113 1066 l 257
 257 1066 l 257
 257 0 l 257
EndSplineSet
EndChar

StartChar: lc_bowl_left
Encoding: 65550 -1 295
Width: 1235
VWidth: 0
Flags: HW
PickledData: "(dp1
S'org.robofab.postScriptHintData'
p2
(dp3
sS'com.schriftgestaltung.Glyphs.Export'
p4
I00
sS'com.typemytype.robofont.layerData'
p5
(dp6
S'b'
(dp7
S'name'
p8
S'lc_bowl_left'
p9
sS'lib'
p10
(dp11
sS'unicodes'
p12
(tsS'width'
p13
I1179
sS'contours'
p14
((dp15
S'points'
p16
((dp17
S'segmentType'
p18
S'line'
p19
sS'x'
I134
sS'smooth'
p20
I0
sS'y'
I121
s(dp21
S'y'
I36
sS'x'
I206
sg20
I0
s(dp22
S'y'
S'-16'
p23
sS'x'
I320
sg20
I0
s(dp24
g18
S'curve'
p25
sS'x'
I464
sg20
I1
sS'y'
S'-16'
p26
s(dp27
S'y'
S'-16'
p28
sS'x'
I739
sg20
I0
s(dp29
S'y'
I185
sS'x'
I886
sg20
I0
s(dp30
g18
S'curve'
p31
sS'x'
I886
sg20
I1
sS'y'
I387
s(dp32
S'y'
I573
sS'x'
I886
sg20
I0
s(dp33
S'y'
I817
sS'x'
I774
sg20
I0
s(dp34
g18
S'curve'
p35
sS'x'
I467
sg20
I1
sS'y'
I817
s(dp36
S'y'
I817
sS'x'
I309
sg20
I0
s(dp37
S'y'
I733
sS'x'
I179
sg20
I0
s(dp38
g18
S'curve'
p39
sS'x'
I134
sg20
I0
sS'y'
I684
s(dp40
g18
S'line'
p41
sS'x'
I134
sg20
I0
sS'y'
I618
s(dp42
S'y'
I725
sS'x'
I273
sg20
I0
s(dp43
S'y'
I753
sS'x'
I353
sg20
I0
s(dp44
g18
S'curve'
p45
sS'x'
I470
sg20
I1
sS'y'
I753
s(dp46
S'y'
I753
sS'x'
I701
sg20
I0
s(dp47
S'y'
I568
sS'x'
I810
sg20
I0
s(dp48
g18
S'curve'
p49
sS'x'
I810
sg20
I1
sS'y'
I395
s(dp50
S'y'
I204
sS'x'
I810
sg20
I0
s(dp51
S'y'
I48
sS'x'
I680
sg20
I0
s(dp52
g18
S'curve'
p53
sS'x'
I468
sg20
I1
sS'y'
I48
s(dp54
S'y'
I48
sS'x'
I346
sg20
I0
s(dp55
S'y'
I62
sS'x'
I263
sg20
I0
s(dp56
g18
S'curve'
p57
sS'x'
I134
sg20
I0
sS'y'
I194
stp58
stp59
sS'components'
p60
(tsS'anchors'
p61
(tsss."
LayerCount: 2
Fore
SplineSet
562 -22 m 256
 681 -22 809 30 898 127 c 257
 898 230 l 257
 814 143 696 93 593 93 c 256
 434 93 308 199 308 391 c 256
 308 599 421 711 576 711 c 256
 680 711 800 661 895 576 c 257
 895 678 l 257
 804 773 670 825 546 825 c 256
 331.58809096 825 149.995898575 675.819469752 149.995898575 403.245638382 c 0
 149.995898575 135.769807278 341.388438135 -22 562 -22 c 256
EndSplineSet
EndChar

StartChar: lc_bowl_right
Encoding: 65551 -1 296
Width: 1235
VWidth: 0
Flags: HW
PickledData: "(dp1
S'org.robofab.postScriptHintData'
p2
(dp3
sS'com.schriftgestaltung.Glyphs.Export'
p4
I00
sS'com.typemytype.robofont.layerData'
p5
(dp6
S'b'
(dp7
S'name'
p8
S'lc_bowl_right'
p9
sS'lib'
p10
(dp11
sS'unicodes'
p12
(tsS'width'
p13
I1179
sS'contours'
p14
((dp15
S'points'
p16
((dp17
S'segmentType'
p18
S'line'
p19
sS'x'
I268
sS'smooth'
p20
I0
sS'y'
I121
s(dp21
S'y'
I36
sS'x'
I340
sg20
I0
s(dp22
S'y'
S'-16'
p23
sS'x'
I454
sg20
I0
s(dp24
g18
S'curve'
p25
sS'x'
I598
sg20
I1
sS'y'
S'-16'
p26
s(dp27
S'y'
S'-16'
p28
sS'x'
I873
sg20
I0
s(dp29
S'y'
I185
sS'x'
I1020
sg20
I0
s(dp30
g18
S'curve'
p31
sS'x'
I1020
sg20
I1
sS'y'
I387
s(dp32
S'y'
I573
sS'x'
I1020
sg20
I0
s(dp33
S'y'
I817
sS'x'
I908
sg20
I0
s(dp34
g18
S'curve'
p35
sS'x'
I601
sg20
I1
sS'y'
I817
s(dp36
S'y'
I817
sS'x'
I443
sg20
I0
s(dp37
S'y'
I733
sS'x'
I313
sg20
I0
s(dp38
g18
S'curve'
p39
sS'x'
I268
sg20
I0
sS'y'
I684
s(dp40
g18
S'line'
p41
sS'x'
I268
sg20
I0
sS'y'
I618
s(dp42
S'y'
I725
sS'x'
I407
sg20
I0
s(dp43
S'y'
I753
sS'x'
I487
sg20
I0
s(dp44
g18
S'curve'
p45
sS'x'
I604
sg20
I1
sS'y'
I753
s(dp46
S'y'
I753
sS'x'
I835
sg20
I0
s(dp47
S'y'
I568
sS'x'
I944
sg20
I0
s(dp48
g18
S'curve'
p49
sS'x'
I944
sg20
I1
sS'y'
I395
s(dp50
S'y'
I204
sS'x'
I944
sg20
I0
s(dp51
S'y'
I48
sS'x'
I814
sg20
I0
s(dp52
g18
S'curve'
p53
sS'x'
I602
sg20
I1
sS'y'
I48
s(dp54
S'y'
I48
sS'x'
I480
sg20
I0
s(dp55
S'y'
I62
sS'x'
I397
sg20
I0
s(dp56
g18
S'curve'
p57
sS'x'
I268
sg20
I0
sS'y'
I194
stp58
stp59
sS'components'
p60
(tsS'anchors'
p61
(tsss."
LayerCount: 2
Fore
SplineSet
623 -21 m 256
 844.959867534 -21 1039.0168783 136.599722873 1039.0168783 415.498354764 c 0
 1039.0168783 679.650612083 863.778251752 825 648 825 c 256
 528 825 397 772 300 670 c 257
 314 562 l 257
 401 659 511 709 606 709 c 256
 764 709 882 598 882 401 c 256
 882 199 758 92 596 92 c 256
 497 92 389 142 312 233 c 257
 304 139 l 257
 382 33 503 -21 623 -21 c 256
EndSplineSet
EndChar

StartChar: lc_descender_stem
Encoding: 65552 -1 297
Width: 1202
VWidth: 0
Flags: HW
PickledData: "(dp1
S'org.robofab.postScriptHintData'
p2
(dp3
sS'com.schriftgestaltung.Glyphs.Export'
p4
I00
sS'com.typemytype.robofont.layerData'
p5
(dp6
S'b'
(dp7
S'name'
p8
S'lc_descender_stem'
p9
sS'lib'
p10
(dp11
sS'unicodes'
p12
(tsS'width'
p13
I1192
sS'contours'
p14
(tsS'components'
p15
(tsS'anchors'
p16
(tsss."
LayerCount: 2
Fore
SplineSet
78 -319 m 257
 531 -319 l 257
 531 -211 l 257
 373 -211 l 257
 373 618 l 257
 365 804 l 257
 83 804 l 257
 83 696 l 257
 223 696 l 257
 223 -211 l 257
 78 -211 l 257
 78 -319 l 257
EndSplineSet
EndChar

StartChar: lc_xheight_curved_stem
Encoding: 65553 -1 298
Width: 1208
VWidth: 0
Flags: HW
PickledData: "(dp1
S'org.robofab.postScriptHintData'
p2
(dp3
sS'com.schriftgestaltung.Glyphs.Export'
p4
I00
sS'com.typemytype.robofont.layerData'
p5
(dp6
S'b'
(dp7
S'name'
p8
S'lc_xheight_curved_stem'
p9
sS'lib'
p10
(dp11
sS'unicodes'
p12
(tsS'width'
p13
I1142
sS'contours'
p14
((dp15
S'points'
p16
((dp17
S'segmentType'
p18
S'line'
p19
sS'x'
I351
sS'smooth'
p20
I0
sS'y'
I643
s(dp21
S'y'
I715
sS'x'
I455
sg20
I0
s(dp22
S'y'
I756
sS'x'
I545
sg20
I0
s(dp23
g18
S'curve'
p24
sS'x'
I675
sg20
I1
sS'y'
I756
s(dp25
S'y'
I756
sS'x'
I821
sg20
I0
s(dp26
S'y'
I676
sS'x'
I849
sg20
I0
s(dp27
g18
S'curve'
p28
sS'x'
I849
sg20
I1
sS'y'
I577
s(dp29
g18
S'line'
p30
sS'x'
I849
sg20
I0
sS'y'
I58
s(dp31
g18
S'line'
p32
sS'x'
I688
sg20
I0
sS'y'
I58
s(dp33
g18
S'line'
p34
sS'x'
I688
sg20
I0
sS'y'
I0
s(dp35
g18
S'line'
p36
sS'x'
I1073
sg20
I0
sS'y'
I0
s(dp37
g18
S'line'
p38
sS'x'
I1073
sg20
I0
sS'y'
I58
s(dp39
g18
S'line'
p40
sS'x'
I924
sg20
I0
sS'y'
I58
s(dp41
g18
S'line'
p42
sS'x'
I924
sg20
I1
sS'y'
I592
s(dp43
S'y'
I697
sS'x'
I924
sg20
I0
s(dp44
S'y'
I820
sS'x'
I866
sg20
I0
s(dp45
g18
S'curve'
p46
sS'x'
I682
sg20
I1
sS'y'
I820
s(dp47
S'y'
I820
sS'x'
I557
sg20
I0
s(dp48
S'y'
I789
sS'x'
I468
sg20
I0
s(dp49
g18
S'curve'
p50
sS'x'
I348
sg20
I0
sS'y'
I709
stp51
stp52
sS'components'
p53
(tsS'anchors'
p54
(tsss."
LayerCount: 2
Fore
SplineSet
715 0 m 257
 1147 0 l 257
 1147 108 l 257
 999 108 l 257
 999 557 l 258
 999 731 880 826 735 826 c 256
 608 826 479 752 363 662 c 257
 363 554 l 257
 456 634 587 707 696 707 c 256
 791 707 849 642 849 528 c 258
 849 108 l 257
 715 108 l 257
 715 0 l 257
EndSplineSet
EndChar

StartChar: lc_xheight_stem
Encoding: 65554 -1 299
Width: 879
VWidth: 0
Flags: HW
PickledData: "(dp1
S'org.robofab.postScriptHintData'
p2
(dp3
sS'com.schriftgestaltung.Glyphs.Export'
p4
I00
sS'com.typemytype.robofont.layerData'
p5
(dp6
S'b'
(dp7
S'name'
p8
S'lc_xheight_stem'
p9
sS'lib'
p10
(dp11
sS'unicodes'
p12
(tsS'width'
p13
I1324
sS'contours'
p14
(tsS'components'
p15
(tsS'anchors'
p16
(tsss."
LayerCount: 2
Fore
SplineSet
122 0 m 257
 572 0 l 257
 572 108 l 257
 428 108 l 257
 428 340 428 572 428 804 c 257
 123 804 l 257
 123 696 l 257
 278 696 l 257
 278 108 l 257
 122 108 l 257
 122 0 l 257
EndSplineSet
EndChar

StartChar: less
Encoding: 60 60 303
Width: 1023
VWidth: 0
Flags: HW
PickledData: "(dp1
S'org.robofab.postScriptHintData'
p2
(dp3
sS'com.typemytype.robofont.layerData'
p4
(dp5
S'b'
(dp6
S'name'
p7
S'less'
p8
sS'lib'
p9
(dp10
sS'unicodes'
p11
(tsS'width'
p12
I896
sS'contours'
p13
(tsS'components'
p14
(tsS'anchors'
p15
(tsss."
LayerCount: 2
Fore
SplineSet
875 37 m 257
 875 173 l 257
 142 589 l 257
 875 1005 l 257
 875 1142 l 257
 -8 638 l 257
 -8 539 l 257
 875 37 l 257
EndSplineSet
EndChar

StartChar: lessequal
Encoding: 8804 8804 304
Width: 902
VWidth: 0
Flags: HW
PickledData: "(dp1
S'org.robofab.postScriptHintData'
p2
(dp3
sS'com.typemytype.robofont.layerData'
p4
(dp5
S'b'
(dp6
S'name'
p7
S'lessequal'
p8
sS'lib'
p9
(dp10
sS'unicodes'
p11
(tsS'width'
p12
I593
sS'contours'
p13
(tsS'components'
p14
(tsS'anchors'
p15
(tsss."
LayerCount: 2
Fore
SplineSet
817 204 m 257
 817 329 l 257
 193 664 l 257
 817 1002 l 257
 817 1128 l 257
 18 698 l 257
 18 632 l 257
 817 204 l 257
18 0 m 257
 817 0 l 257
 817 111 l 257
 18 111 l 257
 18 0 l 257
EndSplineSet
EndChar

StartChar: logicalnot
Encoding: 172 172 306
Width: 1034
VWidth: 0
Flags: HW
PickledData: "(dp1
S'org.robofab.postScriptHintData'
p2
(dp3
sS'com.typemytype.robofont.layerData'
p4
(dp5
S'b'
(dp6
S'name'
p7
S'logicalnot'
p8
sS'lib'
p9
(dp10
sS'unicodes'
p11
(tsS'width'
p12
I827
sS'contours'
p13
(tsS'components'
p14
(tsS'anchors'
p15
(tsss."
LayerCount: 2
Fore
SplineSet
791 322 m 257
 884 322 l 257
 884 796 l 257
 38 796 l 257
 38 686 l 257
 791 686 l 257
 791 322 l 257
EndSplineSet
EndChar

StartChar: lozenge
Encoding: 9674 9674 307
Width: 1080
VWidth: 0
Flags: HW
PickledData: "(dp1
S'org.robofab.postScriptHintData'
p2
(dp3
sS'com.typemytype.robofont.layerData'
p4
(dp5
S'b'
(dp6
S'name'
p7
S'lozenge'
p8
sS'lib'
p9
(dp10
sS'unicodes'
p11
(tsS'width'
p12
I948
sS'contours'
p13
(tsS'components'
p14
(tsS'anchors'
p15
(tsss."
LayerCount: 2
Fore
SplineSet
501 -10 m 257
 579 -10 l 257
 1039 601 l 257
 579 1202 l 257
 501 1202 l 257
 41 600 l 257
 501 -10 l 257
542 114 m 257
 196 601 l 257
 542 1074 l 257
 885 601 l 257
 542 114 l 257
EndSplineSet
EndChar

StartChar: lslash
Encoding: 322 322 308
Width: 521
VWidth: 0
Flags: HW
PickledData: "(dp1
S'org.robofab.postScriptHintData'
p2
(dp3
sS'com.typemytype.robofont.layerData'
p4
(dp5
S'b'
(dp6
S'name'
p7
S'lslash'
p8
sS'lib'
p9
(dp10
sS'unicodes'
p11
(tsS'width'
p12
I506
sS'contours'
p13
(tsS'components'
p14
(tsS'anchors'
p15
(tsss."
LayerCount: 2
Fore
SplineSet
49 393 m 257
 504 629 l 257
 504 759 l 257
 49 518 l 257
 49 393 l 257
EndSplineSet
Refer: 290 108 N 1 0 0 1 0 0 2
EndChar

StartChar: m
Encoding: 109 109 309
Width: 1612
VWidth: 0
Flags: HW
PickledData: "(dp1
S'org.robofab.postScriptHintData'
p2
(dp3
sS'com.typemytype.robofont.layerData'
p4
(dp5
S'b'
(dp6
S'name'
p7
S'm'
sS'lib'
p8
(dp9
sS'unicodes'
p10
(tsS'width'
p11
I1571
sS'contours'
p12
(tsS'components'
p13
(tsS'anchors'
p14
(tsss."
AnchorPoint: "top" 853 804 basechar 0
LayerCount: 2
Fore
SplineSet
45 0 m 1
 495 0 l 1
 495 108 l 1
 351 108 l 1
 351 618 l 1
 430 669 520 707 598 707 c 0
 693 707 751 642 751 528 c 2
 751 108 l 1
 617 108 l 1
 617 0 l 1
 1049 0 l 1
 1049 108 l 1
 901 108 l 1
 901 557 l 2
 901 575 900 593 897 610 c 1
 979 665 1074 707 1157 707 c 0
 1252 707 1310 642 1310 528 c 2
 1310 108 l 1
 1176 108 l 1
 1176 0 l 1
 1608 0 l 1
 1608 108 l 1
 1460 108 l 1
 1460 557 l 2
 1460 731 1341 826 1196 826 c 0
 1085 826 973 770 869 696 c 1
 824 781 737 826 637 826 c 0
 541 826 443 784 351 724 c 1
 351 804 l 1
 46 804 l 1
 46 696 l 1
 201 696 l 1
 201 108 l 1
 45 108 l 1
 45 0 l 1
EndSplineSet
EndChar

StartChar: macron
Encoding: 175 175 310
Width: 368
VWidth: 0
Flags: HW
PickledData: "(dp1
S'org.robofab.postScriptHintData'
p2
(dp3
sS'com.typemytype.robofont.layerData'
p4
(dp5
S'b'
(dp6
S'name'
p7
S'macron'
p8
sS'lib'
p9
(dp10
sS'unicodes'
p11
(tsS'width'
p12
I316
sS'contours'
p13
(tsS'components'
p14
(tsS'anchors'
p15
(tsss."
AnchorPoint: "top" 194 804 mark 0
LayerCount: 2
Fore
SplineSet
-30 943 m 257
 400 943 l 257
 400 1035 l 257
 -30 1035 l 257
 -30 943 l 257
EndSplineSet
EndChar

StartChar: minus
Encoding: 8722 8722 313
Width: 925
VWidth: 0
Flags: HW
PickledData: "(dp1
S'org.robofab.postScriptHintData'
p2
(dp3
sS'com.typemytype.robofont.layerData'
p4
(dp5
S'b'
(dp6
S'name'
p7
S'minus'
p8
sS'lib'
p9
(dp10
sS'unicodes'
p11
(tsS'width'
p12
I912
sS'contours'
p13
(tsS'components'
p14
(tsS'anchors'
p15
(tsss."
LayerCount: 2
Fore
SplineSet
97 472 m 257
 828 472 l 257
 828 585 l 257
 97 585 l 257
 97 472 l 257
EndSplineSet
EndChar

StartChar: mu
Encoding: 956 956 314
Width: 1045
VWidth: 0
Flags: HW
PickledData: "(dp1
S'org.robofab.postScriptHintData'
p2
(dp3
s."
LayerCount: 2
Fore
SplineSet
158 -277 m 257
 310 -277 l 257
 310 406 l 257
 158 406 l 257
 158 -277 l 257
EndSplineSet
Refer: 408 117 N 1 0 0 1 0 0 2
EndChar

StartChar: multiply
Encoding: 215 215 315
Width: 853
VWidth: 0
Flags: HW
PickledData: "(dp1
S'org.robofab.postScriptHintData'
p2
(dp3
sS'com.typemytype.robofont.layerData'
p4
(dp5
S'b'
(dp6
S'name'
p7
S'multiply'
p8
sS'lib'
p9
(dp10
sS'unicodes'
p11
(tsS'width'
p12
I520
sS'contours'
p13
(tsS'components'
p14
(tsS'anchors'
p15
(tsss."
LayerCount: 2
Fore
SplineSet
681 213 m 257
 755 288 l 257
 503 537 l 257
 759 791 l 257
 688 864 l 257
 429 611 l 257
 176 860 l 257
 101 786 l 257
 355 535 l 257
 98 283 l 257
 170 210 l 257
 427 463 l 257
 681 213 l 257
EndSplineSet
EndChar

StartChar: n
Encoding: 110 110 316
Width: 1058
VWidth: 0
Flags: HW
PickledData: "(dp1
S'org.robofab.postScriptHintData'
p2
(dp3
sS'com.typemytype.robofont.layerData'
p4
(dp5
S'b'
(dp6
S'name'
p7
S'n'
sS'lib'
p8
(dp9
sS'unicodes'
p10
(tsS'width'
p11
I1010
sS'contours'
p12
(tsS'components'
p13
(tsS'anchors'
p14
(tsss."
AnchorPoint: "bot" 571 0 basechar 0
AnchorPoint: "top" 590 804 basechar 0
LayerCount: 2
Fore
SplineSet
45 0 m 1
 495 0 l 1
 495 108 l 1
 351 108 l 1
 351 615 l 1
 431 668 523 707 603 707 c 0
 698 707 756 642 756 528 c 2
 756 108 l 1
 622 108 l 1
 622 0 l 1
 1054 0 l 1
 1054 108 l 1
 906 108 l 1
 906 557 l 2
 906 731 787 826 642 826 c 0
 544 826 445 782 351 720 c 1
 351 804 l 1
 46 804 l 1
 46 696 l 1
 201 696 l 1
 201 108 l 1
 45 108 l 1
 45 0 l 1
EndSplineSet
EndChar

StartChar: nine
Encoding: 57 57 321
Width: 941
VWidth: 0
Flags: HW
PickledData: "(dp1
S'org.robofab.postScriptHintData'
p2
(dp3
sS'com.typemytype.robofont.layerData'
p4
(dp5
S'b'
(dp6
S'name'
p7
S'nine'
p8
sS'lib'
p9
(dp10
sS'unicodes'
p11
(tsS'width'
p12
I830
sS'contours'
p13
(tsS'components'
p14
(tsS'anchors'
p15
(tsss."
LayerCount: 2
Fore
SplineSet
411 -98 m 257
 770 450 l 257
 854 573 876 681 876 803 c 256
 876 1024 703 1174 467 1174 c 256
 219 1174 72 1015 72 780 c 256
 72 565 238 425 430 425 c 256
 550 425 626 489 645 508 c 257
 289 -15 l 257
 411 -98 l 257
453 536 m 256
 302 536 214 638 214 791 c 256
 214 949 309 1058 463 1058 c 256
 631 1058 716 942 716 798 c 256
 716 630 593 536 453 536 c 256
EndSplineSet
EndChar

StartChar: notequal
Encoding: 8800 8800 323
Width: 1039
VWidth: 0
Flags: HW
PickledData: "(dp1
S'org.robofab.postScriptHintData'
p2
(dp3
sS'com.typemytype.robofont.layerData'
p4
(dp5
S'b'
(dp6
S'name'
p7
S'notequal'
p8
sS'lib'
p9
(dp10
sS'unicodes'
p11
(tsS'width'
p12
I570
sS'contours'
p13
(tsS'components'
p14
(tsS'anchors'
p15
(tsss."
LayerCount: 2
Fore
SplineSet
352 26 m 257
 463 26 l 257
 515 228 l 257
 928 228 l 257
 928 337 l 257
 543 337 l 257
 600 549 l 257
 918 549 l 257
 918 659 l 257
 630 659 l 257
 685 860 l 257
 577 860 l 257
 521 659 l 257
 107 659 l 257
 107 549 l 257
 490 549 l 257
 432 337 l 257
 117 337 l 257
 117 228 l 257
 404 228 l 257
 352 26 l 257
EndSplineSet
EndChar

StartChar: numbersign
Encoding: 35 35 325
Width: 1133
VWidth: 0
Flags: HW
PickledData: "(dp1
S'org.robofab.postScriptHintData'
p2
(dp3
sS'com.typemytype.robofont.layerData'
p4
(dp5
S'b'
(dp6
S'name'
p7
S'numbersign'
p8
sS'lib'
p9
(dp10
sS'unicodes'
p11
(tsS'width'
p12
I917
sS'contours'
p13
(tsS'components'
p14
(tsS'anchors'
p15
(tsss."
LayerCount: 2
Fore
SplineSet
190 -8 m 257
 310 -8 l 257
 360 352 l 257
 691 352 l 257
 642 -8 l 257
 763 -8 l 257
 812 352 l 257
 1045 352 l 257
 1045 455 l 257
 831 455 l 257
 872 765 l 257
 1065 765 l 257
 1065 870 l 257
 890 870 l 257
 939 1211 l 257
 817 1211 l 257
 769 870 l 257
 439 870 l 257
 487 1211 l 257
 365 1211 l 257
 318 870 l 257
 93 870 l 257
 93 765 l 257
 298 765 l 257
 258 455 l 257
 72 455 l 257
 71 352 l 257
 238 352 l 257
 190 -8 l 257
378 455 m 257
 419 765 l 257
 750 765 l 257
 709 455 l 257
 378 455 l 257
EndSplineSet
EndChar

StartChar: o
Encoding: 111 111 326
Width: 976
VWidth: 0
Flags: HW
PickledData: "(dp1
S'org.robofab.postScriptHintData'
p2
(dp3
sS'com.typemytype.robofont.layerData'
p4
(dp5
S'b'
(dp6
S'name'
p7
S'o'
sS'lib'
p8
(dp9
sS'unicodes'
p10
(tsS'width'
p11
I986
sS'contours'
p12
(tsS'components'
p13
(tsS'anchors'
p14
(tsss."
AnchorPoint: "top" 485 804 basechar 0
LayerCount: 2
Fore
SplineSet
486 -22 m 0
 743 -22 925 155 925 405 c 0
 925 652 744 826 488 826 c 0
 232 826 51 651 51 405 c 0
 51 154 231 -22 486 -22 c 0
487 97 m 0
 323 97 207 224 207 404 c 0
 207 581 323 707 486 707 c 0
 651 707 768 582 768 405 c 0
 768 225 651 97 487 97 c 0
EndSplineSet
EndChar

StartChar: oe
Encoding: 339 339 331
Width: 1724
VWidth: 0
Flags: HW
PickledData: "(dp1
S'org.robofab.postScriptHintData'
p2
(dp3
sS'com.typemytype.robofont.layerData'
p4
(dp5
S'b'
(dp6
S'name'
p7
S'oe'
p8
sS'lib'
p9
(dp10
sS'unicodes'
p11
(tsS'width'
p12
I1961
sS'contours'
p13
(tsS'components'
p14
(tsS'anchors'
p15
(tsss."
LayerCount: 2
Fore
SplineSet
511 -22 m 256
 672 -22 799 55 868 176 c 257
 940 51 1075 -22 1235 -22 c 256
 1386 -22 1515 31 1596 127 c 257
 1520 207 l 257
 1453 136 1342 89 1241 89 c 256
 1069 89 953 198 943 369 c 257
 1612 369 l 257
 1609 649 1464 826 1223 826 c 256
 1076 826 943 755 871 625 c 257
 801 750 672 826 513 826 c 256
 261 826 83 648 83 401 c 256
 83 156 256 -22 511 -22 c 256
512 92 m 256
 343 92 232 219 232 401 c 256
 232 582 341 709 511 709 c 256
 682 709 793 582 793 402 c 256
 793 219 681 92 512 92 c 256
945 458 m 257
 962 614 1064 715 1222 715 c 256
 1366 715 1454 619 1473 458 c 257
 945 458 l 257
EndSplineSet
EndChar

StartChar: ogonek
Encoding: 731 731 332
Width: 458
VWidth: 0
Flags: HW
PickledData: "(dp1
S'org.robofab.postScriptHintData'
p2
(dp3
sS'com.typemytype.robofont.layerData'
p4
(dp5
S'b'
(dp6
S'name'
p7
S'ogonek'
p8
sS'lib'
p9
(dp10
sS'unicodes'
p11
(tsS'width'
p12
I390
sS'contours'
p13
(tsS'components'
p14
(tsS'anchors'
p15
(tsss."
LayerCount: 2
Fore
SplineSet
283 -340 m 256
 327 -340 362 -329 410 -302 c 257
 410 -220 l 257
 379 -237 351 -245 320 -245 c 256
 259 -245 224 -210 224 -141 c 256
 224 -96 242 -46 288 6 c 257
 198 6 l 257
 141 -66 119 -128 119 -182 c 256
 119 -277 190 -340 283 -340 c 256
EndSplineSet
EndChar

StartChar: one
Encoding: 49 49 336
Width: 673
VWidth: 0
Flags: HW
PickledData: "(dp1
S'org.robofab.postScriptHintData'
p2
(dp3
sS'com.typemytype.robofont.layerData'
p4
(dp5
S'b'
(dp6
S'name'
p7
S'one'
p8
sS'lib'
p9
(dp10
sS'unicodes'
p11
(tsS'width'
p12
I559
sS'contours'
p13
(tsS'components'
p14
(tsS'anchors'
p15
(tsss."
LayerCount: 2
Fore
SplineSet
123 0 m 257
 606 0 l 257
 606 109 l 257
 444 109 l 257
 444 1153 l 257
 117 1099 l 257
 121 991 l 257
 294 1019 l 257
 294 109 l 257
 123 109 l 257
 123 0 l 257
EndSplineSet
EndChar

StartChar: onehalf
Encoding: 189 189 337
Width: 1983
VWidth: 0
Flags: HW
PickledData: "(dp1
S'org.robofab.postScriptHintData'
p2
(dp3
s."
LayerCount: 2
Fore
SplineSet
1277 0 m 257
 1840 0 l 257
 1838 234 l 257
 1752 234 l 257
 1752 80 l 257
 1407 80 l 257
 1622 285 l 257
 1719 376 1818 472 1818 589 c 256
 1818 734 1717 822 1551 822 c 256
 1367 822 1265 713 1265 571 c 256
 1265 540 1269 509 1279 477 c 257
 1376 477 l 257
 1369 506 1366 533 1366 558 c 256
 1366 666 1430 738 1551 738 c 256
 1663.23388641 738 1712.08702097 670.627005157 1712.08702097 583.295463249 c 0
 1712.08702097 504.126933713 1638.33226371 431.40983284 1554 351 c 258
 1277 83 l 257
 1277 0 l 257
196 344 m 257
 544 344 l 257
 544 424 l 257
 427 424 l 257
 427 1152 l 257
 190 1127 l 257
 190 1047 l 257
 318 1057 l 257
 318 424 l 257
 196 424 l 257
 196 344 l 257
506 -35 m 257
 611 -35 l 257
 1420 1222 l 257
 1318 1222 l 257
 506 -35 l 257
EndSplineSet
EndChar

StartChar: onequarter
Encoding: 188 188 338
Width: 1883
VWidth: 0
Flags: HW
PickledData: "(dp1
S'org.robofab.postScriptHintData'
p2
(dp3
sS'com.typemytype.robofont.layerData'
p4
(dp5
S'b'
(dp6
S'name'
p7
S'onequarter'
p8
sS'lib'
p9
(dp10
sS'unicodes'
p11
(tsS'width'
p12
I1395
sS'contours'
p13
(tsS'components'
p14
(tsS'anchors'
p15
(tsss."
LayerCount: 2
Fore
SplineSet
1378 0 m 257
 1692 0 l 257
 1692 80 l 257
 1593 80 l 257
 1593 245 l 257
 1712 245 l 257
 1712 323 l 257
 1593 323 l 257
 1593 814 l 257
 1490 814 l 257
 1137 334 l 257
 1150 245 l 257
 1491 245 l 257
 1491 80 l 257
 1378 80 l 257
 1378 0 l 257
196 344 m 257
 544 344 l 257
 544 424 l 257
 427 424 l 257
 427 1152 l 257
 189 1127 l 257
 190 1047 l 257
 317 1057 l 257
 317 424 l 257
 196 424 l 257
 196 344 l 257
504 -35 m 257
 608 -35 l 257
 1417 1222 l 257
 1316 1222 l 257
 504 -35 l 257
1231 323 m 257
 1491 682 l 257
 1491 323 l 257
 1231 323 l 257
EndSplineSet
EndChar

StartChar: onesuperior
Encoding: 185 185 339
Width: 843
VWidth: 0
Flags: HW
PickledData: "(dp1
S'org.robofab.postScriptHintData'
p2
(dp3
sS'com.typemytype.robofont.layerData'
p4
(dp5
S'b'
(dp6
S'name'
p7
S'uni00B9'
p8
sS'lib'
p9
(dp10
sS'unicodes'
p11
(tsS'width'
p12
I531
sS'contours'
p13
(tsS'components'
p14
(tsS'anchors'
p15
(tsss."
LayerCount: 2
Fore
SplineSet
212 535 m 257
 614 535 l 257
 614 616 l 257
 471 616 l 257
 471 1335 l 257
 219 1300 l 257
 222 1220 l 257
 360 1237 l 257
 360 616 l 257
 212 616 l 257
 212 535 l 257
EndSplineSet
EndChar

StartChar: ordfeminine
Encoding: 170 170 340
Width: 786
VWidth: 0
Flags: HW
PickledData: "(dp1
S'org.robofab.postScriptHintData'
p2
(dp3
sS'com.typemytype.robofont.layerData'
p4
(dp5
S'b'
(dp6
S'name'
p7
S'ordfeminine'
p8
sS'lib'
p9
(dp10
sS'unicodes'
p11
(tsS'width'
p12
I801
sS'contours'
p13
(tsS'components'
p14
(tsS'anchors'
p15
(tsss."
LayerCount: 2
Fore
SplineSet
308 499 m 256
 398 499 470 526 525 573 c 257
 531 514 l 257
 752 514 l 257
 752 604 l 257
 647 604 l 257
 647 949 l 258
 647 1084 547 1174 374 1174 c 256
 285 1174 179 1150 108 1096 c 257
 149 1014 l 257
 217 1059 309 1078 369 1078 c 256
 466 1078 520 1031 520 938 c 258
 520 874 l 257
 465 884 410 891 355 891 c 256
 207 891 83 840 83 690 c 256
 83 587 165 499 308 499 c 256
325 587 m 256
 249 587 206 632 206 697 c 256
 206 791 283 813 366 813 c 256
 431 813 481 805 520 797 c 257
 520 658 l 257
 466 612 393 587 325 587 c 256
EndSplineSet
EndChar

StartChar: ordmasculine
Encoding: 186 186 341
Width: 902
VWidth: 0
Flags: HW
PickledData: "(dp1
S'org.robofab.postScriptHintData'
p2
(dp3
sS'com.typemytype.robofont.layerData'
p4
(dp5
S'b'
(dp6
S'name'
p7
S'ordmasculine'
p8
sS'lib'
p9
(dp10
sS'unicodes'
p11
(tsS'width'
p12
I809
sS'contours'
p13
(tsS'components'
p14
(tsS'anchors'
p15
(tsss."
LayerCount: 2
Fore
SplineSet
453 496 m 256
 652 496 801 628 801 837 c 256
 801 1043 653 1174 455 1174 c 256
 257 1174 108 1043 108 837 c 256
 108 628 256 496 453 496 c 256
454 598 m 256
 336 598 241 686 241 836 c 256
 241 984 336 1072 453 1072 c 256
 573 1072 667 985 667 837 c 256
 667 687 573 598 454 598 c 256
EndSplineSet
EndChar

StartChar: oslash
Encoding: 248 248 342
Width: 987
VWidth: 0
Flags: HW
PickledData: "(dp1
S'org.robofab.postScriptHintData'
p2
(dp3
sS'com.typemytype.robofont.layerData'
p4
(dp5
S'b'
(dp6
S'name'
p7
S'oslash'
p8
sS'lib'
p9
(dp10
sS'unicodes'
p11
(tsS'width'
p12
I1023
sS'contours'
p13
(tsS'components'
p14
(tsS'anchors'
p15
(tsss."
LayerCount: 2
Fore
SplineSet
249 -142 m 257
 822 916 l 257
 750 951 l 257
 178 -107 l 257
 249 -142 l 257
EndSplineSet
Refer: 326 111 N 1 0 0 1 0 0 2
EndChar

StartChar: p
Encoding: 112 112 345
Width: 1048
VWidth: 0
Flags: HW
PickledData: "(dp1
S'org.robofab.postScriptHintData'
p2
(dp3
sS'com.typemytype.robofont.layerData'
p4
(dp5
S'b'
(dp6
S'name'
p7
S'p'
sS'lib'
p8
(dp9
sS'unicodes'
p10
(tsS'width'
p11
I1037
sS'contours'
p12
(tsS'components'
p13
(tsS'anchors'
p14
(tsss."
AnchorPoint: "top" 569 804 basechar 0
LayerCount: 2
Fore
SplineSet
39 -319 m 1
 492 -319 l 1
 492 -211 l 1
 334 -211 l 1
 334 62 l 1
 405 7 492 -21 578 -21 c 0
 799.959867534 -21 994.016878304 136.599722873 994.016878304 415.498354764 c 0
 994.016878304 679.650612083 818.778251752 825 603 825 c 0
 511 825 413 794 329 734 c 1
 326 804 l 1
 44 804 l 1
 44 696 l 1
 184 696 l 1
 184 -211 l 1
 39 -211 l 1
 39 -319 l 1
334 169 m 1
 334 320.333333333 334 471.666666667 334 623 c 1
 407 680 488 709 561 709 c 0
 719 709 837 598 837 401 c 0
 837 199 713 92 551 92 c 0
 478 92 401 119 334 169 c 1
EndSplineSet
EndChar

StartChar: paragraph
Encoding: 182 182 346
Width: 1090
VWidth: 0
Flags: HW
PickledData: "(dp1
S'org.robofab.postScriptHintData'
p2
(dp3
sS'com.typemytype.robofont.layerData'
p4
(dp5
S'b'
(dp6
S'name'
p7
S'paragraph'
p8
sS'lib'
p9
(dp10
sS'unicodes'
p11
(tsS'width'
p12
I953
sS'contours'
p13
(tsS'components'
p14
(tsS'anchors'
p15
(tsss."
LayerCount: 2
Fore
SplineSet
500 -6 m 257
 1014 -6 l 257
 1014 104 l 257
 867 104 l 257
 867 1047 l 257
 1013 1047 l 257
 1013 1152 l 257
 489 1152 l 258
 227 1152 121 999 121 833 c 256
 121 666.532637029 241.229385603 510.995218204 463.859838013 510.995218204 c 0
 464.57217718 510.995218204 465.285564704 510.996810557 466 511 c 258
 719 511 l 257
 719 104 l 257
 500 104 l 257
 500 -6 l 257
525 625 m 257
 525 1047 l 257
 719 1047 l 257
 719 625 l 257
 525 625 l 257
EndSplineSet
EndChar

StartChar: parenleft
Encoding: 40 40 347
Width: 567
VWidth: 0
Flags: HW
PickledData: "(dp1
S'org.robofab.postScriptHintData'
p2
(dp3
sS'com.typemytype.robofont.layerData'
p4
(dp5
S'b'
(dp6
S'name'
p7
S'parenleft'
p8
sS'lib'
p9
(dp10
sS'unicodes'
p11
(tsS'width'
p12
I500
sS'contours'
p13
(tsS'components'
p14
(tsS'anchors'
p15
(tsss."
LayerCount: 2
Fore
SplineSet
502 -121 m 257
 503 -22 l 257
 353 55 277 291 277 528 c 256
 277 763 353 1000 503 1076 c 257
 502 1173 l 257
 231 1066 94 795 94 525 c 256
 94 255 230 -15 502 -121 c 257
EndSplineSet
EndChar

StartChar: parenright
Encoding: 41 41 348
Width: 567
VWidth: 0
Flags: HW
PickledData: "(dp1
S'org.robofab.postScriptHintData'
p2
(dp3
sS'com.typemytype.robofont.layerData'
p4
(dp5
S'b'
(dp6
S'name'
p7
S'parenright'
p8
sS'lib'
p9
(dp10
sS'unicodes'
p11
(tsS'width'
p12
I501
sS'contours'
p13
(tsS'components'
p14
(tsS'anchors'
p15
(tsss."
LayerCount: 2
Fore
SplineSet
113 -121 m 257
 386 -15 522 255 522 525 c 256
 522 795 385 1066 113 1173 c 257
 113 1076 l 257
 263 1000 339 763 339 528 c 256
 339 291 263 55 113 -22 c 257
 113 -121 l 257
EndSplineSet
EndChar

StartChar: partialdiff
Encoding: 8706 8706 349
Width: 1010
VWidth: 0
Flags: HW
PickledData: "(dp1
S'org.robofab.postScriptHintData'
p2
(dp3
s."
LayerCount: 2
Fore
SplineSet
401 -20 m 256
 751 -20 875 396 875 692 c 256
 875 1016 748 1213 496 1213 c 256
 339 1213 246 1143 246 1045 c 256
 246 987 285 944 383 944 c 257
 383 1042 451 1127 561 1127 c 256
 708.155001607 1127 792.600462677 881.112591055 792.600462677 650.168819571 c 0
 792.600462677 626.871209029 791.741080058 603.725676553 790 581 c 257
 808 586 l 257
 783 667 704 741 561 741 c 256
 243 741 120 442 120 264 c 256
 120 116 190 -20 401 -20 c 256
469 67 m 256
 359 67 312 147 312 256 c 256
 312 400 392 659 601 659 c 256
 692 659 757 613 780 522 c 257
 751 295 629 67 469 67 c 256
EndSplineSet
EndChar

StartChar: percent
Encoding: 37 37 351
Width: 1692
VWidth: 0
Flags: HW
PickledData: "(dp1
S'org.robofab.postScriptHintData'
p2
(dp3
sS'com.typemytype.robofont.layerData'
p4
(dp5
S'b'
(dp6
S'name'
p7
S'percent'
p8
sS'lib'
p9
(dp10
sS'unicodes'
p11
(tsS'width'
p12
I1578
sS'contours'
p13
(tsS'components'
p14
(tsS'anchors'
p15
(tsss."
LayerCount: 2
Fore
SplineSet
412 687 m 256
 301 688 218 773 218 888 c 256
 218 1003 301 1086 412 1087 c 256
 526 1086 609 1003 609 888 c 256
 609 773 526 688 412 687 c 256
412 596 m 256
 587 596 716 720 716 888 c 256
 716 1054 587 1176 412 1176 c 256
 239 1176 111 1054 111 888 c 256
 111 720 239 596 412 596 c 256
375 -57 m 257
 1402 1176 l 257
 1331 1236 l 257
 301 9 l 257
 375 -57 l 257
1293 69 m 256
 1181 70 1098 154 1098 270 c 256
 1098 385 1181 468 1293 469 c 256
 1406 468 1489 385 1489 270 c 256
 1489 154 1406 70 1293 69 c 256
1293 -22 m 256
 1467 -22 1596 102 1596 270 c 256
 1596 436 1467 558 1293 558 c 256
 1119 558 991 436 991 270 c 256
 991 102 1119 -22 1293 -22 c 256
EndSplineSet
EndChar

StartChar: period
Encoding: 46 46 352
Width: 523
VWidth: 0
Flags: HW
PickledData: "(dp1
S'org.robofab.postScriptHintData'
p2
(dp3
sS'com.typemytype.robofont.layerData'
p4
(dp5
S'b'
(dp6
S'name'
p7
S'period'
p8
sS'lib'
p9
(dp10
sS'unicodes'
p11
(tsS'width'
p12
I452
sS'contours'
p13
(tsS'components'
p14
(tsS'anchors'
p15
(tsss."
LayerCount: 2
Fore
SplineSet
167 0 m 257
 361 0 l 257
 361 192 l 257
 167 192 l 257
 167 0 l 257
EndSplineSet
EndChar

StartChar: periodcentered
Encoding: 183 183 353
Width: 538
VWidth: 0
Flags: HW
PickledData: "(dp1
S'org.robofab.postScriptHintData'
p2
(dp3
sS'com.typemytype.robofont.layerData'
p4
(dp5
S'b'
(dp6
S'name'
p7
S'periodcentered'
p8
sS'lib'
p9
(dp10
sS'unicodes'
p11
(tsS'width'
p12
I453
sS'contours'
p13
(tsS'components'
p14
(tsS'anchors'
p15
(tsss."
LayerCount: 2
Fore
SplineSet
277 448 m 256
 340 448 388 493 388 553 c 256
 388 610 340 656 277 656 c 256
 216 656 168 610 168 553 c 256
 168 493 216 448 277 448 c 256
EndSplineSet
EndChar

StartChar: perthousand
Encoding: 8240 8240 354
Width: 2414
VWidth: 0
Flags: HW
PickledData: "(dp1
S'org.robofab.postScriptHintData'
p2
(dp3
s."
LayerCount: 2
Fore
SplineSet
2017 -22 m 256
 2192 -22 2320 102 2320 270 c 256
 2320 436 2192 558 2017 558 c 256
 1843 558 1715 436 1715 270 c 256
 1715 102 1843 -22 2017 -22 c 256
2017 69 m 256
 1905 70 1822 154 1822 270 c 256
 1822 385 1905 468 2017 469 c 256
 2130 468 2213 385 2213 270 c 256
 2213 154 2130 70 2017 69 c 256
EndSplineSet
Refer: 351 37 N 1 0 0 1 0 0 2
EndChar

StartChar: pi
Encoding: 960 960 355
Width: 1164
VWidth: 0
Flags: HW
PickledData: "(dp1
S'org.robofab.postScriptHintData'
p2
(dp3
s."
LayerCount: 2
Fore
SplineSet
898 -16 m 256
 946 -16 1000 -2 1044 24 c 257
 1044 102 l 257
 1011 92 978 86 950 86 c 256
 875 86 827 129 827 232 c 256
 827 322 845 493 866 651 c 257
 1061 651 l 257
 1061 804 l 257
 358 804 l 258
 202 804 142 682 142 541 c 257
 217 541 l 257
 223 612 255 651 313 651 c 258
 394 651 l 257
 337 276 l 257
 312 121 240 66 147 66 c 257
 147 -1 l 257
 388 -1 455 71 468 242 c 258
 501 651 l 257
 780 651 l 257
 736 499 690 325 690 208 c 256
 690 67 747 -16 898 -16 c 256
EndSplineSet
EndChar

StartChar: plus
Encoding: 43 43 356
Width: 932
VWidth: 0
Flags: HW
PickledData: "(dp1
S'org.robofab.postScriptHintData'
p2
(dp3
sS'com.typemytype.robofont.layerData'
p4
(dp5
S'b'
(dp6
S'name'
p7
S'plus'
p8
sS'lib'
p9
(dp10
sS'unicodes'
p11
(tsS'width'
p12
I690
sS'contours'
p13
(tsS'components'
p14
(tsS'anchors'
p15
(tsss."
LayerCount: 2
Fore
SplineSet
411 115 m 257
 534 115 l 257
 534 520 l 257
 892 520 l 257
 892 637 l 257
 534 637 l 257
 534 1036 l 257
 411 1036 l 257
 411 637 l 257
 52 637 l 257
 52 520 l 257
 411 520 l 257
 411 115 l 257
EndSplineSet
EndChar

StartChar: plusminus
Encoding: 177 177 357
Width: 884
VWidth: 0
Flags: HW
PickledData: "(dp1
S'org.robofab.postScriptHintData'
p2
(dp3
sS'com.typemytype.robofont.layerData'
p4
(dp5
S'b'
(dp6
S'name'
p7
S'plusminus'
p8
sS'lib'
p9
(dp10
sS'unicodes'
p11
(tsS'width'
p12
I659
sS'contours'
p13
(tsS'components'
p14
(tsS'anchors'
p15
(tsss."
LayerCount: 2
Fore
SplineSet
385 228 m 257
 499 228 l 257
 499 605 l 257
 860 605 l 257
 860 720 l 257
 499 720 l 257
 499 1092 l 257
 385 1092 l 257
 385 720 l 257
 25 720 l 257
 25 605 l 257
 385 605 l 257
 385 228 l 257
24 0 m 257
 859 0 l 257
 859 113 l 257
 24 113 l 257
 24 0 l 257
EndSplineSet
EndChar

StartChar: product
Encoding: 8719 8719 358
Width: 1425
VWidth: 0
Flags: HW
PickledData: "(dp1
S'org.robofab.postScriptHintData'
p2
(dp3
sS'com.typemytype.robofont.layerData'
p4
(dp5
S'b'
(dp6
S'name'
p7
S'product'
p8
sS'lib'
p9
(dp10
sS'unicodes'
p11
(tsS'width'
p12
I1305
sS'contours'
p13
(tsS'components'
p14
(tsS'anchors'
p15
(tsss."
LayerCount: 2
Fore
SplineSet
119 0 m 257
 589 0 l 257
 589 110 l 257
 437 110 l 257
 437 1044 l 257
 989 1044 l 257
 989 110 l 257
 836 110 l 257
 836 0 l 257
 1307 0 l 257
 1307 110 l 257
 1154 110 l 257
 1154 1044 l 257
 1307 1044 l 257
 1307 1152 l 257
 119 1152 l 257
 119 1044 l 257
 271 1044 l 257
 271 110 l 257
 119 110 l 257
 119 0 l 257
EndSplineSet
EndChar

StartChar: q
Encoding: 113 113 359
Width: 1086
VWidth: 0
Flags: HW
PickledData: "(dp1
S'org.robofab.postScriptHintData'
p2
(dp3
sS'com.typemytype.robofont.layerData'
p4
(dp5
S'b'
(dp6
S'name'
p7
S'q'
sS'lib'
p8
(dp9
sS'unicodes'
p10
(tsS'width'
p11
I1049
sS'contours'
p12
(tsS'components'
p13
(tsS'anchors'
p14
(tsss."
LayerCount: 2
Fore
SplineSet
590 -330 m 1
 1043 -330 l 1
 1043 -216 l 1
 899 -216 l 1
 899 696 l 1
 1040 696 l 1
 1040 804 l 1
 750 804 l 1
 748 725 l 1
 662 790 554 825 452 825 c 0
 237.58809096 825 55.9958985747 675.819469752 55.9958985747 403.245638382 c 0
 55.9958985747 135.769807278 247.388438135 -22 468 -22 c 0
 563 -22 665 12 747 75 c 1
 747 -216 l 1
 590 -216 l 1
 590 -330 l 1
747 619 m 1
 747 180 l 1
 671 124 580 93 499 93 c 0
 340 93 214 199 214 391 c 0
 214 599 327 711 482 711 c 0
 567 711 663 678 747 619 c 1
EndSplineSet
EndChar

StartChar: question
Encoding: 63 63 360
Width: 784
VWidth: 0
Flags: HW
PickledData: "(dp1
S'org.robofab.postScriptHintData'
p2
(dp3
sS'com.typemytype.robofont.layerData'
p4
(dp5
S'b'
(dp6
S'name'
p7
S'question'
p8
sS'lib'
p9
(dp10
sS'unicodes'
p11
(tsS'width'
p12
I629
sS'contours'
p13
(tsS'components'
p14
(tsS'anchors'
p15
(tsss."
LayerCount: 2
Fore
SplineSet
302 322 m 257
 406 322 l 257
 440 710 738 606 738 912 c 256
 738 1097 594 1215 396 1215 c 256
 212 1215 50 1135 45 907 c 257
 175 907 l 257
 184 1044 257 1110 397 1110 c 256
 518 1110 602 1032 602 912 c 256
 602 677 314 772 302 322 c 257
356 -15 m 256
 419 -15 468 31 468 91 c 256
 468 149 419 195 356 195 c 256
 294 195 245 149 245 91 c 256
 245 31 294 -15 356 -15 c 256
EndSplineSet
EndChar

StartChar: quotedbl
Encoding: 34 34 362
Width: 720
VWidth: 0
Flags: HW
PickledData: "(dp1
S'org.robofab.postScriptHintData'
p2
(dp3
sS'com.typemytype.robofont.layerData'
p4
(dp5
S'b'
(dp6
S'name'
p7
S'quotedbl'
p8
sS'lib'
p9
(dp10
sS'unicodes'
p11
(tsS'width'
p12
I514
sS'contours'
p13
(tsS'components'
p14
(tsS'anchors'
p15
(tsss."
LayerCount: 2
Fore
SplineSet
182 803 m 257
 273 803 l 257
 307 1233 l 257
 142 1233 l 257
 182 803 l 257
452 803 m 257
 542 803 l 257
 580 1233 l 257
 414 1233 l 257
 452 803 l 257
EndSplineSet
EndChar

StartChar: quotedblbase
Encoding: 8222 8222 363
Width: 824
VWidth: 0
Flags: HW
PickledData: "(dp1
S'org.robofab.postScriptHintData'
p2
(dp3
sS'com.typemytype.robofont.layerData'
p4
(dp5
S'b'
(dp6
S'name'
p7
S'quotedblbase'
p8
sS'lib'
p9
(dp10
sS'unicodes'
p11
(tsS'width'
p12
I652
sS'contours'
p13
(tsS'components'
p14
(tsS'anchors'
p15
(tsss."
LayerCount: 2
Fore
SplineSet
179 -218 m 257
 311 -216 354 -134 354 -9 c 258
 354 166 l 257
 185 166 l 257
 185 -10 l 257
 263 -10 l 257
 262 -96 246 -125 179 -142 c 257
 179 -218 l 257
488 -218 m 257
 620 -216 663 -134 663 -9 c 258
 663 166 l 257
 494 166 l 257
 494 -10 l 257
 572 -10 l 257
 571 -97 556 -125 488 -142 c 257
 488 -218 l 257
EndSplineSet
EndChar

StartChar: quotedblleft
Encoding: 8220 8220 364
Width: 783
VWidth: 0
Flags: HW
PickledData: "(dp1
S'org.robofab.postScriptHintData'
p2
(dp3
sS'com.typemytype.robofont.layerData'
p4
(dp5
S'b'
(dp6
S'name'
p7
S'quotedblleft'
p8
sS'lib'
p9
(dp10
sS'unicodes'
p11
(tsS'width'
p12
I642
sS'contours'
p13
(tsS'components'
p14
(tsS'anchors'
p15
(tsss."
LayerCount: 2
Fore
SplineSet
163 867 m 257
 332 867 l 257
 332 1043 l 257
 255 1043 l 257
 256 1129 272 1157 339 1175 c 257
 339 1250 l 257
 207 1249 163 1168 163 1042 c 258
 163 867 l 257
432 867 m 257
 601 867 l 257
 601 1043 l 257
 524 1043 l 257
 525 1129 542 1157 608 1175 c 257
 608 1250 l 257
 476 1249 432 1168 432 1042 c 258
 432 867 l 257
EndSplineSet
EndChar

StartChar: quotedblright
Encoding: 8221 8221 365
Width: 780
VWidth: 0
Flags: HW
PickledData: "(dp1
S'org.robofab.postScriptHintData'
p2
(dp3
sS'com.typemytype.robofont.layerData'
p4
(dp5
S'b'
(dp6
S'name'
p7
S'quotedblright'
p8
sS'lib'
p9
(dp10
sS'unicodes'
p11
(tsS'width'
p12
I649
sS'contours'
p13
(tsS'components'
p14
(tsS'anchors'
p15
(tsss."
LayerCount: 2
Fore
SplineSet
180 847 m 257
 311 848 355 930 355 1056 c 258
 355 1230 l 257
 186 1230 l 257
 186 1055 l 257
 265 1055 l 257
 262 969 247 939 180 923 c 257
 180 847 l 257
444 847 m 257
 576 848 619 930 619 1056 c 258
 619 1230 l 257
 450 1230 l 257
 450 1055 l 257
 529 1055 l 257
 527 969 511 939 444 923 c 257
 444 847 l 257
EndSplineSet
EndChar

StartChar: quoteleft
Encoding: 8216 8216 366
Width: 477
VWidth: 0
Flags: HW
PickledData: "(dp1
S'org.robofab.postScriptHintData'
p2
(dp3
sS'com.typemytype.robofont.layerData'
p4
(dp5
S'b'
(dp6
S'name'
p7
S'quoteleft'
p8
sS'lib'
p9
(dp10
sS'unicodes'
p11
(tsS'width'
p12
I399
sS'contours'
p13
(tsS'components'
p14
(tsS'anchors'
p15
(tsss."
LayerCount: 2
Fore
SplineSet
135 867 m 257
 304 867 l 257
 304 1043 l 257
 226 1043 l 257
 227 1129 244 1157 311 1175 c 257
 311 1250 l 257
 179 1249 135 1168 135 1042 c 258
 135 867 l 257
EndSplineSet
EndChar

StartChar: quoteright
Encoding: 8217 8217 367
Width: 480
VWidth: 0
Flags: HW
PickledData: "(dp1
S'org.robofab.postScriptHintData'
p2
(dp3
sS'com.typemytype.robofont.layerData'
p4
(dp5
S'b'
(dp6
S'name'
p7
S'quoteright'
p8
sS'lib'
p9
(dp10
sS'unicodes'
p11
(tsS'width'
p12
I409
sS'contours'
p13
(tsS'components'
p14
(tsS'anchors'
p15
(tsss."
LayerCount: 2
Fore
SplineSet
175 847 m 257
 307 848 350 930 350 1056 c 258
 350 1230 l 257
 181 1230 l 257
 181 1055 l 257
 260 1055 l 257
 258 969 242 939 175 923 c 257
 175 847 l 257
EndSplineSet
EndChar

StartChar: quotesinglbase
Encoding: 8218 8218 368
Width: 477
VWidth: 0
Flags: HW
PickledData: "(dp1
S'org.robofab.postScriptHintData'
p2
(dp3
sS'com.typemytype.robofont.layerData'
p4
(dp5
S'b'
(dp6
S'name'
p7
S'quotesinglbase'
p8
sS'lib'
p9
(dp10
sS'unicodes'
p11
(tsS'width'
p12
I403
sS'contours'
p13
(tsS'components'
p14
(tsS'anchors'
p15
(tsss."
LayerCount: 2
Fore
SplineSet
174 -218 m 257
 307 -216 350 -134 349 -9 c 257
 349 166 l 257
 180 166 l 257
 180 -10 l 257
 260 -10 l 257
 257 -96 242 -125 174 -142 c 257
 174 -218 l 257
EndSplineSet
EndChar

StartChar: quotesingle
Encoding: 39 39 369
Width: 407
VWidth: 0
Flags: HW
PickledData: "(dp1
S'org.robofab.postScriptHintData'
p2
(dp3
sS'com.typemytype.robofont.layerData'
p4
(dp5
S'b'
(dp6
S'name'
p7
S'quotesingle'
p8
sS'lib'
p9
(dp10
sS'unicodes'
p11
(tsS'width'
p12
I239
sS'contours'
p13
(tsS'components'
p14
(tsS'anchors'
p15
(tsss."
LayerCount: 2
Fore
SplineSet
161 803 m 257
 253 803 l 257
 287 1233 l 257
 121 1233 l 257
 161 803 l 257
EndSplineSet
EndChar

StartChar: r
Encoding: 114 114 370
Width: 790
VWidth: 0
Flags: HW
PickledData: "(dp1
S'org.robofab.postScriptHintData'
p2
(dp3
sS'com.typemytype.robofont.layerData'
p4
(dp5
S'b'
(dp6
S'name'
p7
S'r'
sS'lib'
p8
(dp9
sS'unicodes'
p10
(tsS'width'
p11
I773
sS'contours'
p12
((dp13
S'points'
p14
((dp15
S'segmentType'
p16
S'line'
p17
sS'x'
I338
sS'smooth'
p18
I0
sS'y'
I449
s(dp19
S'y'
I643
sS'x'
I338
sg18
I0
s(dp20
S'y'
I756
sS'x'
I441
sg18
I0
s(dp21
g16
S'curve'
p22
sS'x'
I570
sg18
I1
sS'y'
I756
s(dp23
S'y'
I756
sS'x'
I614
sg18
I0
s(dp24
S'y'
I742
sS'x'
I651
sg18
I0
s(dp25
g16
S'curve'
p26
sS'x'
I704
sg18
I0
sS'y'
I716
s(dp27
g16
S'line'
p28
sS'x'
I722
sg18
I0
sS'y'
I784
s(dp29
S'y'
I810
sS'x'
I664
sg18
I0
s(dp30
S'y'
I820
sS'x'
I622
sg18
I0
s(dp31
g16
S'curve'
p32
sS'x'
I575
sg18
I1
sS'y'
I820
s(dp33
S'y'
I820
sS'x'
I467
sg18
I0
s(dp34
S'y'
I769
sS'x'
I381
sg18
I0
s(dp35
g16
S'curve'
p36
sS'x'
I316
sg18
I0
sS'y'
I582
stp37
stp38
sS'components'
p39
(tsS'anchors'
p40
(tsss."
AnchorPoint: "bot" 303 0 basechar 0
AnchorPoint: "top" 462 804 basechar 0
LayerCount: 2
Fore
SplineSet
378 433 m 1
 378 592 465 683 569 683 c 0
 618 683 664 668 711 637 c 1
 747 774 l 1
 692 800 638 816 583 816 c 0
 502 816 426 775 377 658 c 1
 377 804 l 1
 72 804 l 1
 72 696 l 1
 227 696 l 1
 227 108 l 1
 71 108 l 1
 71 0 l 1
 521 0 l 1
 521 108 l 1
 377 108 l 1
 377 436 l 1
 378 433 l 1
EndSplineSet
EndChar

StartChar: radical
Encoding: 8730 8730 372
Width: 1156
VWidth: 0
Flags: HW
PickledData: "(dp1
S'org.robofab.postScriptHintData'
p2
(dp3
sS'com.typemytype.robofont.layerData'
p4
(dp5
S'b'
(dp6
S'name'
p7
S'radical'
p8
sS'lib'
p9
(dp10
sS'unicodes'
p11
(tsS'width'
p12
I1118
sS'contours'
p13
(tsS'components'
p14
(tsS'anchors'
p15
(tsss."
LayerCount: 2
Fore
SplineSet
461 -14 m 257
 578 -14 l 257
 1038 1363 l 257
 938 1363 l 257
 535 158 l 257
 314 670 l 257
 20 670 l 257
 20 574 l 257
 193 574 l 257
 461 -14 l 257
EndSplineSet
EndChar

StartChar: registered
Encoding: 174 174 375
Width: 1530
VWidth: 0
Flags: HW
PickledData: "(dp1
S'org.robofab.postScriptHintData'
p2
(dp3
sS'com.typemytype.robofont.layerData'
p4
(dp5
S'b'
(dp6
S'name'
p7
S'registered'
p8
sS'lib'
p9
(dp10
sS'unicodes'
p11
(tsS'width'
p12
I1512
sS'contours'
p13
(tsS'components'
p14
(tsS'anchors'
p15
(tsss."
LayerCount: 2
Fore
SplineSet
470 280 m 257
 738 280 l 257
 738 341 l 257
 650 341 l 257
 650 589 l 257
 766 589 l 257
 933 280 l 257
 1089 280 l 257
 1089 342 l 257
 996 342 l 257
 852 599 l 257
 952 615 1014 680 1014 768 c 256
 1014 877 930 945 797 945 c 258
 467 945 l 257
 467 883 l 257
 560 883 l 257
 560 341 l 257
 470 341 l 257
 470 280 l 257
650 654 m 257
 650 883 l 257
 798 883 l 258
 875 883 924 839 924 767 c 256
 924 697 874 654 794 654 c 258
 650 654 l 257
755 76 m 256
 439 76 248 306 248 592 c 256
 248 877 440 1115 755 1115 c 256
 1070 1115 1264 877 1264 592 c 256
 1264 309 1070 76 755 76 c 256
755 -22 m 256
 1147 -22 1389 253 1389 593 c 256
 1389 934 1146 1213 755 1213 c 256
 367 1213 125 935 125 593 c 256
 125 253 366 -22 755 -22 c 256
EndSplineSet
EndChar

StartChar: ring
Encoding: 730 730 376
Width: 444
VWidth: 0
Flags: HW
PickledData: "(dp1
S'org.robofab.postScriptHintData'
p2
(dp3
sS'com.typemytype.robofont.layerData'
p4
(dp5
S'b'
(dp6
S'name'
p7
S'ring'
p8
sS'lib'
p9
(dp10
sS'unicodes'
p11
(tsS'width'
p12
I317
sS'contours'
p13
(tsS'components'
p14
(tsS'anchors'
p15
(tsss."
AnchorPoint: "top" 221 804 mark 0
LayerCount: 2
Fore
SplineSet
221 877 m 256
 322 877 383 947 383 1031 c 256
 383 1114 324 1180 221 1180 c 256
 118 1180 60 1114 59 1031 c 256
 60 947 120 877 221 877 c 256
221 941 m 256
 163 941 130 980 130 1030 c 256
 130 1079 163 1118 221 1118 c 256
 279 1118 312 1079 312 1030 c 256
 312 980 279 941 221 941 c 256
EndSplineSet
EndChar

StartChar: s
Encoding: 115 115 377
Width: 886
VWidth: 0
Flags: HW
PickledData: "(dp1
S'org.robofab.postScriptHintData'
p2
(dp3
sS'com.typemytype.robofont.layerData'
p4
(dp5
S'b'
(dp6
S'name'
p7
S's'
sS'lib'
p8
(dp9
sS'unicodes'
p10
(tsS'width'
p11
I919
sS'contours'
p12
(tsS'components'
p13
(tsS'anchors'
p14
(tsss."
AnchorPoint: "bot" 474 0 basechar 0
AnchorPoint: "top" 436 804 basechar 0
LayerCount: 2
Fore
SplineSet
499 -21 m 0
 654.858893859 -21 807.147177148 50.8676886053 807.147177148 212.694227475 c 0
 807.147177148 387.650757485 685.87242236 428.747471386 530 466 c 1
 426 490 l 1
 317.09919866 517.225200335 272.990946951 542.862027524 272.990946951 606.354961337 c 0
 272.990946951 680.433639967 354.53161014 716 442 716 c 0
 518 716 611 685 653 635 c 1
 667 532 l 1
 775 532 l 1
 775 808 l 1
 653 808 l 1
 653 748 l 1
 597 799 498 826 417 826 c 0
 248 826 121 744 121 601 c 0
 121 448 213 400 365 363 c 1
 477 338 l 2
 606 309 661 289 662 202 c 0
 662 126 583 83 480 83 c 0
 386 83 286 120 238 191 c 1
 229 279 l 1
 123 279 l 1
 123 0 l 1
 241 0 l 1
 241 69 l 1
 296 14 396 -21 499 -21 c 0
EndSplineSet
EndChar

StartChar: section
Encoding: 167 167 385
Width: 910
VWidth: 0
Flags: HW
PickledData: "(dp1
S'org.robofab.postScriptHintData'
p2
(dp3
s."
LayerCount: 2
Fore
SplineSet
468 -169 m 256
 677 -169 781 -57 781 107 c 256
 781 177 759 234 723 277 c 257
 785.297738545 316.554119711 829.016702505 393.265788593 829.016702505 474.259374385 c 0
 829.016702505 609.225751561 734.965480891 679.510765289 511 793 c 256
 370 865 299 895 299 1007 c 256
 299 1109 363 1171 472 1171 c 256
 600 1171 637 1066 641 963 c 257
 717 963 757 1001 757 1056 c 256
 757 1157 669 1243 478 1243 c 256
 295 1243 172 1148 172 994 c 256
 172 900 209 837 259 794 c 257
 188 766 136 703 136 621 c 256
 136 495 203 420 391 327 c 256
 633 206 672 170 672 73 c 256
 672 -31 608 -98 483 -98 c 256
 349 -98 276 -15 275 127 c 257
 211 127 164 95 164 25 c 256
 164 -77 243 -169 468 -169 c 256
664 327 m 257
 619 359 559 391 483 429 c 256
 308 518 251 553 251 651 c 256
 251 694 272 731 310 752 c 257
 347 726 431 684 482 659 c 256
 658 570 705 513 705 435 c 256
 705 391 692 354 664 327 c 257
EndSplineSet
EndChar

StartChar: semicolon
Encoding: 59 59 386
Width: 452
VWidth: 0
Flags: HW
PickledData: "(dp1
S'org.robofab.postScriptHintData'
p2
(dp3
sS'com.typemytype.robofont.layerData'
p4
(dp5
S'b'
(dp6
S'name'
p7
S'semicolon'
p8
sS'lib'
p9
(dp10
sS'unicodes'
p11
(tsS'width'
p12
I294
sS'contours'
p13
(tsS'components'
p14
(tsS'anchors'
p15
(tsss."
LayerCount: 2
Fore
SplineSet
119 -99 m 257
 284 -97 328 -8 328 138 c 258
 328 335 l 257
 125 334 l 257
 125 138 l 257
 227 138 l 257
 227 38 211 -5 119 -18 c 257
 119 -99 l 257
125 653 m 257
 325 653 l 257
 325 850 l 257
 125 850 l 257
 125 653 l 257
EndSplineSet
EndChar

StartChar: seven
Encoding: 55 55 387
Width: 987
VWidth: 0
Flags: HW
PickledData: "(dp1
S'org.robofab.postScriptHintData'
p2
(dp3
sS'com.typemytype.robofont.layerData'
p4
(dp5
S'b'
(dp6
S'name'
p7
S'seven'
p8
sS'lib'
p9
(dp10
sS'unicodes'
p11
(tsS'width'
p12
I964
sS'contours'
p13
(tsS'components'
p14
(tsS'anchors'
p15
(tsss."
LayerCount: 2
Fore
SplineSet
342 0 m 257
 508 0 l 257
 508 0 657 566 905 1048 c 257
 905 1152 l 257
 122 1152 l 257
 122 830 l 257
 265 830 l 257
 265 1038 l 257
 730 1038 l 257
 479 517 342 0 342 0 c 257
EndSplineSet
EndChar

StartChar: six
Encoding: 54 54 388
Width: 942
VWidth: 0
Flags: HW
PickledData: "(dp1
S'org.robofab.postScriptHintData'
p2
(dp3
sS'com.typemytype.robofont.layerData'
p4
(dp5
S'b'
(dp6
S'name'
p7
S'six'
p8
sS'lib'
p9
(dp10
sS'unicodes'
p11
(tsS'width'
p12
I829
sS'contours'
p13
(tsS'components'
p14
(tsS'anchors'
p15
(tsss."
LayerCount: 2
Fore
SplineSet
477 -20 m 256
 726 -20 873 139 873 374 c 256
 873 589 713 732 522 732 c 256
 402 732 319 665 300 646 c 257
 656 1169 l 257
 534 1252 l 257
 175 704 l 257
 91 582 69 473 69 351 c 256
 69 130 242 -20 477 -20 c 256
482 96 m 256
 314 96 229 212 229 356 c 256
 229 524 352 618 491 618 c 256
 642 618 731 516 731 363 c 256
 731 206 636 96 482 96 c 256
EndSplineSet
EndChar

StartChar: slash
Encoding: 47 47 389
Width: 600
VWidth: 0
Flags: HW
PickledData: "(dp1
S'org.robofab.postScriptHintData'
p2
(dp3
sS'com.typemytype.robofont.layerData'
p4
(dp5
S'b'
(dp6
S'name'
p7
S'slash'
p8
sS'lib'
p9
(dp10
sS'unicodes'
p11
(tsS'width'
p12
I295
sS'contours'
p13
(tsS'components'
p14
(tsS'anchors'
p15
(tsss."
LayerCount: 2
Fore
SplineSet
-1 -8 m 257
 103 -33 l 257
 597 1203 l 257
 495 1228 l 257
 -1 -8 l 257
EndSplineSet
EndChar

StartChar: sterling
Encoding: 163 163 392
Width: 1048
VWidth: 0
Flags: HW
PickledData: "(dp1
S'org.robofab.postScriptHintData'
p2
(dp3
s."
LayerCount: 2
Fore
SplineSet
270 -20 m 256
 363 -20 435 34 482 110 c 257
 566 35 652 -15 748 -15 c 256
 933 -15 993 96 996 282 c 256
 996 287 996 309 995 314 c 257
 897 314 l 257
 892 192 865 119 748 119 c 256
 677 119 604 165 540 217 c 257
 561.848269806 273.520524062 573.093843962 326.206030549 573.093843962 379.020936918 c 0
 573.093843962 437.404112346 559.352031098 495.945411223 531 560 c 257
 872 560 l 257
 872 663 l 257
 483 663 l 257
 437 750 389 833 389 920 c 256
 389 1046 479 1122 618 1122 c 256
 761 1122 814 1032 814 913 c 257
 945 913 l 257
 945 1113 829 1240 613 1240 c 256
 398 1240 252 1117 252 913 c 256
 252 825 290 738 327 663 c 257
 146 663 l 257
 146 560 l 257
 383 560 l 257
 442.74531903 474.649544243 456.735495693 385.686840404 456.735495693 321.139799399 c 0
 456.735495693 302.49836241 455.568607361 285.893379482 454 272 c 257
 404 321 334 359 267 359 c 256
 129 359 48 266 48 161 c 256
 48 64 123 -20 270 -20 c 256
265 68 m 256
 201 68 154 104 154 163 c 256
 154 224 196 260 260 260 c 256
 307 260 368 231 417 178 c 257
 390 105 322 68 265 68 c 256
EndSplineSet
EndChar

StartChar: summation
Encoding: 8721 8721 393
Width: 1283
VWidth: 0
Flags: HW
PickledData: "(dp1
S'org.robofab.postScriptHintData'
p2
(dp3
sS'com.typemytype.robofont.layerData'
p4
(dp5
S'b'
(dp6
S'name'
p7
S'summation'
p8
sS'lib'
p9
(dp10
sS'unicodes'
p11
(tsS'width'
p12
I1212
sS'contours'
p13
(tsS'components'
p14
(tsS'anchors'
p15
(tsss."
LayerCount: 2
Fore
SplineSet
125 0 m 257
 1121 0 l 257
 1121 357 l 257
 993 357 l 257
 993 109 l 257
 395 109 l 257
 770 565 l 257
 770 622 l 257
 438 1044 l 257
 983 1044 l 257
 983 802 l 257
 1111 802 l 257
 1111 1152 l 257
 125 1152 l 257
 125 1044 l 257
 280 1044 l 257
 649 571 l 257
 277 109 l 257
 125 109 l 257
 125 0 l 257
EndSplineSet
EndChar

StartChar: t
Encoding: 116 116 394
Width: 617
VWidth: 0
Flags: HW
PickledData: "(dp1
S'org.robofab.postScriptHintData'
p2
(dp3
sS'com.typemytype.robofont.layerData'
p4
(dp5
S'b'
(dp6
S'name'
p7
S't'
sS'lib'
p8
(dp9
sS'unicodes'
p10
(tsS'width'
p11
I572
sS'contours'
p12
(tsS'components'
p13
(tsS'anchors'
p14
(tsss."
AnchorPoint: "bot" 391 3 basechar 0
AnchorPoint: "top" 255 1067 basechar 0
LayerCount: 2
Fore
SplineSet
408 0 m 2
 558 0 l 1
 558 108 l 1
 435 108 l 2
 354 108 325 146 325 246 c 2
 325 696 l 1
 539 696 l 1
 539 804 l 1
 325 804 l 1
 325 1138 l 1
 175 1079 l 1
 175 804 l 1
 41 804 l 1
 41 696 l 1
 174 696 l 1
 174 238 l 2
 174 76 254 0 408 0 c 2
EndSplineSet
EndChar

StartChar: thorn
Encoding: 254 254 400
Width: 1098
VWidth: 0
Flags: HW
PickledData: "(dp1
S'org.robofab.postScriptHintData'
p2
(dp3
sS'com.typemytype.robofont.layerData'
p4
(dp5
S'b'
(dp6
S'name'
p7
S'thorn'
p8
sS'lib'
p9
(dp10
sS'unicodes'
p11
(tsS'width'
p12
I1069
sS'contours'
p13
(tsS'components'
p14
(tsS'anchors'
p15
(tsss."
LayerCount: 2
Fore
SplineSet
28 -346 m 257
 332 -346 l 257
 333 1152 l 257
 32 1152 l 257
 32 1043 l 257
 180 1043 l 257
 180 -235 l 257
 28 -235 l 257
 28 -346 l 257
EndSplineSet
Refer: 296 -1 N 1 0 0 1 -8 21 2
EndChar

StartChar: three
Encoding: 51 51 401
Width: 1037
VWidth: 0
Flags: HW
PickledData: "(dp1
S'org.robofab.postScriptHintData'
p2
(dp3
sS'com.typemytype.robofont.layerData'
p4
(dp5
S'b'
(dp6
S'name'
p7
S'three'
p8
sS'lib'
p9
(dp10
sS'unicodes'
p11
(tsS'width'
p12
I964
sS'contours'
p13
(tsS'components'
p14
(tsS'anchors'
p15
(tsss."
LayerCount: 2
Fore
SplineSet
413 544 m 257
 660.573307417 544 771.172589669 479.505214612 771.172589669 326.790925399 c 0
 771.172589669 183.8987592 668.173645226 98 506 98 c 256
 366 98 264 165 212 286 c 257
 92 219 l 257
 145 71 301 -21 505 -21 c 256
 768 -21 927 116 927 340 c 256
 927 488 827 576 662 609 c 257
 805 640 891 735 891 870 c 256
 891 1054 736 1174 492 1174 c 256
 300 1174 151 1085 87 940 c 257
 208 882 l 257
 249 990 350 1055 490 1055 c 256
 643 1055 742 980 742 869 c 256
 742 736 653 662 413 662 c 257
 413 544 l 257
EndSplineSet
EndChar

StartChar: threequarters
Encoding: 190 190 402
Width: 2006
VWidth: 0
Flags: HW
PickledData: "(dp1
S'org.robofab.postScriptHintData'
p2
(dp3
s."
LayerCount: 2
Fore
SplineSet
382 727 m 257
 550.854314255 727 628.152570639 679.506403208 628.152570639 572.805386735 c 0
 628.152570639 481.980769943 554.120195801 425 444 425 c 257
 344 425 271 472 237 553 c 257
 150 503 l 257
 185 403 299 338 443 338 c 256
 627 338 743 434 743 583 c 256
 743 687 670 751 555 775 c 257
 654 797 715 866 715 957 c 256
 715 1086 605 1174 440 1174 c 256
 307 1174 199 1112 152 1015 c 257
 240 972 l 257
 269 1043 342 1087 437 1087 c 256
 537 1087 605 1033 605 956 c 256
 605 867 544 814 381 814 c 257
 382 727 l 257
1472 0 m 257
 1787 0 l 257
 1787 80 l 257
 1687 80 l 257
 1687 245 l 257
 1807 245 l 257
 1807 323 l 257
 1687 323 l 257
 1687 814 l 257
 1584 814 l 257
 1227 334 l 257
 1241 245 l 257
 1585 245 l 257
 1585 80 l 257
 1472 80 l 257
 1472 0 l 257
618 -35 m 257
 722 -35 l 257
 1531 1222 l 257
 1430 1222 l 257
 618 -35 l 257
1322 323 m 257
 1585 682 l 257
 1585 323 l 257
 1322 323 l 257
EndSplineSet
EndChar

StartChar: threesuperior
Encoding: 179 179 403
Width: 972
VWidth: 0
Flags: HW
PickledData: "(dp1
S'org.robofab.postScriptHintData'
p2
(dp3
s."
LayerCount: 2
Fore
SplineSet
434 912 m 257
 608.862873704 912 680.152570639 864.533574775 680.152570639 758.730863659 c 0
 680.152570639 666.980769943 606.120195801 610 496 610 c 256
 396 610 323 657 289 738 c 257
 202 688 l 257
 237 588 351 522 495 522 c 256
 675 522 795 617 795 759 c 256
 795 849 749 931 606 960 c 257
 711 979 767 1056 767 1145 c 256
 767 1277 657 1359 491 1359 c 256
 359 1359 251 1297 204 1200 c 257
 292 1156 l 257
 321 1227 394 1272 489 1272 c 256
 589 1272 657 1218 657 1141 c 256
 657 1052 596 999 433 999 c 257
 434 912 l 257
EndSplineSet
EndChar

StartChar: tilde
Encoding: 732 732 404
Width: 573
VWidth: 0
Flags: HW
PickledData: "(dp1
S'org.robofab.postScriptHintData'
p2
(dp3
sS'com.typemytype.robofont.layerData'
p4
(dp5
S'b'
(dp6
S'name'
p7
S'tilde'
p8
sS'lib'
p9
(dp10
sS'unicodes'
p11
(tsS'width'
p12
I429
sS'contours'
p13
(tsS'components'
p14
(tsS'anchors'
p15
(tsss."
AnchorPoint: "top" 294 800 mark 0
LayerCount: 2
Fore
SplineSet
420 918 m 256
 516 918 555 1000 564 1101 c 257
 503 1101 l 257
 491 1048 468 1031 429 1031 c 256
 367 1031 247 1106 171 1106 c 256
 88 1106 31 1051 20 925 c 257
 83 925 l 257
 93 974 113 993 148 993 c 256
 217 993 328 918 420 918 c 256
EndSplineSet
EndChar

StartChar: trademark
Encoding: 8482 8482 405
Width: 1755
VWidth: 0
Flags: HW
PickledData: "(dp1
S'org.robofab.postScriptHintData'
p2
(dp3
sS'com.typemytype.robofont.layerData'
p4
(dp5
S'b'
(dp6
S'name'
p7
S'trademark'
p8
sS'lib'
p9
(dp10
sS'unicodes'
p11
(tsS'width'
p12
I1581
sS'contours'
p13
(tsS'components'
p14
(tsS'anchors'
p15
(tsss."
LayerCount: 2
Fore
SplineSet
799 515 m 257
 1037 515 l 257
 1037 593 l 257
 959 593 l 257
 959 1022 l 257
 1175 532 l 257
 1211 532 l 257
 1420 1022 l 257
 1420 593 l 257
 1342 593 l 257
 1342 515 l 257
 1596 515 l 257
 1596 593 l 257
 1516 593 l 257
 1516 1075 l 257
 1596 1075 l 257
 1596 1152 l 257
 1383 1152 l 257
 1194 698 l 257
 1005 1152 l 257
 799 1152 l 257
 799 1075 l 257
 879 1075 l 257
 879 593 l 257
 799 593 l 257
 799 515 l 257
285 515 m 257
 564 515 l 257
 564 592 l 257
 475 592 l 257
 475 1073 l 257
 622 1073 l 257
 622 912 l 257
 703 912 l 257
 703 1152 l 257
 148 1152 l 257
 148 912 l 257
 228 912 l 257
 228 1073 l 257
 375 1073 l 257
 375 592 l 257
 285 592 l 257
 285 515 l 257
EndSplineSet
EndChar

StartChar: two
Encoding: 50 50 406
Width: 1012
VWidth: 0
Flags: HW
PickledData: "(dp1
S'org.robofab.postScriptHintData'
p2
(dp3
sS'com.typemytype.robofont.layerData'
p4
(dp5
S'b'
(dp6
S'name'
p7
S'two'
p8
sS'lib'
p9
(dp10
sS'unicodes'
p11
(tsS'width'
p12
I964
sS'contours'
p13
(tsS'components'
p14
(tsS'anchors'
p15
(tsss."
LayerCount: 2
Fore
SplineSet
507 1048 m 256
 664.746615033 1048 730.10307937 951.43874474 730.10307937 831.768874145 c 0
 730.10307937 732.034482721 618.795414662 618.778191339 493 492 c 257
 131 122 l 257
 131 0 l 257
 890 0 l 257
 889 333 l 257
 764 333 l 257
 763 120 l 257
 312 120 l 257
 589 397 l 258
 734 542 883 680 883 839 c 256
 883 1042 748 1174 506 1174 c 256
 275 1174 130 1040 130 837 c 256
 130 794 138 746 153 698 c 257
 287 698 l 257
 276 744 270 786 270 819 c 256
 270 968 363 1048 507 1048 c 256
EndSplineSet
EndChar

StartChar: twosuperior
Encoding: 178 178 407
Width: 952
VWidth: 0
Flags: HW
PickledData: "(dp1
S'org.robofab.postScriptHintData'
p2
(dp3
sS'com.typemytype.robofont.layerData'
p4
(dp5
S'b'
(dp6
S'name'
p7
S'uni00B2'
p8
sS'lib'
p9
(dp10
sS'unicodes'
p11
(tsS'width'
p12
I897
sS'contours'
p13
(tsS'components'
p14
(tsS'anchors'
p15
(tsss."
LayerCount: 2
Fore
SplineSet
204 625 m 257
 204 537 l 257
 748 537 l 257
 747 774 l 257
 654 774 l 257
 654 624 l 257
 337 624 l 257
 536 819 l 258
 631 913 736 1006 736 1125 c 256
 736 1270 635 1359 466 1359 c 256
 295 1359 197 1256 197 1115 c 256
 197 1083 202 1051 212 1017 c 257
 311 1017 l 257
 303 1048 299 1076 299 1102 c 256
 299 1204 361 1266 467 1266 c 256
 577.342325798 1266 625.039109055 1203.19906313 625.039109055 1121.9090381 c 0
 625.039109055 1044.16869781 550.889795174 974.876733941 467 890 c 258
 204 625 l 257
EndSplineSet
EndChar

StartChar: u
Encoding: 117 117 408
Width: 1045
VWidth: 0
Flags: HW
PickledData: "(dp1
S'org.robofab.postScriptHintData'
p2
(dp3
sS'com.typemytype.robofont.layerData'
p4
(dp5
S'b'
(dp6
S'name'
p7
S'u'
sS'lib'
p8
(dp9
sS'unicodes'
p10
(tsS'width'
p11
I1025
sS'contours'
p12
(tsS'components'
p13
(tsS'anchors'
p14
(tsss."
AnchorPoint: "top" 490 804 basechar 0
LayerCount: 2
Fore
SplineSet
426 -20 m 0
 531 -20 630 24 723 98 c 1
 727 0 l 1
 1022 0 l 1
 1022 108 l 1
 872 108 l 1
 872 804 l 1
 578 804 l 1
 578 696 l 1
 722 696 l 1
 722 214 l 1
 645 142 559 100 461 100 c 0
 356 100 310 166 310 266 c 2
 310 804 l 1
 22 804 l 1
 22 696 l 1
 158 696 l 1
 158 249 l 2
 158 102 235 -20 426 -20 c 0
EndSplineSet
EndChar

StartChar: uc_main_stem
Encoding: 65558 -1 411
Width: 738
VWidth: 0
Flags: HW
PickledData: "(dp1
S'org.robofab.postScriptHintData'
p2
(dp3
sS'com.schriftgestaltung.Glyphs.Export'
p4
I00
sS'com.typemytype.robofont.layerData'
p5
(dp6
S'b'
(dp7
S'name'
p8
S'uc_main_stem'
p9
sS'lib'
p10
(dp11
sS'unicodes'
p12
(tsS'width'
p13
I626
sS'contours'
p14
(tsS'components'
p15
(tsS'anchors'
p16
(tsss."
LayerCount: 2
Fore
SplineSet
124 0 m 257
 612 0 l 257
 612 108 l 257
 451 108 l 257
 451 1044 l 257
 612 1044 l 257
 612 1152 l 257
 124 1152 l 257
 124 1044 l 257
 284 1044 l 257
 284 108 l 257
 124 108 l 257
 124 0 l 257
EndSplineSet
EndChar

StartChar: underscore
Encoding: 95 95 417
Width: 1132
VWidth: 0
Flags: HW
PickledData: "(dp1
S'org.robofab.postScriptHintData'
p2
(dp3
sS'com.typemytype.robofont.layerData'
p4
(dp5
S'b'
(dp6
S'name'
p7
S'underscore'
p8
sS'lib'
p9
(dp10
sS'unicodes'
p11
(tsS'width'
p12
I1126
sS'contours'
p13
(tsS'components'
p14
(tsS'anchors'
p15
(tsss."
LayerCount: 2
Fore
SplineSet
137 -162 m 257
 995 -162 l 257
 995 -77 l 257
 137 -77 l 257
 137 -162 l 257
EndSplineSet
EndChar

StartChar: uni00B5
Encoding: 181 181 424
Width: 1045
VWidth: 0
Flags: HW
PickledData: "(dp1
S'org.robofab.postScriptHintData'
p2
(dp3
sS'com.typemytype.robofont.layerData'
p4
(dp5
S'b'
(dp6
S'name'
p7
S'uni00B5'
p8
sS'lib'
p9
(dp10
sS'unicodes'
p11
(tsS'width'
p12
I1025
sS'contours'
p13
(tsS'components'
p14
(tsS'anchors'
p15
(tsss."
LayerCount: 2
Fore
SplineSet
158 -272 m 257
 310 -272 l 257
 310 445 l 257
 158 445 l 257
 158 -272 l 257
EndSplineSet
Refer: 408 117 N 1 0 0 1 0 0 2
EndChar

StartChar: uni0237
Encoding: 567 567 490
Width: 398
VWidth: 0
Flags: HW
PickledData: "(dp1
S'org.robofab.postScriptHintData'
p2
(dp3
sS'com.typemytype.robofont.layerData'
p4
(dp5
S'b'
(dp6
S'name'
p7
S'uni0237'
p8
sS'lib'
p9
(dp10
sS'unicodes'
p11
(tsS'width'
p12
I398
sS'contours'
p13
(tsS'components'
p14
(tsS'anchors'
p15
(tsss."
AnchorPoint: "top" 228 804 basechar 0
LayerCount: 2
Fore
SplineSet
23 -240 m 257
 95 -240 l 258
 250.204081633 -240 266.04123282 -151.9454394 266.04123282 -82.2231893174 c 0
 266.04123282 -64.3456892961 265 -47.6734693878 265 -34 c 258
 265 804 l 257
 48 804 l 257
 48 770 l 257
 221 770 l 257
 221 -39 l 258
 221 -49.076433121 221.055661487 -58.6996227027 221.055661487 -67.8702778087 c 0
 221.055661487 -161.541969248 215.248407643 -208 85 -208 c 258
 23 -208 l 257
 23 -240 l 257
EndSplineSet
EndChar

StartChar: uni02C9
Encoding: 713 713 491
Width: 600
VWidth: 0
Flags: HW
PickledData: "(dp1
S'org.robofab.postScriptHintData'
p2
(dp3
s."
LayerCount: 2
Fore
SplineSet
82 938 m 257
 512 938 l 257
 512 1036 l 257
 82 1036 l 257
 82 938 l 257
EndSplineSet
EndChar

StartChar: uni0307
Encoding: 775 775 492
Width: 477
VWidth: 0
Flags: HW
PickledData: "(dp1
S'org.robofab.postScriptHintData'
p2
(dp3
sS'com.typemytype.robofont.layerData'
p4
(dp5
S'b'
(dp6
S'name'
p7
S'uni0307'
p8
sS'lib'
p9
(dp10
sS'unicodes'
p11
(tsS'width'
p12
I342
sS'contours'
p13
(tsS'components'
p14
(tsS'anchors'
p15
(tsss."
AnchorPoint: "top" 241 805 mark 0
LayerCount: 2
Fore
SplineSet
239 942 m 256
 301 942 337 988 336 1035 c 257
 336 1091 295 1127 239 1127 c 256
 183.653736246 1127 141.982512276 1086.95166921 141.982512276 1036.78196313 c 0
 141.982512276 986.512208928 182.900417865 942 239 942 c 256
EndSplineSet
EndChar

StartChar: uni0311
Encoding: 785 785 493
Width: 962
VWidth: 0
Flags: HW
PickledData: "(dp1
S'org.robofab.postScriptHintData'
p2
(dp3
sS'com.typemytype.robofont.layerData'
p4
(dp5
S'b'
(dp6
S'name'
p7
S'uni0311'
p8
sS'lib'
p9
(dp10
sS'unicodes'
p11
(tsS'width'
p12
I962
sS'contours'
p13
(tsS'components'
p14
(tsS'anchors'
p15
(tsss."
AnchorPoint: "top" 488 804 mark 0
LayerCount: 2
Fore
SplineSet
352 934 m 257
 382 934 l 257
 400 996 434 1026 487 1026 c 256
 539 1026 573 996 591 934 c 257
 619 934 l 257
 604.178520842 1017.9883819 562.019553487 1059.01785377 489.62894071 1059.01785377 c 0
 488.757014704 1059.01785377 487.880702819 1059.01190139 487 1059 c 256
 486.14309996 1059.01190139 485.290165925 1059.01785377 484.441192839 1059.01785377 c 0
 413.956218805 1059.01785377 370.7738736 1017.9883819 352 934 c 257
EndSplineSet
EndChar

StartChar: uni2113
Encoding: 8467 8467 512
Width: 648
VWidth: 0
Flags: HW
PickledData: "(dp1
S'org.robofab.postScriptHintData'
p2
(dp3
s."
LayerCount: 2
Fore
SplineSet
511 -9 m 257
 529 98 l 257
 392.727580126 98 341.630489785 116.205413946 341.630489785 219.199878416 c 0
 341.630489785 243.935328124 344.577679032 273.561259391 350 309 c 258
 492 1215 l 257
 181 1215 l 257
 166 1106 l 257
 327 1106 l 257
 193 266 l 258
 188.918733815 240.462934441 186.904262339 217.115039593 186.904262339 195.796174653 c 0
 186.904262339 37.2948672675 298.256426875 -9.04954197902 499.457665517 -9.04954197902 c 0
 503.272853145 -9.04954197902 507.120346842 -9.03287841659 511 -9 c 257
EndSplineSet
EndChar

StartChar: uni2126
Encoding: 8486 8486 513
Width: 1426
VWidth: 0
Flags: HW
PickledData: "(dp1
S'org.robofab.postScriptHintData'
p2
(dp3
s."
LayerCount: 2
Fore
SplineSet
129 0 m 257
 610 0 l 257
 610 105 l 257
 393 211 292 424 292 619 c 256
 292 844 434 1048 713 1048 c 256
 991 1048 1133 844 1133 619 c 256
 1133 424 1033 211 816 105 c 257
 816 0 l 257
 1297 0 l 257
 1297 109 l 257
 1000 109 l 257
 1207 234 1303 433 1303 623 c 256
 1303 905 1088 1174 713 1174 c 256
 339 1174 123 905 123 621 c 256
 123 432 219 234 426 109 c 257
 129 109 l 257
 129 0 l 257
EndSplineSet
EndChar

StartChar: uni2206
Encoding: 8710 8710 514
Width: 1014
VWidth: 0
Flags: HW
PickledData: "(dp1
S'org.robofab.postScriptHintData'
p2
(dp3
sS'com.typemytype.robofont.layerData'
p4
(dp5
S'b'
(dp6
S'name'
p7
S'uni2206'
p8
sS'lib'
p9
(dp10
sS'unicodes'
p11
(tsS'width'
p12
I679
sS'contours'
p13
(tsS'components'
p14
(tsS'anchors'
p15
(tsss."
LayerCount: 2
Fore
SplineSet
76 0 m 257
 943 0 l 257
 943 96 l 257
 598 1115 l 257
 431 1115 l 257
 76 89 l 257
 76 0 l 257
187 105 m 257
 187 105 461 930 473 986 c 257
 485 930 756 105 756 105 c 257
 187 105 l 257
EndSplineSet
EndChar

StartChar: uniFB00
Encoding: 65559 -1 517
Width: 1345
VWidth: 0
Flags: HW
PickledData: "(dp1
S'org.robofab.postScriptHintData'
p2
(dp3
s."
LayerCount: 2
Fore
SplineSet
1203 696 m 257
 1203 804 l 257
 1005 804 l 257
 1005 975 l 258
 1005 1071 1044 1113 1098 1113 c 256
 1158 1113 1187 1076 1198 999 c 257
 1314 1032 l 257
 1304 1180 1195 1220 1093 1220 c 256
 937 1220 854 1125 854 976 c 258
 854 804 l 257
 396 804 l 257
 396 974 l 258
 396 1072 430 1114 490 1114 c 256
 555 1114 577 1069 588 999 c 257
 705 1032 l 257
 695 1174 594 1220 485 1220 c 256
 319 1220 243 1124 243 977 c 258
 243 804 l 257
 87 804 l 257
 87 696 l 257
 243 696 l 257
 243 109 l 257
 91 109 l 257
 91 0 l 257
 568 0 l 257
 568 109 l 257
 396 109 l 257
 396 696 l 257
 854 696 l 257
 854 109 l 257
 712 109 l 257
 712 0 l 257
 1191 0 l 257
 1191 109 l 257
 1005 109 l 257
 1005 696 l 257
 1203 696 l 257
EndSplineSet
EndChar

StartChar: uniFB03
Encoding: 65560 -1 518
Width: 1857
VWidth: 0
Flags: HW
PickledData: "(dp1
S'org.robofab.postScriptHintData'
p2
(dp3
sS'com.typemytype.robofont.layerData'
p4
(dp5
S'b'
(dp6
S'name'
p7
S'uniFB03'
p8
sS'lib'
p9
(dp10
sS'unicodes'
p11
(tsS'width'
p12
I1855
sS'contours'
p13
(tsS'components'
p14
(tsS'anchors'
p15
(tsss."
LayerCount: 2
Fore
SplineSet
119 0 m 257
 604 0 l 257
 604 109 l 257
 424 109 l 257
 424 696 l 257
 824 696 l 257
 824 804 l 257
 424 804 l 257
 424 982 l 258
 424 1078 515 1132 637 1132 c 256
 724 1132 828 1098 911 1035 c 257
 1011 1056 l 257
 920 1174 764 1232 620 1232 c 256
 432 1232 272 1142 272 983 c 258
 272 804 l 257
 115 804 l 257
 115 696 l 257
 272 696 l 257
 272 109 l 257
 119 109 l 257
 119 0 l 257
EndSplineSet
Refer: 243 64257 N 1 0 0 1 642 0 2
EndChar

StartChar: v
Encoding: 118 118 523
Width: 1053
VWidth: 0
Flags: HW
PickledData: "(dp1
S'org.robofab.postScriptHintData'
p2
(dp3
sS'com.typemytype.robofont.layerData'
p4
(dp5
S'b'
(dp6
S'name'
p7
S'v'
sS'lib'
p8
(dp9
sS'unicodes'
p10
(tsS'width'
p11
I1054
sS'contours'
p12
(tsS'components'
p13
(tsS'anchors'
p14
(tsss."
LayerCount: 2
Fore
SplineSet
459 0 m 1
 595 0 l 1
 909 696 l 1
 1039 696 l 1
 1039 804 l 1
 632 804 l 1
 632 696 l 1
 762 696 l 1
 539 155 l 1
 314 696 l 1
 445 696 l 1
 445 804 l 1
 14 804 l 1
 14 696 l 1
 151 696 l 1
 459 0 l 1
EndSplineSet
EndChar

StartChar: w
Encoding: 119 119 524
Width: 1464
VWidth: 0
Flags: HW
PickledData: "(dp1
S'org.robofab.postScriptHintData'
p2
(dp3
sS'com.typemytype.robofont.layerData'
p4
(dp5
S'b'
(dp6
S'name'
p7
S'w'
sS'lib'
p8
(dp9
sS'unicodes'
p10
(tsS'width'
p11
I1574
sS'contours'
p12
(tsS'components'
p13
(tsS'anchors'
p14
(tsss."
AnchorPoint: "top" 740 804 basechar 0
LayerCount: 2
Fore
SplineSet
379 0 m 1
 526 0 l 1
 733 571 l 1
 941 0 l 1
 1087 0 l 1
 1330 696 l 1
 1441 696 l 1
 1441 804 l 1
 1080 804 l 1
 1080 696 l 1
 1192 696 l 1
 1015 147 l 1
 817 696 l 1
 933 696 l 1
 933 804 l 1
 538 804 l 1
 538 696 l 1
 653 696 l 1
 462 149 l 1
 273 696 l 1
 383 696 l 1
 383 804 l 1
 18 804 l 1
 18 696 l 1
 124 696 l 1
 379 0 l 1
EndSplineSet
EndChar

StartChar: x
Encoding: 120 120 529
Width: 1033
VWidth: 0
Flags: HW
PickledData: "(dp1
S'org.robofab.postScriptHintData'
p2
(dp3
sS'com.typemytype.robofont.layerData'
p4
(dp5
S'b'
(dp6
S'name'
p7
S'x'
sS'lib'
p8
(dp9
sS'unicodes'
p10
(tsS'width'
p11
I1088
sS'contours'
p12
(tsS'components'
p13
(tsS'anchors'
p14
(tsss."
LayerCount: 2
Fore
SplineSet
49 0 m 1
 439 0 l 1
 439 109 l 1
 314 109 l 1
 512 338 l 1
 718 109 l 1
 582 109 l 1
 582 0 l 1
 994 0 l 1
 994 109 l 1
 872 109 l 1
 599 417 l 1
 845 696 l 1
 990 696 l 1
 990 804 l 1
 586 804 l 1
 586 696 l 1
 706 696 l 1
 523 483 l 1
 338 696 l 1
 459 696 l 1
 459 804 l 1
 53 804 l 1
 53 696 l 1
 184 696 l 1
 438 411 l 1
 171 109 l 1
 49 109 l 1
 49 0 l 1
EndSplineSet
EndChar

StartChar: y
Encoding: 121 121 530
Width: 1062
VWidth: 0
Flags: HW
PickledData: "(dp1
S'org.robofab.postScriptHintData'
p2
(dp3
sS'com.typemytype.robofont.layerData'
p4
(dp5
S'b'
(dp6
S'name'
p7
S'y'
sS'lib'
p8
(dp9
sS'unicodes'
p10
(tsS'width'
p11
I1072
sS'contours'
p12
(tsS'components'
p13
(tsS'anchors'
p14
(tsss."
AnchorPoint: "top" 547 804 basechar 0
LayerCount: 2
Fore
SplineSet
206 -325 m 1
 312 -325 l 2
 520 -325 553 -235 627 -47 c 1
 926 696 l 1
 1057 696 l 1
 1057 804 l 1
 637 804 l 1
 637 696 l 1
 777 696 l 1
 561 149 l 1
 320 696 l 1
 439 696 l 1
 439 804 l 1
 17 804 l 1
 17 696 l 1
 166 696 l 1
 464 51 l 1
 528 51 l 1
 486 -67 l 2
 443 -190 403 -202 298 -202 c 2
 206 -202 l 1
 206 -325 l 1
EndSplineSet
EndChar

StartChar: yen
Encoding: 165 165 534
Width: 1362
VWidth: 0
Flags: HW
PickledData: "(dp1
S'org.robofab.postScriptHintData'
p2
(dp3
sS'com.typemytype.robofont.layerData'
p4
(dp5
S'b'
(dp6
S'name'
p7
S'yen'
p8
sS'lib'
p9
(dp10
sS'unicodes'
p11
(tsS'width'
p12
I1477
sS'contours'
p13
(tsS'components'
p14
(tsS'anchors'
p15
(tsss."
LayerCount: 2
Fore
SplineSet
306 263 m 257
 994 263 l 257
 994 356 l 257
 306 356 l 257
 306 263 l 257
306 460 m 257
 994 460 l 257
 994 552 l 257
 306 552 l 257
 306 460 l 257
EndSplineSet
Refer: 140 89 N 1 0 0 1 0 0 2
EndChar

StartChar: z
Encoding: 122 122 536
Width: 896
VWidth: 0
Flags: HW
PickledData: "(dp1
S'org.robofab.postScriptHintData'
p2
(dp3
sS'com.typemytype.robofont.layerData'
p4
(dp5
S'b'
(dp6
S'name'
p7
S'z'
sS'lib'
p8
(dp9
sS'unicodes'
p10
(tsS'width'
p11
I955
sS'contours'
p12
(tsS'components'
p13
(tsS'anchors'
p14
(tsss."
AnchorPoint: "top" 476 804 basechar 0
LayerCount: 2
Fore
SplineSet
105 0 m 1
 810 0 l 1
 810 287 l 1
 692 287 l 1
 692 103 l 1
 281 103 l 1
 798 692 l 1
 798 804 l 1
 115 804 l 1
 115 534 l 1
 230 534 l 1
 230 700 l 1
 622 700 l 1
 105 107 l 1
 105 0 l 1
EndSplineSet
EndChar

StartChar: zero
Encoding: 48 48 540
Width: 1097
VWidth: 0
Flags: HW
PickledData: "(dp1
S'org.robofab.postScriptHintData'
p2
(dp3
sS'com.typemytype.robofont.layerData'
p4
(dp5
S'b'
(dp6
S'name'
p7
S'zero'
p8
sS'lib'
p9
(dp10
sS'unicodes'
p11
(tsS'width'
p12
I1090
sS'contours'
p13
(tsS'components'
p14
(tsS'anchors'
p15
(tsss."
LayerCount: 2
Fore
SplineSet
548 87 m 256
 547.463753236 86.9969873777 546.928259771 86.9954813537 546.393519933 86.9954813537 c 0
 369.428463978 86.9954813537 275 251.933912904 275 561 c 256
 275 890 370 1065 548 1065 c 256
 727 1065 823 890 823 562 c 256
 823 252 727 87 548 87 c 256
548 -22 m 256
 831 -22 975 182 975 562 c 256
 975 942 831 1174 548 1174 c 256
 265 1174 122 940 122 562 c 256
 122 183 265 -22 548 -22 c 256
EndSplineSet
EndChar
